<?xml version="1.0" encoding="utf-8"?>
<!-- Generator: Adobe Illustrator 15.0.0, SVG Export Plug-In . SVG Version: 6.00 Build 0)  -->
<!DOCTYPE svg PUBLIC "-//W3C//DTD SVG 1.1//EN" "http://www.w3.org/Graphics/SVG/1.1/DTD/svg11.dtd">
<svg version="1.1" id="Layer_1" xmlns="http://www.w3.org/2000/svg" xmlns:xlink="http://www.w3.org/1999/xlink" x="0px" y="0px"
	 width="612px" height="792px" viewBox="0 0 612 792" enable-background="new 0 0 612 792" xml:space="preserve">
<g>
	<path fill="#010101" d="M301.494,470.047c-2.763-2.075-6.051-3.335-9.492-3.637c-18.799-0.37-37.661-0.311-56.521,0
		c-6.772-0.605-12.756,4.386-13.376,11.158h84.381C304.575,474.546,303.59,471.403,301.494,470.047z"/>
	<path fill="#010101" d="M303.943,369.872c-0.928-1.325-2.453-2.634-4.665-4.176c-1.653-1.037-3.384-1.944-5.179-2.712l1.851-2.034
		c1.417,0.925,2.835,1.911,4.313,2.774l4.315,2.465c2.958-7.766,1.109-11.526-6.718-13.93c-1.681-0.657-3.326-1.398-4.932-2.219
		v-1.171l10.479,2.219c0-8.938-1.665-10.848-10.232-11.588c-1.836-0.308-3.647-0.74-5.424-1.294l0.492-0.742h9.555
		c-1.664-6.718-5.301-8.814-18.492-10.54l5.426-1.726c-8.568-10.293-40.004-6.164-49.311,6.164l8.197,4.623
		c-1.368,2.239-2.542,4.589-3.515,7.026c-1.354,4.006-1.848,8.321-3.45,12.328c-2.449,5.995-5.29,11.822-8.507,17.443
		c-2.219,3.822-1.108,13.992,2.713,16.087c1.187,0.348,2.448,0.348,3.636,0c1.791-0.025,3.573-0.274,5.302-0.74
		c1.713-0.413,3.26-1.337,4.438-2.65c1.721-3.148,4.828-5.297,8.383-5.794c3.447-1.067,6.791-2.449,9.984-4.129
		c-1.184,4.783-3.809,9.086-7.52,12.328c-5.055,5.178-10.417,10.047-15.41,15.35c-3.918,4.066-6.256,9.399-6.595,15.038
		c-0.361,2.449,0.78,4.879,2.896,6.163c3.345,1.489,4.859,5.4,3.391,8.755c-0.781,1.972,1.298,4.059,5.211,7.054
		c-0.317-0.07-0.539,0.017-0.589,0.405c-0.597,5.83-2.724,11.4-6.163,16.146c-0.853,0.714-1.6,1.544-2.219,2.466
		c-0.556,0.902-0.754,1.979-0.557,3.021c0,0.678,1.728,1.107,2.713,1.171c5.424,0,10.848,0,16.271,0h38.34
		c0.925,0.061,1.233-0.556,0.988-1.233c-1.133-1.923-2.409-3.757-3.822-5.484c-3.504-4.689-5.638-10.26-6.164-16.087
		c0-0.213-0.069-0.322-0.183-0.368c3.117-2.729,5.442-5.354,5.052-8.2c0.054-1.841,0.704-3.615,1.85-5.055
		c1.337-1.394,2.827-2.635,4.438-3.698c-1.062-1.876-1.919-3.845-2.612-5.864c0.396-1.075,0.737-2.146,1.01-3.197
		c5.547,20.957,10.293,19.23,17.998,18.491l-13.867-23.592c0.071-0.268,0.15-0.533,0.217-0.802l6.687,7.074
		c6.796,7.526,17.747,9.662,26.874,5.238l-32.545-17.702c0.003-0.025,0.007-0.051,0.011-0.075l22.364,8.036
		c9.683,3.52,20.488-0.502,25.518-9.49l-47.091-5.179l30.389,0.68c6.229,0.551,12.506-0.1,18.49-1.911
		c6.005-1.903,10.39-7.078,11.28-13.314l-57.517,8.073c0.014-0.087,0.021-0.173,0.034-0.26l44.415-10.465
		c5.663-0.749,10.957-3.224,15.163-7.088c5.055-5.732,4.809-14.978,10.417-20.279l-68.727,28.354l49.804-24.224
		c8.919-3.814,17.228-8.923,24.655-15.163c7.427-6.378,11.722-15.666,11.771-25.456
		C361.992,335.196,333.487,353.438,303.943,369.872z M251.447,400.706c-3.855,4.11-5.898,9.595-5.671,15.225
		c-0.165,1.512-0.561,2.985-1.171,4.376h-1.604c0-2.032-1.418-4.376-0.802-6.163c1.338-4.853,3.416-9.468,6.164-13.684
		c4.928-5.717,10.155-11.17,15.658-16.335l0.739,0.74C260.322,390.166,255.822,395.405,251.447,400.706z M276.717,382.707
		c0.309-1.233,0.678-2.404,0.864-3.575c1.893-6.684,0.548-13.87-3.637-19.416c-1.128-1.933-1.998-4.005-2.59-6.164l1.049-0.37
		C281.284,360.413,283.158,373.237,276.717,382.707z"/>
</g>
</svg>
