<?xml version="1.0" encoding="utf-8"?>
<!-- Generator: Adobe Illustrator 15.0.0, SVG Export Plug-In . SVG Version: 6.00 Build 0)  -->
<!DOCTYPE svg PUBLIC "-//W3C//DTD SVG 1.1//EN" "http://www.w3.org/Graphics/SVG/1.1/DTD/svg11.dtd">
<svg version="1.1" id="Layer_1" xmlns="http://www.w3.org/2000/svg" xmlns:xlink="http://www.w3.org/1999/xlink" x="0px" y="0px"
	 width="612px" height="792px" viewBox="0 0 612 792" enable-background="new 0 0 612 792" xml:space="preserve">
<path fill="#010101" d="M323.133,337.465h-9.555c1.664-6.718,5.301-8.814,18.492-10.54l-5.425-1.726
	c8.567-10.293,40.003-6.164,49.31,6.164l-8.197,4.623c1.367,2.239,2.542,4.589,3.514,7.026c1.355,4.006,1.849,8.321,3.451,12.328
	c2.449,5.995,5.29,11.822,8.506,17.443c2.219,3.822,1.109,13.992-2.712,16.087c-1.187,0.348-2.449,0.348-3.636,0
	c-1.791-0.025-3.572-0.274-5.302-0.74c-1.714-0.413-3.261-1.337-4.438-2.65c-1.721-3.148-4.829-5.297-8.383-5.794
	c-3.448-1.067-6.791-2.449-9.985-4.129c1.184,4.783,3.809,9.086,7.52,12.328c5.055,5.177,10.417,10.047,15.41,15.348
	c3.918,4.068,6.256,9.401,6.595,15.039c0.36,2.45-0.78,4.878-2.897,6.164c-3.344,1.489-4.858,5.399-3.39,8.753
	c1.171,2.958-4.067,6.163-12.327,12.327c-3.328,2.589-7.027,0.432-11.219,0.432c-8.752,0-7.766,5.116-14.423-0.74
	c-5.362-4.684-11.526-8.629-10.909-13.128c-0.054-1.841-0.703-3.614-1.85-5.055c-1.338-1.393-2.827-2.633-4.438-3.698
	c3.496-6.176,5.023-13.272,4.375-20.341l-3.76,12.76h-0.862c-2.065-4.775-3.335-9.855-3.76-15.04
	c1.368-4.763,3.445-9.293,6.163-13.437l-6.718,8.814c-5.609-8.444-2.22-14.917,4.869-20.71l-1.294-0.432l-7.089,5.363
	c-3.883-7.396-3.39-9.924,3.329-14.608c1.652-1.037,3.383-1.944,5.178-2.712l-1.85-2.034c-1.418,0.925-2.836,1.911-4.314,2.774
	l-4.315,2.465c-2.958-7.766-1.109-11.526,6.718-13.93c1.68-0.657,3.325-1.398,4.931-2.219v-1.171l-10.479,2.219
	c0-8.938,1.665-10.848,10.232-11.588c1.836-0.308,3.647-0.74,5.424-1.294L323.133,337.465z M347.355,384.125l-0.739,0.74
	c4.438,5.301,8.938,10.54,13.313,15.841c3.854,4.109,5.897,9.595,5.671,15.225c0.165,1.51,0.56,2.985,1.171,4.376h1.603
	c0-2.034,1.418-4.376,0.802-6.163c-1.338-4.853-3.416-9.468-6.164-13.684C358.084,394.743,352.857,389.29,347.355,384.125z
	 M334.658,382.707c-0.309-1.233-0.678-2.404-0.863-3.575c-1.894-6.684-0.548-13.87,3.637-19.416c1.128-1.933,1.998-4.005,2.59-6.164
	l-1.049-0.37C330.091,360.413,328.217,373.237,334.658,382.707L334.658,382.707z"/>
<path fill="#010101" d="M318.016,462.22c1.132-1.924,2.409-3.758,3.822-5.486c3.504-4.688,5.638-10.258,6.164-16.087
	c0-1.356,2.588,1.171,4.006,1.109c10.479-0.309,20.896-0.309,31.373,0c1.418,0,3.822-2.527,4.008-1.109
	c0.596,5.832,2.723,11.402,6.163,16.148c0.852,0.714,1.599,1.544,2.219,2.466c0.555,0.902,0.753,1.979,0.556,3.021
	c0,0.678-1.727,1.109-2.713,1.171c-5.424,0-10.848,0-16.271,0h-38.34C318.078,463.514,317.77,462.897,318.016,462.22z"/>
<path fill="#010101" d="M389.27,477.567h-84.382c1.911-3.021,2.896-6.164,4.992-7.52c2.763-2.075,6.051-3.335,9.492-3.637
	c18.8-0.37,37.661-0.309,56.522,0C382.666,465.805,388.65,470.796,389.27,477.567z"/>
<path fill="#010101" d="M339.404,438.551c-8.26-0.555-18.121-13.376-20.957-24.285c-5.547,20.957-10.293,19.23-17.998,18.491l0,0
	l15.47-26.319l-8.506,8.999c-6.796,7.527-17.747,9.663-26.874,5.239l0,0l32.976-17.937l-22.806,8.197
	c-9.683,3.518-20.488-0.502-25.518-9.492l0,0l47.091-5.177l-30.388,0.678c-6.229,0.551-12.506-0.099-18.491-1.911
	c-6.005-1.903-10.39-7.078-11.28-13.314l60.159,8.444l-47.091-11.095c-5.663-0.749-10.957-3.224-15.163-7.088
	c-5.054-5.732-4.808-14.978-10.417-20.279l68.727,28.354l-49.804-24.224c-8.919-3.814-17.228-8.923-24.655-15.163
	c-7.428-6.378-11.723-15.666-11.773-25.456c29.997,21.976,61.465,41.87,94.183,59.542c4.337,2.319,6.881,6.995,6.471,11.896
	C321.652,402.308,323.193,429.736,339.404,438.551z"/>
</svg>
