<?xml version="1.0" encoding="utf-8"?>
<!-- Generator: Adobe Illustrator 25.4.1, SVG Export Plug-In . SVG Version: 6.00 Build 0)  -->
<svg version="1.1" id="Layer_1" xmlns="http://www.w3.org/2000/svg" xmlns:xlink="http://www.w3.org/1999/xlink" x="0px" y="0px"
	 viewBox="0 0 119.4 12.9" style="enable-background:new 0 0 119.4 12.9;" xml:space="preserve">
<style type="text/css">
	.st0{fill:#344620;}
	.st1{font-family:'MyriadPro-Regular';}
	.st2{font-size:3.79px;}
</style>
<g id="Layer_1-2">
	<g id="Layer_2_00000013889058393977755260000007007861046603136133_">
		<path class="st0" d="M18.6,2.8c0.3-0.2,0.6-0.3,0.8-0.5c0.8-0.7,2.1-0.7,2.8,0.2c0.2,0.2,0.3,0.4,0.4,0.7c0.7,1.3,0.6,2.9-0.1,4.1
			c-0.2,0.4-0.6,0.7-1,0.8c-0.9,0.5-2,0.6-3,0.3C18.1,8.3,18,8.6,18,8.8c-0.1,0.8-0.1,1.6-0.3,2.4c-0.1,0.4-0.3,0.8-0.6,1.1
			c-0.2,0.1-0.5,0.2-0.7,0.1C16.1,12.3,16,12,16,11.8c0.1-1.2,0.4-2.4,0.5-3.6c0.1-0.9,0.2-1.8,0.1-2.8c0-0.2-0.4-0.5-0.6-0.7
			c-0.9-0.6-0.9-1,0-1.6c0.5-0.3,0.9-0.6,1.4-0.9C18.3,1.4,18.5,1.5,18.6,2.8z M19,6.8c0.5,0.5,1.2,0.6,1.9,0.4
			c0.6-0.3,0.5-0.9,0.4-1.4c-0.1-0.6-0.3-1.2-0.5-1.7c-0.2-0.6-0.9-0.9-1.5-0.7c-0.6,0.1-1,0.6-1.1,1.2C18.2,5.3,18.4,6.1,19,6.8
			L19,6.8z"/>
		<path class="st0" d="M103.8,3.9c0.1,1.4-0.4,2.7-1.2,3.8c-1,1.2-2.1,2.3-3.2,3.5c-0.1,0.1-0.2,0.2-0.3,0.3c-0.2,0-0.4,0-0.5,0
			c0-0.2,0-0.4,0.2-0.5c0.8-0.9,1.5-1.8,2.3-2.6c0.7-0.8,1.1-1.7,1.2-2.8c0.1-0.8-0.2-1.6-0.9-2c-0.4-0.4-1.1-0.3-1.4,0.1
			c-0.6,0.5-1,1.3-1,2.1c0,0.7-0.3,1.4-0.8,1.8c-0.2,0.1-0.5,0.2-0.7,0.3c-0.1-0.3-0.1-0.5-0.1-0.8c0.1-0.6,0.1-1.2,0.1-1.8
			c0-0.5-0.2-1-0.5-1.5c-0.6-0.8-1.2-1-2-0.3c-0.7,0.5-0.9,1.5-0.5,2.2c0.1,0.1,0.2,0.3,0.3,0.4C95,6.5,95,6.8,94.8,7.1
			c-0.1,0.1-0.2,0.3-0.3,0.4c-0.6,0.8-1,0.7-1.5-0.1c-0.4-0.7-0.5-1.6-0.1-2.3c0.7-1.4,1.8-2.5,3.2-3.1C97,1.4,98,1.7,98.5,2.6
			c0,0.1,0.1,0.2,0.1,0.3c0.4,0.9,0.4,0.8,1,0.2l0.9-0.8c1.2-1.1,2.3-0.3,3,0.6C103.7,3.3,103.8,3.6,103.8,3.9z"/>
		<path class="st0" d="M33.2,12.4c-0.8-0.3-0.8-0.3-0.3-1s0.6-0.7,1.5-0.5s1.3,0.1,1.3-0.9c0-0.4,0-0.7,0.1-1.1s-0.1-0.5-0.5-0.3
			c-0.1,0.1-0.3,0.2-0.5,0.2c-1.8,0.4-2.4,0.1-3.1-0.9C31,6.6,31,5,31.9,3.9c0.3-0.3,0.6-0.7,0.9-1.1c0.9-1.4,2.8-1.3,4-0.8
			c0.5,0.2,1.2,0.5,1.4,0.9s-0.6,0.7-0.8,1.2c-0.3,0.6-0.7,0.3-1,0c-0.6-0.8-1.7-1.1-2.7-0.8c-0.3,0.1-0.5,0.3-0.7,0.5
			c-0.5,0.9-0.4,2,0.2,2.8c0.6,0.8,1.8,1,2.6,0.4c0.2-0.1,0.3-0.3,0.4-0.4c0.1-0.2,0.3-0.4,0.5-0.5c0.2-0.2,0.4-0.3,0.6-0.4
			c0.1,0.2,0.1,0.5,0.1,0.7c-0.1,1.2-0.2,2.4-0.4,3.6c-0.2,1.1-0.9,2.1-2,2.5c-0.6,0.1-1.2,0.2-1.8,0.1L33.2,12.4z"/>
		<path class="st0" d="M49.1,9.2C48.7,9,48.4,8.7,48,8.5c-0.2-0.2-0.6-0.7-0.5-0.8c0.3-0.4,0.6-0.8,1-1.1c0,0,0.3,0,0.4,0.1
			c0.4,0.3,0.8,0.6,1.2,0.8c0.4,0.1,0.7,0.2,1.1,0.2c0.2,0,0.5-0.2,0.5-0.3c0-0.2-0.1-0.4-0.2-0.6c-0.4-0.3-0.9-0.5-1.3-0.6
			c-0.6-0.2-1.2-0.2-1.8-0.4c-0.8-0.1-1.3-0.8-1.2-1.6c0-0.3,0.2-0.6,0.4-0.8c1.4-1.7,2.7-2.2,4.8-1.1c1.5,0.7,1.5,0.8,0.3,2
			c-0.3,0.3-0.6,0.4-1,0.1c-0.2-0.2-0.5-0.3-0.7-0.5c-0.3-0.2-0.5-0.3-0.8-0.4c-0.4-0.1-1-0.2-1.2,0.3s0.5,0.6,0.9,0.7
			c0.7,0.1,1.4,0.3,2.2,0.4c0.8,0.2,1.4,0.9,1.2,1.8c-0.1,0.3-0.2,0.5-0.4,0.7c-0.5,0.8-1.3,1.5-2.2,1.8C50.2,9.2,49.6,9.3,49.1,9.2
			z"/>
		<path class="st0" d="M40.4,3.1c-0.3,0.4-0.6,0.8-1,1.2c-0.1,0.1-0.3,0.1-0.4,0.1c0-0.1,0-0.3,0-0.4c0.4-0.6,0.8-1.2,1.3-1.7
			c0.8-0.9,1.1-0.9,1.7,0.1c0.7,1.2,1.6,2.4,2.7,3.3c0.4,0.4,0.9,0.8,1.4,1.1c0.5,0.4,0.6,0.6,0.3,1.1c0,0.1-0.1,0.1-0.1,0.2
			C46,9,46,9,45.2,8.4s-1.4-1.1-2.1-1.7c-0.2-0.1-0.3-0.1-0.5,0c-0.4,0.3-0.7,0.6-1,1c-0.5,0.6-1.2,0.9-1.9,0.9
			c-0.7,0-0.9-0.2-0.8-0.8c0.3-1.1,0.8-2.1,1.6-3C41.3,4,41.3,3.9,40.4,3.1z M40.4,6.3c0,0.2,0,0.5,0.1,0.6C40.7,7,41,7,41.2,6.9
			c0.3-0.2,0.7-0.4,1-0.6c0.4-0.2,0.4-0.4,0.1-0.8c-0.8-0.9-0.8-0.9-1.4,0.1C40.7,5.9,40.6,6.1,40.4,6.3L40.4,6.3z"/>
		<path class="st0" d="M60,6.5c-0.6,0.6-1.1,1.2-1.7,1.7C57.7,8.9,56.7,9,56,8.4c-0.2-0.2-0.3-0.4-0.4-0.6c-0.1-0.5-0.2-0.9-0.3-1.4
			c0-0.1,0-0.1,0-0.2c0.3-0.7-0.1-1.5-0.9-1.8c-0.1,0-0.2,0-0.2-0.1c-0.3-0.1-0.4-0.2-0.2-0.5c0.6-0.7,1.2-1.4,1.9-2
			c0.5-0.4,0.8-0.3,0.8,0.4s0,1.5,0.1,2.2c0,0.5,0.1,1,0.2,1.5s0.2,1,0.7,1c0.5,0,0.9-0.1,1.3-0.4c0.6-0.6,0.9-1.5,0.8-2.4
			c0-0.3,0-0.6,0-0.9c0-0.7,0.5-1.4,1.1-1.6c0.2,0,0.4,0.2,0.5,0.3s0,0.3,0,0.4c-0.2,1.5,0,3,0.7,4.4c0.3,0.7,0.2,1.4-0.4,1.9
			C61.4,9.1,61,9,60.8,8.5s-0.3-1-0.5-1.4C60.2,6.9,60.1,6.8,60,6.5z"/>
		<path class="st0" d="M80.8,7.9c-0.7,0.2-1.3,0.4-1.9,0.5c-1.2,0.3-2.4-0.4-2.7-1.5c0-0.1-0.1-0.2-0.1-0.4c-0.1-0.4,0-0.8,0.2-1.1
			c1-1.5,2-2.9,3.7-3.5c0.8-0.4,1.7-0.3,2.5,0.2c0.3,0.2,0.4,0.5,0,0.7s-0.5,0.5-0.7,0.7c-0.2,0.1-0.3,0.1-0.5,0
			c-0.9-0.6-2.1-0.5-2.8,0.2c-0.6,0.4-0.9,1-0.8,1.7c0,0.1,0,0.2,0.1,0.3c0.4,0.6,1.1,0.9,1.8,0.9c0.6,0,1.3,0,1.6-0.8
			c0.1-0.2,0.1-0.4,0.3-0.5c0.3-0.2,0.7-0.3,1-0.5c0.1,0.3,0.1,0.6,0.1,0.9c-0.1,0.7-0.2,1.5-0.3,2.2c-0.2,1.3-1.1,2.5-2.3,3
			c-0.7,0.2-1.4,0.2-2.2,0.1c-0.1,0-0.2-0.3-0.2-0.4c0.3-0.7,1-1.2,1.7-1.2h0.6c0.6,0,0.9-0.3,0.9-0.9C80.8,8.4,80.8,8.2,80.8,7.9z"
			/>
		<path class="st0" d="M65.2,6.1L64,6c-0.5,0.1-0.9-0.2-1.1-0.6c-0.2-0.5-0.4-1.1,0.1-1.6C63.7,3,64.2,2,65.4,1.7
			c1.1-0.2,2.3,0,3.2,0.7c0.1,0.1,0.1,0.4,0.1,0.5c-0.4,0.4-0.9,0.8-1.4,1.1c-0.1,0.1-0.3-0.1-0.5-0.2c-0.3-0.3-0.6-0.5-1-0.7
			c-0.3-0.1-0.6,0-0.9,0.1c-0.2,0.2-0.4,0.4-0.4,0.7c0,0.2,0.5,0.4,0.7,0.4c0.8,0,1.6,0,2.3,0c1.3,0,1.8,0.9,1.2,2
			c-0.5,1.2-1.6,2.1-2.9,2.3C64.8,9,63.8,8.7,63.2,8c-0.3-0.3-0.3-0.5,0-0.8l0.5-0.5c0.4-0.4,0.7-0.6,1.2,0c0.5,0.6,1.3,0.8,2.1,0.5
			c0.2-0.1,0.4-0.3,0.6-0.4c-0.2-0.2-0.4-0.6-0.7-0.6C66.2,6,65.7,6,65.2,6.1L65.2,6.1z"/>
		<path class="st0" d="M106.9,5.8c0.5,1,1.8,1.4,2.8,0.9c0.2-0.1,0.3-0.2,0.5-0.3c0.2-0.2,0.4-0.4,0.7-0.6c0.1-0.1,0.3-0.1,0.4-0.1
			c0,0.2,0.1,0.4,0,0.5c-0.5,0.6-1,1.1-1.6,1.6c-0.8,0.7-1.8,1-2.8,0.8c-1.3-0.4-2.1-1.6-1.9-2.9c0.4-1.3,1.2-2.4,2.2-3.2
			c1.2-1,2.9-1.1,4.2-0.2c0.6,0.4,0.6,0.5,0.2,1.2c-0.6,1-0.7,1-2.2,0.4c-0.8-0.5-1.8-0.3-2.4,0.3c0.4,0.1,0.8,0.2,1.2,0.2
			s0.6,0,0.9,0c0.2,0.1,0.4,0.2,0.6,0.3c-0.1,0.2-0.2,0.4-0.3,0.5C108.8,5.9,107.8,6.2,106.9,5.8z"/>
		<path class="st0" d="M115.6,8.7c-0.3,0-0.7,0-1,0c-0.8,0-1.6-0.1-2.4-0.2c-0.3,0-0.4-0.2-0.3-0.5c0.3-0.5,0.6-1,1-1.4
			c0.1-0.1,0.4,0,0.7,0c0.8,0.1,1.6,0.3,2.4,0.3c0.2,0,0.4-0.3,0.6-0.4c-0.2-0.2-0.4-0.5-0.6-0.5c-0.6-0.1-1.2,0.1-1.8,0
			c-0.5-0.1-1-0.2-1.5-0.4c-0.4-0.2-0.6-0.7-0.4-1.2c0,0,0-0.1,0-0.1c0.6-1.1,1.1-2.3,2.5-2.6c0.7-0.1,1.4-0.1,2.2,0
			c0.7,0.1,0.8,0.4,0.5,1.1c-0.5,1-0.7,1.1-1.7,0.7c-0.5-0.1-1-0.2-1.6-0.1c-0.1,0-0.3,0.3-0.3,0.4c0,0.2,0.1,0.3,0.3,0.4
			c0.5,0.1,1,0.2,1.5,0.2c0.7-0.1,1.4,0,2,0.2c0.4,0.2,0.6,0.5,0.4,0.9c0,0.3-0.1,0.5-0.2,0.8C117.3,7.3,116.6,8.1,115.6,8.7z"/>
		<path class="st0" d="M25.3,4.5h3.1c0.2,0,0.4,0.1,0.5,0.1c0,0.2-0.1,0.4-0.1,0.5c-0.4,1.2-1.5,0.9-2.4,1c-0.1,0-0.3-0.1-0.4-0.1
			c-0.2,0-0.3,0.1-0.4,0.2c0,0.1,0,0.3,0.1,0.4c0.4,0.5,1.1,0.7,1.8,0.6C28.2,7,29.2,7,29.7,6c0.1-0.1,0.3-0.1,0.5-0.2
			c0,0.2,0.1,0.6,0,0.7c-0.9,1.3-2.3,2.1-3.8,2.3c-1.4,0-2.6-1-2.7-2.4c0-0.9,0.3-1.8,0.9-2.5c0.5-0.7,1.1-1.4,1.7-2
			c0.3-0.3,0.7-0.4,1.1-0.4c0.5,0,1.1,0.1,1.5,0.3c1.3,0.6,1.4,1.5,0.3,2.3c-0.1,0.1-0.5,0-0.7-0.2c-0.4-0.2-0.7-0.7-1.1-0.8
			C26.3,3,25.9,3.3,25.3,4.5z"/>
		<path class="st0" d="M91.9,7.5c-0.1,0.2-0.2,0.3-0.3,0.5c-0.3,0.3-0.7,0.6-1.1,0.8c-0.2,0.1-0.5,0-0.7-0.2
			c-0.5-0.5-0.9-1.1-1.3-1.6c-0.2-0.3-0.4-0.3-0.7-0.1c-0.5,0.3-1,0.6-1.5,1c-0.6,0.4-1.4,0.6-2.2,0.5c-0.2-0.1-0.3-0.3-0.3-0.5
			c0.1-0.4,0.2-0.7,0.5-1c0.7-0.8,1.4-1.6,2.2-2.4c0.2-0.2,0.5-0.5,0.2-0.8c-0.1-0.1-0.4,0-0.6,0.1s-0.6,0.5-0.9,0.7
			c-0.1,0.1-0.3,0-0.4,0s0-0.3,0-0.4c0.8-0.7,1.7-1.5,2.6-2.2c0.3-0.2,0.6-0.1,0.8,0.2c0,0.1,0.1,0.1,0.1,0.2
			c0.1,0.2,0.2,0.4,0.3,0.6C89,4.5,90.1,6,91.6,7c0.2,0.1,0.3,0.2,0.5,0.3C92,7.3,92,7.4,91.9,7.5z M85.8,6.7c0.5-0.1,1-0.3,1.4-0.5
			C87.7,6,87.8,5.6,87.3,5s-0.6,0.1-0.8,0.2c-0.3,0.3-0.6,0.6-0.8,0.9C85.6,6.2,85.7,6.5,85.8,6.7z"/>
	</g>
</g>
<text transform="matrix(1 0 0 1 117.43 10.14)" class="st0 st1 st2">®</text>
<path class="st0" d="M8.2,2.7H7.5C7.6,2.2,7.9,2.1,8.8,2L8.4,1.8c0.6-0.7,2.8-0.4,3.5,0.4l-0.6,0.3c0.1,0.2,0.2,0.3,0.2,0.5
	s0.1,0.6,0.2,0.9c0.2,0.4,0.4,0.8,0.6,1.2c0.2,0.4,0.1,0.8-0.2,1.1c-0.1,0-0.2,0-0.3,0c-0.1,0-0.2,0-0.4,0c-0.1,0-0.2-0.1-0.3-0.2
	c-0.1-0.2-0.3-0.4-0.6-0.4c-0.2-0.1-0.5-0.2-0.7-0.3c0.1,0.3,0.3,0.6,0.5,0.9c0.4,0.4,0.7,0.7,1.1,1.1C11.9,7.7,12,8,12,8.4
	c0,0.2,0,0.4-0.2,0.4c-0.2,0.1-0.3,0.4-0.2,0.6c0,0,0,0,0,0c0.1,0.2-0.3,0.4-0.9,0.9c-0.2,0.2-0.5,0-0.8,0c-0.6,0-0.6,0.4-1-0.1
	S8.1,9.7,8.2,9.4c0-0.1-0.1-0.3-0.1-0.4C8,8.9,7.9,8.9,7.7,8.8C8,8.4,8.1,7.9,8.1,7.3L7.8,8.2H7.7C7.6,7.9,7.5,7.6,7.5,7.2
	c0.1-0.4,0.2-0.7,0.4-1L7.4,6.8C7,6.2,7.2,5.8,7.7,5.3H7.6L7.1,5.7C6.9,5.2,6.9,5,7.4,4.7c0.1-0.1,0.2-0.1,0.4-0.2L7.6,4.4L7.3,4.6
	C7.2,4.6,7.1,4.7,7,4.7c-0.2-0.6-0.1-0.8,0.5-1c0.1,0,0.2-0.1,0.4-0.2V3.5L7.1,3.7c0-0.6,0.1-0.8,0.7-0.8C7.9,2.8,8.1,2.8,8.2,2.7
	L8.2,2.7z M9.9,6L9.9,6c0.3,0.4,0.6,0.7,0.9,1.1c0.3,0.3,0.4,0.7,0.4,1.1c0,0.1,0,0.2,0.1,0.3h0.1c0-0.1,0.1-0.3,0.1-0.4
	c-0.1-0.4-0.3-0.7-0.5-1C10.6,6.7,10.3,6.3,9.9,6z M9,5.9c0-0.1,0-0.2-0.1-0.2c-0.1-0.5,0-1,0.2-1.4C9.3,4.2,9.3,4,9.4,3.9H9.3
	C8.7,4.4,8.6,5.2,9,5.9z"/>
<path class="st0" d="M7.8,11.5c0.1-0.1,0.2-0.3,0.3-0.4c0.2-0.3,0.4-0.7,0.4-1.1c0-0.1,0.2,0.1,0.3,0.1c0.7,0,1.5,0,2.2,0
	c0.1,0,0.3-0.2,0.3-0.1c0,0.4,0.2,0.8,0.4,1.1c0.1,0,0.1,0.1,0.2,0.2c0,0.1,0,0.1,0,0.2c0,0.1-0.1,0.1-0.2,0.1H7.9
	C7.8,11.6,7.8,11.6,7.8,11.5z"/>
<path class="st0" d="M12.8,12.6H6.9c0.1-0.2,0.2-0.4,0.3-0.5c0.2-0.1,0.4-0.2,0.7-0.2c1.3,0,2.7,0,4,0
	C12.4,11.8,12.8,12.1,12.8,12.6z"/>
<path class="st0" d="M9.3,9.8C8.7,9.8,8,8.9,7.8,8.1C7.4,9.6,7.1,9.5,6.6,9.4l0,0l1.1-1.9L7.1,8.2C6.6,8.7,5.8,8.9,5.2,8.6l0,0
	l2.3-1.3L5.9,7.9c-0.7,0.2-1.4,0-1.8-0.7l0,0l3.3-0.4H5.2c-0.4,0-0.8,0-1.2-0.1C3.6,6.6,3.3,6.3,3.2,5.8l4.2,0.6L4.1,5.6
	C3.7,5.6,3.3,5.4,3,5.2C2.6,4.7,2.7,4.1,2.3,3.7l4.8,2L3.6,4C3,3.7,2.4,3.4,1.9,2.9C1.4,2.5,1,1.8,1,1.2c2.1,1.5,4.3,2.9,6.6,4.2
	C8,5.5,8.2,5.8,8.1,6.2C8.1,7.3,8.2,9.2,9.3,9.8z"/>
</svg>
