<svg id="Layer_1" data-name="Layer 1" xmlns="http://www.w3.org/2000/svg" viewBox="0 0 99.29 31.78"><defs><style>.cls-1,.cls-2{fill:#fefced;}.cls-2{isolation:isolate;font-size:3.79px;font-family:MyriadPro-Regular, Myriad Pro;}</style></defs><g id="Layer_1-2" data-name="Layer 1"><g id="Layer_2" data-name="Layer 2"><path class="cls-1" d="M35.06,11.4c.31-.19.56-.31.79-.47a2,2,0,0,1,3.23.87,4.24,4.24,0,0,1-.16,4.1,2.08,2.08,0,0,1-1,.84,4.13,4.13,0,0,1-3,.33c-.36-.15-.44.12-.48.39-.1.8-.15,1.61-.31,2.4A2.8,2.8,0,0,1,33.5,21a.8.8,0,0,1-.74.08.86.86,0,0,1-.34-.68c.14-1.22.37-2.43.51-3.65A19.76,19.76,0,0,0,33.06,14c0-.25-.34-.54-.59-.73-.86-.64-.89-1,0-1.66.45-.32.9-.64,1.37-.94C34.76,10.05,34.92,10.13,35.06,11.4Zm.44,4a1.89,1.89,0,0,0,1.89.39c.57-.34.49-.92.4-1.43a7,7,0,0,0-.49-1.68,1.26,1.26,0,0,0-1.46-.73,1.53,1.53,0,0,0-1.11,1.22A2.86,2.86,0,0,0,35.5,15.38Z"/><path class="cls-1" d="M82.44,21.41a5.64,5.64,0,0,1-1.23,3.82c-1,1.18-2.1,2.33-3.16,3.49a.84.84,0,0,1-.33.27,2.29,2.29,0,0,1-.53,0,1.39,1.39,0,0,1,.16-.51c.75-.87,1.5-1.74,2.28-2.59a5.06,5.06,0,0,0,1.17-2.75,2.16,2.16,0,0,0-.91-2.05,1,1,0,0,0-1.45.12,3,3,0,0,0-1,2.14,2.15,2.15,0,0,1-.8,1.76,3.67,3.67,0,0,1-.73.32,3.51,3.51,0,0,1-.12-.78,16.18,16.18,0,0,0,.11-1.83,2.93,2.93,0,0,0-.46-1.47c-.57-.8-1.15-1-2-.26a1.6,1.6,0,0,0-.12,2.59c.33.3.34.54.08.85-.11.13-.2.27-.3.4-.58.77-1,.73-1.46-.13a2.38,2.38,0,0,1-.07-2.34,7.13,7.13,0,0,1,3.16-3.15,1.79,1.79,0,0,1,2.52,1c.36.85.36.85,1,.25l.88-.79c1.17-1.09,2.28-.28,3,.64A3.6,3.6,0,0,1,82.44,21.41Z"/><path class="cls-1" d="M49.72,21c-.77-.27-.79-.32-.3-1s.58-.73,1.45-.47,1.27.11,1.31-.93c0-.37,0-.73.07-1.09s-.11-.51-.47-.32a2.11,2.11,0,0,1-.46.21c-1.79.37-2.37.15-3.09-.94a3.37,3.37,0,0,1,.15-3.92,13.34,13.34,0,0,0,.9-1.09c.92-1.37,2.86-1.34,4-.77.49.25,1.15.49,1.36.91.27.57-.61.73-.84,1.17-.34.63-.67.32-1,0a2.47,2.47,0,0,0-2.66-.78,1.15,1.15,0,0,0-.68.5,2.51,2.51,0,0,0,.18,2.78,1.84,1.84,0,0,0,3-.07,2.67,2.67,0,0,1,.46-.49,7.22,7.22,0,0,1,.65-.42,3.57,3.57,0,0,1,.1.71c-.11,1.19-.17,2.4-.39,3.57a3.22,3.22,0,0,1-2,2.53,5.69,5.69,0,0,1-1.77.13Z"/><path class="cls-1" d="M65.6,17.82a8.59,8.59,0,0,1-1.15-.72c-.23-.22-.57-.67-.49-.83a4.7,4.7,0,0,1,1-1.11s.26,0,.37.11a10.38,10.38,0,0,0,1.24.84,2.62,2.62,0,0,0,1.12.19c.19,0,.49-.17.52-.31A.68.68,0,0,0,68,15.4a6.18,6.18,0,0,0-1.35-.64c-.59-.18-1.21-.24-1.81-.4A1.43,1.43,0,0,1,63.94,12c1.39-1.7,2.65-2.16,4.81-1.15,1.51.72,1.48.77.33,2-.33.34-.63.44-1,.11a4.08,4.08,0,0,0-.7-.47,3.12,3.12,0,0,0-.84-.37c-.42-.09-1-.18-1.15.29s.5.58.9.67a20.36,20.36,0,0,1,2.22.48A1.53,1.53,0,0,1,69.37,16a4,4,0,0,1-2.19,1.76A5.24,5.24,0,0,1,65.6,17.82Z"/><path class="cls-1" d="M56.91,11.71c-.31.39-.61.79-.95,1.16-.07.08-.26.06-.39.08,0-.14-.06-.31,0-.41a18.2,18.2,0,0,1,1.29-1.74c.78-.88,1.12-.85,1.69.14a14.94,14.94,0,0,0,2.7,3.33,15.26,15.26,0,0,0,1.4,1.12c.52.39.57.55.28,1.11a1.45,1.45,0,0,0-.12.19c-.29.9-.33.93-1.08.38s-1.38-1.14-2.08-1.68a.5.5,0,0,0-.49,0,8.75,8.75,0,0,0-1,1,2.47,2.47,0,0,1-1.92.91c-.66,0-.87-.19-.76-.85a6.81,6.81,0,0,1,1.56-3C57.74,12.64,57.77,12.57,56.91,11.71Zm0,3.27c0,.19,0,.49.07.58a.69.69,0,0,0,.63,0,9,9,0,0,0,1-.62c.37-.22.36-.44.08-.77-.77-.91-.75-.93-1.42.07C57.15,14.49,57.05,14.72,56.91,15Z"/><path class="cls-1" d="M76.47,15.15c-.59.61-1.09,1.21-1.67,1.71A1.68,1.68,0,0,1,72,16.4,7.81,7.81,0,0,1,71.68,15a.43.43,0,0,1,0-.16A1.41,1.41,0,0,0,70.59,13c-.29-.08-.42-.24-.2-.48a24,24,0,0,1,1.92-2c.48-.42.75-.28.81.36s0,1.46.07,2.19c0,.5.12,1,.15,1.5s.24,1,.72,1a1.84,1.84,0,0,0,1.28-.43,3.08,3.08,0,0,0,.83-2.39c0-.31-.06-.62-.06-.93a1.58,1.58,0,0,1,1.15-1.56c.15,0,.4.16.55.3s0,.27,0,.41a7.54,7.54,0,0,0,.73,4.41,1.61,1.61,0,0,1-.38,1.91c-.32.41-.68.35-.89-.13s-.34-1-.52-1.42A6.39,6.39,0,0,0,76.47,15.15Z"/><path class="cls-1" d="M59.37,25.34c-.69.19-1.27.4-1.87.51A2.18,2.18,0,0,1,54.75,24a1.72,1.72,0,0,1,.17-1.12c.95-1.46,2-2.9,3.74-3.46a2.46,2.46,0,0,1,2.48.17c.29.23.4.45,0,.74s-.47.49-.74.68A.59.59,0,0,1,60,21a2.29,2.29,0,0,0-2.83.23A1.92,1.92,0,0,0,56.27,23c0,.11,0,.24.06.33a2,2,0,0,0,1.81.87c.64,0,1.34,0,1.6-.78.06-.19.12-.44.26-.52a7.46,7.46,0,0,1,1-.46,4.31,4.31,0,0,1,.07.87c-.09.75-.19,1.5-.34,2.24a3.89,3.89,0,0,1-2.29,3,6.1,6.1,0,0,1-2.15.14c-.07,0-.23-.31-.19-.43a1.79,1.79,0,0,1,1.74-1.19c.19,0,.39,0,.59,0,.6,0,.85-.33.88-.89C59.36,25.93,59.36,25.68,59.37,25.34Z"/><path class="cls-1" d="M81.64,14.69l-1.18,0c-.47,0-.89-.08-1.09-.6S79,13,79.44,12.51c.73-.8,1.26-1.81,2.42-2.12a3.88,3.88,0,0,1,3.17.74.52.52,0,0,1,.06.48,14,14,0,0,1-1.44,1.13c-.08.06-.33-.08-.46-.18a5.73,5.73,0,0,0-1-.74,1.15,1.15,0,0,0-.9.13.94.94,0,0,0-.39.74c0,.2.46.41.72.42.77.05,1.56,0,2.34,0,1.28,0,1.77.89,1.17,2a4,4,0,0,1-2.89,2.34,2.86,2.86,0,0,1-2.61-.84c-.27-.27-.32-.51,0-.79s.31-.32.46-.49c.36-.41.66-.56,1.14,0a1.91,1.91,0,0,0,2.07.49c.23-.07.4-.3.6-.45-.23-.22-.43-.57-.7-.63a7.55,7.55,0,0,0-1.51-.06Z"/><path class="cls-1" d="M85.51,23.33a2.09,2.09,0,0,0,3.29.55c.24-.18.45-.42.7-.59a1.29,1.29,0,0,1,.45-.07c0,.15.07.37,0,.45a12.71,12.71,0,0,1-1.64,1.64,3.22,3.22,0,0,1-2.81.77,2.65,2.65,0,0,1-1.91-2.95A6.24,6.24,0,0,1,85.84,20,3.52,3.52,0,0,1,90,19.71c.61.43.56.54.16,1.16-.65,1-.71,1-2.19.4a1.93,1.93,0,0,0-2.42.34c.38.08.77.18,1.15.23s.63,0,.92,0a2.23,2.23,0,0,1,.61.32,4.6,4.6,0,0,1-.31.53A2.14,2.14,0,0,1,85.51,23.33Z"/><path class="cls-1" d="M94.22,26.2c-.29,0-.65,0-1,0-.81,0-1.62-.1-2.43-.17-.34,0-.45-.24-.26-.52a10.4,10.4,0,0,1,1-1.44c.09-.11.45,0,.68,0,.8.11,1.59.28,2.39.34.19,0,.41-.25.62-.4-.2-.16-.39-.46-.6-.48-.61-.05-1.24.08-1.84,0a4.85,4.85,0,0,1-1.49-.45.87.87,0,0,1-.37-1.24c.63-1.07,1.13-2.34,2.52-2.63a6.75,6.75,0,0,1,2.15-.1c.69.07.81.42.51,1.06-.47,1-.74,1.06-1.74.66a3.81,3.81,0,0,0-1.55-.1c-.13,0-.32.26-.34.41a.53.53,0,0,0,.28.43,6.46,6.46,0,0,0,1.46.22,3.89,3.89,0,0,1,2,.24.73.73,0,0,1,.45.89,3,3,0,0,1-.22.79A6.45,6.45,0,0,1,94.22,26.2Z"/><path class="cls-1" d="M41.75,13.16l3.1,0a2.44,2.44,0,0,1,.53.14,5.44,5.44,0,0,1-.15.54c-.44,1.2-1.5.88-2.39.95-.13,0-.28-.09-.41-.08a.67.67,0,0,0-.42.18c0,.05,0,.27.11.38a1.9,1.9,0,0,0,1.75.56c.85-.23,1.81-.25,2.29-1.21.05-.11.33-.11.5-.15,0,.25.09.58,0,.74a5.45,5.45,0,0,1-3.76,2.29,2.62,2.62,0,0,1-2.68-2.39,3.67,3.67,0,0,1,.91-2.52,12.13,12.13,0,0,1,1.7-2,1.65,1.65,0,0,1,1.06-.39,4.15,4.15,0,0,1,1.55.34c1.32.57,1.41,1.46.25,2.27-.13.1-.49,0-.7-.16-.39-.24-.71-.69-1.12-.8C42.74,11.65,42.38,11.9,41.75,13.16Z"/><path class="cls-1" d="M70.53,25a2,2,0,0,1-.34.47,5.51,5.51,0,0,1-1.09.77.75.75,0,0,1-.68-.17,17.19,17.19,0,0,1-1.34-1.62c-.22-.28-.39-.35-.7-.14-.48.34-1,.63-1.47,1a3.15,3.15,0,0,1-2.17.46.61.61,0,0,1-.33-.51,2.4,2.4,0,0,1,.45-1c.71-.83,1.46-1.62,2.21-2.42.23-.24.46-.49.17-.77-.09-.09-.44,0-.62.12s-.57.45-.87.66c-.09.06-.26,0-.39,0s0-.31,0-.37c.84-.75,1.66-1.51,2.55-2.19a.59.59,0,0,1,.9.33c.08.21.19.41.26.62a8.14,8.14,0,0,0,3.06,4.31,5.12,5.12,0,0,0,.52.27C70.64,24.83,70.59,24.9,70.53,25Zm-6.17-.75a11.57,11.57,0,0,0,1.42-.51c.53-.27.56-.66.1-1.25s-.55.1-.75.25a4.35,4.35,0,0,0-.83.93C64.23,23.72,64.32,23.94,64.36,24.21Z"/></g></g><text class="cls-2" transform="translate(96.03 27.62)">®</text><path class="cls-1" d="M18.8,6.62H17.25c.27-1.09.86-1.43,3-1.71l-.88-.28c1.39-1.67,6.49-1,8,1L26,6.38a7.56,7.56,0,0,1,.57,1.14c.21.65.3,1.35.56,2a22.43,22.43,0,0,0,1.38,2.83c.36.62.18,2.27-.44,2.61a1.05,1.05,0,0,1-.59,0,3.5,3.5,0,0,1-.86-.12,1.37,1.37,0,0,1-.72-.43,1.84,1.84,0,0,0-1.34-.91A9.53,9.53,0,0,1,23,12.84a3.9,3.9,0,0,0,1.22,2c.82.84,1.69,1.63,2.5,2.49a3.85,3.85,0,0,1,1.07,2.44,1,1,0,0,1-.47,1,1.09,1.09,0,0,0-.55,1.43c.19.48-.66,1-1.95,2-.54.42-1.14.07-1.82.07-1.42,0-1.26.83-2.34-.12-.87-.76-1.87-1.4-1.77-2.13a1.38,1.38,0,0,0-.3-.82,4.25,4.25,0,0,0-.72-.6,5.65,5.65,0,0,0,.71-3.3l-.61,2.07h-.14a7.74,7.74,0,0,1-.61-2.44,8,8,0,0,1,1-2.18L17,16.13c-.9-1.37-.35-2.42.8-3.36l-.21-.07-1.15.87c-.63-1.2-.55-1.61.53-2.37a6.84,6.84,0,0,1,.85-.44l-.3-.33c-.23.15-.46.31-.7.45l-.7.4C15.65,10,16,9.41,17.22,9a8.84,8.84,0,0,0,.84-.36L18,8.5l-1.7.36c0-1.45.27-1.76,1.66-1.88a6.63,6.63,0,0,0,.88-.21Zm3.93,7.57-.13.12c.73.86,1.46,1.71,2.17,2.57a3.46,3.46,0,0,1,.92,2.47,2.42,2.42,0,0,0,.19.71h.26c.05-.33.23-.71.13-1a8.21,8.21,0,0,0-1-2.22A34.82,34.82,0,0,0,22.73,14.19ZM20.67,14c-.05-.2-.11-.39-.14-.58a3.63,3.63,0,0,1,.58-3.15,3.8,3.8,0,0,0,.43-1l-.17-.06A3.58,3.58,0,0,0,20.67,14Z"/><path class="cls-1" d="M18,26.86a6.15,6.15,0,0,1,.62-.89,5.17,5.17,0,0,0,1-2.62c0-.21.42.2.65.19,1.7-.05,3.39-.05,5.09,0,.23,0,.62-.41.65-.18A5.4,5.4,0,0,0,27,26a1.92,1.92,0,0,1,.36.4.69.69,0,0,1,.09.49c-.05.11-.28.18-.44.18-.88,0-1.76,0-2.64,0H18.13C18,27.07,17.93,27,18,26.86Z"/><path class="cls-1" d="M29.53,29.35H15.84c.31-.49.47-1,.81-1.22a3,3,0,0,1,1.54-.59c3-.06,6.11-.05,9.17,0A2,2,0,0,1,29.53,29.35Z"/><path class="cls-1" d="M21.44,23c-1.34-.09-2.94-2.17-3.4-3.95-.9,3.41-1.67,3.13-2.92,3h0l2.51-4.27-1.36,1.51a3.7,3.7,0,0,1-4.36.85h0l5.35-2.91-3.68,1.34A3.41,3.41,0,0,1,9.4,17v0L17,16.16l-4.93.11a7.94,7.94,0,0,1-3-.31A2.66,2.66,0,0,1,7.31,13.8L17,15.17,9.4,13.37a4.51,4.51,0,0,1-2.46-1.15c-.82-.93-.78-2.43-1.69-3.29l11.15,4.6L8.32,9.6a16,16,0,0,1-4-2.46A5.41,5.41,0,0,1,2.41,3a132,132,0,0,0,15.28,9.66,2.05,2.05,0,0,1,1,1.93C18.56,17.13,18.81,21.59,21.44,23Z"/></svg>