<?xml version="1.0" encoding="utf-8"?>
<!-- Generator: Adobe Illustrator 25.4.1, SVG Export Plug-In . SVG Version: 6.00 Build 0)  -->
<svg version="1.1" id="Layer_1" xmlns="http://www.w3.org/2000/svg" xmlns:xlink="http://www.w3.org/1999/xlink" x="0px" y="0px"
	 viewBox="0 0 137.5 31.6" style="enable-background:new 0 0 137.5 31.6;" xml:space="preserve">
<style type="text/css">
	.st0{fill:#344620;}
	.st1{font-family:'MyriadPro-Regular';}
	.st2{font-size:3.79px;}
</style>
<g id="Layer_1-2">
	<g id="Layer_2_00000010301729521376050350000017012032321717962632_">
		<path class="st0" d="M35.6,19.4c0.3-0.2,0.6-0.3,0.8-0.5c0.8-0.7,2.1-0.7,2.8,0.2c0.2,0.2,0.3,0.4,0.4,0.7
			c0.7,1.3,0.6,2.9-0.2,4.1c-0.2,0.4-0.6,0.7-1,0.8c-0.9,0.5-2,0.6-3,0.3c-0.4-0.1-0.4,0.1-0.5,0.4c-0.1,0.8-0.2,1.6-0.3,2.4
			c-0.1,0.4-0.3,0.8-0.6,1.1c-0.2,0.1-0.5,0.2-0.7,0.1c-0.2-0.2-0.3-0.4-0.3-0.7c0.1-1.2,0.4-2.4,0.5-3.6c0.1-0.9,0.1-1.8,0.1-2.8
			c0-0.2-0.3-0.5-0.6-0.7c-0.9-0.6-0.9-1,0-1.7c0.5-0.3,0.9-0.6,1.4-0.9C35.3,18,35.5,18.1,35.6,19.4z M36.1,23.4
			c0.5,0.5,1.2,0.6,1.9,0.4c0.6-0.3,0.5-0.9,0.4-1.4c-0.1-0.6-0.3-1.1-0.5-1.7c-0.2-0.6-0.9-0.9-1.5-0.7c-0.6,0.2-1,0.6-1.1,1.2
			C35.2,22,35.5,22.8,36.1,23.4L36.1,23.4z"/>
		<path class="st0" d="M120.9,20.6c0.1,1.4-0.4,2.7-1.2,3.8c-1,1.2-2.1,2.3-3.2,3.5c-0.1,0.1-0.2,0.2-0.3,0.3c-0.2,0-0.4,0-0.5,0
			c0-0.2,0.1-0.4,0.2-0.5c0.8-0.9,1.5-1.7,2.3-2.6c0.7-0.8,1.1-1.7,1.2-2.8c0.1-0.8-0.3-1.5-0.9-2c-0.4-0.4-1-0.3-1.4,0.1
			c0,0,0,0,0,0c-0.6,0.5-1,1.3-1,2.1c0,0.7-0.3,1.3-0.8,1.8c-0.2,0.1-0.5,0.2-0.7,0.3c-0.1-0.3-0.1-0.5-0.1-0.8
			c0.1-0.6,0.1-1.2,0.1-1.8c0-0.5-0.2-1-0.4-1.5c-0.6-0.8-1.2-1-2-0.3c-0.7,0.5-0.9,1.5-0.5,2.2c0.1,0.1,0.2,0.3,0.3,0.4
			c0.2,0.2,0.3,0.5,0.2,0.7c0,0-0.1,0.1-0.1,0.1l-0.3,0.4c-0.6,0.8-1,0.7-1.5-0.1c-0.4-0.7-0.5-1.6-0.1-2.3c0.7-1.4,1.8-2.5,3.2-3.1
			c0.9-0.5,1.9-0.1,2.4,0.8c0,0.1,0.1,0.2,0.1,0.2c0.4,0.9,0.4,0.9,1,0.2c0.3-0.3,0.6-0.5,0.9-0.8c1.2-1.1,2.3-0.3,3,0.6
			C120.7,19.9,120.8,20.2,120.9,20.6z"/>
		<path class="st0" d="M50.3,29c-0.8-0.3-0.8-0.3-0.3-1s0.6-0.7,1.5-0.5s1.3,0.1,1.3-0.9c0-0.4,0-0.7,0.1-1.1s-0.1-0.5-0.5-0.3
			c-0.1,0.1-0.3,0.2-0.5,0.2c-1.8,0.4-2.4,0.2-3.1-0.9c-0.8-1.2-0.7-2.8,0.2-3.9c0.3-0.3,0.6-0.7,0.9-1.1c0.9-1.4,2.8-1.3,4-0.8
			c0.5,0.2,1.2,0.5,1.4,0.9s-0.6,0.7-0.8,1.2c-0.3,0.6-0.7,0.3-1,0c-0.6-0.8-1.7-1.1-2.7-0.8c-0.3,0.1-0.5,0.3-0.7,0.5
			c-0.5,0.9-0.4,2,0.2,2.8c0.6,0.8,1.8,1,2.6,0.4c0.2-0.1,0.3-0.3,0.4-0.4c0.1-0.2,0.3-0.3,0.5-0.5c0.2-0.2,0.4-0.3,0.7-0.4
			c0.1,0.2,0.1,0.5,0.1,0.7c-0.1,1.2-0.2,2.4-0.4,3.6c-0.2,1.1-0.9,2.1-2,2.5c-0.6,0.1-1.2,0.2-1.8,0.1L50.3,29z"/>
		<path class="st0" d="M66.2,25.8c-0.4-0.2-0.8-0.4-1.2-0.7c-0.2-0.2-0.6-0.7-0.5-0.8c0.3-0.4,0.6-0.8,1-1.1c0,0,0.3,0,0.4,0.1
			c0.4,0.3,0.8,0.6,1.2,0.8c0.4,0.1,0.7,0.2,1.1,0.2c0.2,0,0.5-0.2,0.5-0.3c0-0.2-0.1-0.4-0.2-0.6c-0.4-0.3-0.9-0.5-1.3-0.6
			c-0.6-0.2-1.2-0.2-1.8-0.4c-0.8-0.1-1.3-0.9-1.2-1.7c0-0.3,0.2-0.5,0.3-0.7c1.4-1.7,2.7-2.2,4.8-1.1c1.5,0.7,1.5,0.8,0.3,2
			c-0.3,0.3-0.6,0.4-1,0.1c-0.2-0.2-0.5-0.3-0.7-0.5c-0.3-0.2-0.5-0.3-0.8-0.4c-0.4-0.1-1-0.2-1.2,0.3s0.5,0.6,0.9,0.7
			c0.7,0.2,1.5,0.2,2.2,0.5c0.8,0.2,1.3,1,1.1,1.9c-0.1,0.2-0.1,0.4-0.3,0.6c-0.5,0.8-1.3,1.5-2.2,1.8
			C67.2,25.9,66.7,25.9,66.2,25.8z"/>
		<path class="st0" d="M57.5,19.7c-0.3,0.4-0.6,0.8-1,1.2c-0.1,0.1-0.3,0-0.4,0.1c0-0.1-0.1-0.3,0-0.4c0.4-0.6,0.8-1.2,1.3-1.7
			c0.8-0.9,1.1-0.9,1.7,0.1c0.7,1.2,1.6,2.4,2.7,3.3c0.4,0.4,0.9,0.8,1.4,1.1c0.5,0.4,0.6,0.5,0.3,1.1c0,0.1-0.1,0.1-0.1,0.2
			c-0.3,0.9-0.3,0.9-1.1,0.4s-1.4-1.1-2.1-1.7c-0.2-0.1-0.3-0.1-0.5,0c-0.4,0.3-0.7,0.6-1,1c-0.5,0.6-1.2,0.9-1.9,0.9
			c-0.7,0-0.9-0.2-0.8-0.9c0.3-1.1,0.8-2.1,1.6-3C58.3,20.6,58.3,20.6,57.5,19.7z M57.5,23c0,0.2,0,0.5,0.1,0.6
			c0.2,0.1,0.4,0.1,0.6,0c0.3-0.2,0.7-0.4,1-0.6c0.4-0.2,0.4-0.4,0.1-0.8c-0.8-0.9-0.8-0.9-1.4,0.1C57.7,22.5,57.6,22.7,57.5,23
			L57.5,23z"/>
		<path class="st0" d="M77,23.1c-0.6,0.6-1.1,1.2-1.7,1.7c-0.6,0.7-1.7,0.8-2.4,0.2c-0.2-0.2-0.3-0.4-0.4-0.6
			c-0.1-0.5-0.2-0.9-0.3-1.4c0-0.1,0-0.1,0-0.2c0.2-0.7-0.1-1.5-0.9-1.8c-0.1,0-0.1,0-0.2-0.1c-0.3-0.1-0.4-0.2-0.2-0.5
			c0.6-0.7,1.2-1.4,1.9-2c0.5-0.4,0.8-0.3,0.8,0.4s0,1.5,0.1,2.2c0,0.5,0.1,1,0.2,1.5s0.2,1,0.7,1c0.5,0,0.9-0.1,1.3-0.4
			c0.6-0.6,0.9-1.5,0.8-2.4c0-0.3-0.1-0.6-0.1-0.9c0-0.7,0.5-1.4,1.2-1.6c0.2,0,0.4,0.1,0.6,0.3s0,0.3,0,0.4c-0.2,1.5,0,3.1,0.7,4.4
			c0.3,0.6,0.2,1.4-0.4,1.9c-0.3,0.4-0.7,0.4-0.9-0.1s-0.3-1-0.5-1.4C77.2,23.6,77.1,23.4,77,23.1z"/>
		<path class="st0" d="M97.8,24.5c-0.7,0.2-1.3,0.4-1.9,0.5c-1.2,0.3-2.4-0.4-2.7-1.5c0-0.1-0.1-0.2-0.1-0.4c-0.1-0.4,0-0.8,0.2-1.1
			c1-1.5,2-2.9,3.8-3.5c0.8-0.4,1.7-0.3,2.5,0.2c0.3,0.2,0.4,0.5,0.1,0.7s-0.5,0.5-0.7,0.7c-0.1,0.1-0.3,0.1-0.5,0
			c-0.9-0.6-2.1-0.5-2.8,0.2c-0.6,0.4-0.9,1-0.8,1.7c0,0.1,0,0.2,0.1,0.3c0.4,0.6,1.1,0.9,1.8,0.9c0.6,0,1.3,0,1.6-0.8
			c0.1-0.2,0.1-0.4,0.3-0.5c0.3-0.2,0.7-0.3,1-0.5c0.1,0.3,0.1,0.6,0.1,0.9c-0.1,0.8-0.2,1.5-0.3,2.2c-0.2,1.3-1.1,2.5-2.3,3
			c-0.7,0.2-1.4,0.2-2.2,0.1c-0.1,0-0.2-0.3-0.2-0.4c0.3-0.7,1-1.2,1.7-1.2c0.2,0,0.4,0,0.6,0c0.6,0,0.9-0.3,0.9-0.9
			C97.8,25.1,97.8,24.8,97.8,24.5z"/>
		<path class="st0" d="M82.2,22.7H81c-0.5,0-0.9-0.1-1.1-0.6S79.5,21,80,20.5c0.7-0.8,1.3-1.8,2.4-2.1c1.1-0.2,2.3,0,3.2,0.7
			c0.1,0.1,0.1,0.3,0.1,0.5c-0.5,0.4-0.9,0.8-1.4,1.1c-0.1,0-0.3-0.1-0.5-0.2c-0.3-0.3-0.6-0.5-1-0.7c-0.3-0.1-0.6,0-0.9,0.1
			c-0.2,0.2-0.4,0.4-0.4,0.7c0.1,0.2,0.5,0.4,0.7,0.4c0.8,0,1.6,0,2.3,0c1.3,0,1.8,0.9,1.2,2c-0.5,1.2-1.6,2.1-2.9,2.4
			c-1,0.2-1.9-0.1-2.6-0.8c-0.3-0.3-0.3-0.5,0-0.8l0.5-0.5c0.4-0.4,0.7-0.6,1.1,0c0.5,0.6,1.3,0.8,2.1,0.5c0.2-0.1,0.4-0.3,0.6-0.5
			c-0.2-0.2-0.4-0.6-0.7-0.6C83.3,22.7,82.8,22.6,82.2,22.7L82.2,22.7z"/>
		<path class="st0" d="M123.9,22.5c0.5,1,1.8,1.4,2.8,0.9c0.2-0.1,0.3-0.2,0.5-0.3c0.2-0.2,0.4-0.4,0.7-0.6c0.1-0.1,0.3-0.1,0.4-0.1
			c0,0.1,0.1,0.4,0,0.5c-0.5,0.6-1,1.1-1.6,1.6c-0.8,0.7-1.8,1-2.8,0.8c-1.3-0.3-2.1-1.6-1.9-2.9c0.4-1.3,1.2-2.4,2.2-3.2
			c1.2-1,2.9-1.1,4.2-0.2c0.6,0.4,0.6,0.5,0.2,1.2c-0.6,1-0.7,1-2.2,0.4c-0.8-0.5-1.8-0.3-2.4,0.3c0.4,0.1,0.8,0.2,1.2,0.2
			s0.6,0,0.9,0c0.2,0.1,0.4,0.2,0.6,0.3c-0.1,0.2-0.2,0.4-0.3,0.5C125.8,22.6,124.8,22.8,123.9,22.5z"/>
		<path class="st0" d="M132.6,25.4c-0.3,0-0.6,0-1,0c-0.8,0-1.6-0.1-2.4-0.2c-0.3,0-0.4-0.2-0.3-0.5c0.3-0.5,0.6-1,1-1.4
			c0.1-0.1,0.4,0,0.7,0c0.8,0.1,1.6,0.3,2.4,0.3c0.2,0,0.4-0.2,0.6-0.4c-0.2-0.2-0.4-0.5-0.6-0.5c-0.6,0-1.2,0.1-1.8,0
			c-0.5-0.1-1-0.2-1.5-0.5c-0.4-0.2-0.6-0.7-0.4-1.2c0,0,0-0.1,0-0.1c0.6-1.1,1.1-2.3,2.5-2.6c0.7-0.1,1.4-0.2,2.1-0.1
			c0.7,0.1,0.8,0.4,0.5,1.1c-0.5,1-0.8,1.1-1.8,0.7c-0.5-0.1-1-0.2-1.6-0.1c-0.1,0-0.3,0.3-0.3,0.4c0,0.2,0.1,0.3,0.3,0.4
			c0.5,0.1,1,0.2,1.5,0.2c0.7-0.1,1.4,0,2.1,0.2c0.4,0.1,0.5,0.5,0.4,0.9c0,0.3-0.1,0.5-0.2,0.8C134.4,23.9,133.6,24.7,132.6,25.4z"
			/>
		<path class="st0" d="M42.3,21.2h3.1c0.2,0,0.4,0.1,0.5,0.1c0,0.2-0.1,0.4-0.2,0.5c-0.4,1.2-1.5,0.9-2.4,1c-0.1,0-0.3-0.1-0.4-0.1
			c-0.2,0-0.3,0.1-0.4,0.2c0,0,0,0.3,0.1,0.4c0.4,0.5,1.1,0.7,1.8,0.6c0.8-0.2,1.8-0.2,2.3-1.2c0-0.1,0.3-0.1,0.5-0.2
			c0,0.3,0.1,0.6,0,0.8c-0.9,1.3-2.2,2.1-3.8,2.3c-1.4,0-2.5-1-2.7-2.4c0-0.9,0.3-1.8,0.9-2.5c0.5-0.7,1.1-1.4,1.7-2
			c0.3-0.3,0.7-0.4,1.1-0.4c0.5,0,1.1,0.1,1.5,0.3c1.3,0.6,1.4,1.5,0.2,2.3c-0.1,0.1-0.5,0-0.7-0.2c-0.4-0.2-0.7-0.7-1.1-0.8
			C43.3,19.7,42.9,19.9,42.3,21.2z"/>
		<path class="st0" d="M109,24.1c-0.1,0.2-0.2,0.3-0.3,0.5c-0.3,0.3-0.7,0.6-1.1,0.8c-0.2,0.1-0.5,0-0.7-0.2
			c-0.5-0.5-0.9-1.1-1.3-1.6c-0.2-0.3-0.4-0.4-0.7-0.1c-0.5,0.3-1,0.6-1.5,1c-0.6,0.4-1.4,0.6-2.2,0.5c-0.2-0.1-0.3-0.3-0.3-0.5
			c0.1-0.4,0.2-0.7,0.5-1c0.7-0.8,1.5-1.6,2.2-2.4c0.2-0.2,0.5-0.5,0.2-0.8c-0.1-0.1-0.4,0-0.6,0.1s-0.6,0.5-0.9,0.7
			c-0.1,0.1-0.2,0-0.4,0s0-0.3,0-0.4c0.8-0.8,1.7-1.5,2.5-2.2c0.3-0.2,0.6-0.1,0.8,0.2c0,0.1,0.1,0.1,0.1,0.2
			c0.1,0.2,0.2,0.4,0.3,0.6c0.5,1.7,1.6,3.3,3.1,4.3c0.2,0.1,0.3,0.2,0.5,0.3L109,24.1z M102.8,23.4c0.5-0.1,1-0.3,1.4-0.5
			c0.5-0.3,0.6-0.7,0.1-1.2s-0.6,0.1-0.8,0.2c-0.3,0.3-0.6,0.6-0.8,0.9C102.7,22.9,102.8,23.1,102.8,23.4L102.8,23.4z"/>
	</g>
</g>
<text transform="matrix(1 0 0 1 134.46 26.78)" class="st0 st1 st2">®</text>
<path class="st0" d="M19.4,6.2h-1.5c0.3-1.1,0.9-1.4,3-1.7L20,4.2c1.4-1.7,6.5-1,8,1l-1.4,0.8c0.2,0.4,0.4,0.7,0.6,1.1
	c0.2,0.7,0.3,1.4,0.6,2c0.4,1,0.9,1.9,1.4,2.8c0.4,0.6,0.2,2.3-0.4,2.6c-0.2,0.1-0.4,0.1-0.6,0c-0.3,0-0.6-0.1-0.9-0.1
	c-0.3-0.1-0.5-0.2-0.7-0.4c-0.3-0.5-0.8-0.9-1.3-0.9c-0.6-0.2-1.1-0.4-1.6-0.7c0.2,0.8,0.6,1.5,1.2,2c0.8,0.8,1.7,1.6,2.5,2.5
	c0.6,0.7,1,1.5,1.1,2.4c0.1,0.4-0.1,0.8-0.5,1c-0.5,0.2-0.8,0.9-0.5,1.4c0.2,0.5-0.7,1-2,2c-0.5,0.4-1.1,0.1-1.8,0.1
	c-1.4,0-1.3,0.8-2.4-0.1c-0.9-0.8-1.9-1.4-1.8-2.1c0-0.3-0.1-0.6-0.3-0.8c-0.2-0.2-0.5-0.4-0.7-0.6c0.6-1,0.8-2.2,0.7-3.3l-0.6,2.1
	h-0.1c-0.3-0.8-0.5-1.6-0.6-2.4c0.2-0.8,0.6-1.5,1-2.2l-1.1,1.4c-0.9-1.4-0.4-2.4,0.8-3.4l-0.2-0.1l-1.1,0.9
	c-0.6-1.2-0.5-1.6,0.5-2.4c0.3-0.2,0.6-0.3,0.8-0.4l-0.3-0.3c-0.2,0.1-0.5,0.3-0.7,0.4l-0.7,0.4c-0.5-1.3-0.2-1.9,1.1-2.3
	c0.3-0.1,0.6-0.2,0.8-0.4L18.6,8l-1.7,0.4c0-1.5,0.3-1.8,1.7-1.9c0.3-0.1,0.6-0.1,0.9-0.2L19.4,6.2z M23.3,13.7l-0.1,0.1
	c0.7,0.9,1.5,1.7,2.2,2.6c0.6,0.7,1,1.6,0.9,2.5c0,0.2,0.1,0.5,0.2,0.7h0.3c0-0.3,0.2-0.7,0.1-1c-0.2-0.8-0.6-1.5-1-2.2
	C25.1,15.4,24.2,14.6,23.3,13.7z M21.3,13.5c0-0.2-0.1-0.4-0.1-0.6c-0.3-1.1-0.1-2.2,0.6-3.1c0.2-0.3,0.3-0.6,0.4-1l-0.1,0
	C20.6,9.9,20.3,12,21.3,13.5z"/>
<path class="st0" d="M18.6,26.4c0.2-0.3,0.4-0.6,0.6-0.9c0.6-0.8,0.9-1.7,1-2.6c0-0.2,0.4,0.2,0.6,0.2c1.7,0,3.4,0,5.1,0
	c0.2,0,0.6-0.4,0.6-0.2c0.1,0.9,0.4,1.9,1,2.6c0.1,0.1,0.3,0.3,0.4,0.4c0.1,0.1,0.1,0.3,0.1,0.5c0,0.1-0.3,0.2-0.4,0.2h-8.9
	C18.6,26.6,18.5,26.5,18.6,26.4z"/>
<path class="st0" d="M30.1,28.9H16.4c0.3-0.5,0.5-1,0.8-1.2c0.4-0.3,1-0.5,1.5-0.6c3,0,6.1,0,9.2,0C29.1,27,30,27.8,30.1,28.9z"/>
<path class="st0" d="M22,22.5c-1.3-0.1-2.9-2.2-3.4-3.9c-0.9,3.4-1.7,3.1-2.9,3l0,0l2.5-4.3l-1.3,1.5c-1.1,1.2-2.9,1.6-4.4,0.9l0,0
	l5.4-2.9l-3.7,1.3c-1.6,0.6-3.4-0.1-4.2-1.5l0,0l7.6-0.8l-4.9,0.1c-1,0.1-2,0-3-0.3c-1-0.3-1.7-1.1-1.8-2.2l9.7,1.4L10,12.9
	c-0.9-0.1-1.8-0.5-2.5-1.1c-0.8-0.9-0.8-2.4-1.7-3.3L17,13.1L8.9,9.1c-1.4-0.6-2.8-1.4-4-2.5C3.7,5.6,3,4.1,3,2.5
	c4.9,3.6,10,6.8,15.3,9.7c0.7,0.4,1.1,1.1,1,1.9C19.2,16.7,19.4,21.1,22,22.5z"/>
</svg>
