<svg id="Layer_1" data-name="Layer 1" xmlns="http://www.w3.org/2000/svg" viewBox="0 0 119.43 12.93"><defs><style>.cls-1{fill:#010101;}.cls-2{isolation:isolate;font-size:3.79px;font-family:MyriadPro-Regular, Myriad Pro;}.cls-2,.cls-3{fill:#231f20;}</style></defs><g id="Layer_1-2" data-name="Layer 1"><g id="Layer_2" data-name="Layer 2"><path class="cls-1" d="M18.59,2.77c.31-.19.56-.31.78-.47a2,2,0,0,1,3.23.87,4.24,4.24,0,0,1-.15,4.1,2.08,2.08,0,0,1-1,.84,4.13,4.13,0,0,1-3,.33c-.36-.15-.44.13-.48.39-.11.8-.15,1.61-.31,2.4a2.76,2.76,0,0,1-.6,1.15.8.8,0,0,1-.74.08.88.88,0,0,1-.33-.68c.14-1.22.37-2.43.5-3.65a19.77,19.77,0,0,0,.14-2.77c0-.25-.35-.54-.6-.73C15.13,4,15.1,3.6,16,3c.45-.32.9-.64,1.37-.94C18.29,1.42,18.45,1.5,18.59,2.77Zm.43,4a1.9,1.9,0,0,0,1.89.39c.58-.34.49-.92.41-1.43A7.06,7.06,0,0,0,20.82,4a1.26,1.26,0,0,0-1.45-.73,1.5,1.5,0,0,0-1.11,1.22A2.9,2.9,0,0,0,19,6.75Z"/><path class="cls-1" d="M103.85,3.93a5.73,5.73,0,0,1-1.23,3.82c-1,1.18-2.11,2.34-3.17,3.5a.91.91,0,0,1-.33.26,2.29,2.29,0,0,1-.53,0c0-.17,0-.38.16-.5.75-.88,1.5-1.75,2.28-2.6a4.93,4.93,0,0,0,1.17-2.75,2.17,2.17,0,0,0-.9-2.05,1.05,1.05,0,0,0-1.45.12,2.93,2.93,0,0,0-1,2.14A2.15,2.15,0,0,1,98,7.66a3,3,0,0,1-.73.32,4.21,4.21,0,0,1-.12-.78,16,16,0,0,0,.11-1.83,3,3,0,0,0-.46-1.47c-.57-.8-1.15-1-2-.26a1.6,1.6,0,0,0-.11,2.59c.32.31.33.54.07.85-.11.13-.2.27-.3.4-.58.77-1,.73-1.46-.13A2.38,2.38,0,0,1,92.94,5a7,7,0,0,1,3.17-3.14,1.77,1.77,0,0,1,2.51,1c.36.85.36.84,1,.24l.88-.78c1.17-1.1,2.28-.29,3,.64A3.9,3.9,0,0,1,103.85,3.93Z"/><path class="cls-1" d="M33.25,12.36c-.77-.27-.79-.32-.3-1s.58-.73,1.45-.47,1.27.11,1.31-.93c0-.36,0-.73.07-1.09s-.11-.51-.47-.32a2.11,2.11,0,0,1-.46.21c-1.8.37-2.37.15-3.09-.94a3.39,3.39,0,0,1,.14-3.92,11.68,11.68,0,0,0,.91-1.09c.91-1.37,2.85-1.34,4-.77.5.25,1.16.49,1.37.91s-.61.73-.85,1.17c-.34.63-.66.32-1,0a2.46,2.46,0,0,0-2.66-.78,1.13,1.13,0,0,0-.67.5,2.53,2.53,0,0,0,.17,2.78,1.85,1.85,0,0,0,3-.07A2.13,2.13,0,0,1,36.67,6a7.06,7.06,0,0,1,.64-.42,3,3,0,0,1,.11.71c-.11,1.19-.17,2.4-.39,3.57a3.21,3.21,0,0,1-2,2.53,5.74,5.74,0,0,1-1.77.13Z"/><path class="cls-1" d="M49.13,9.19A8,8,0,0,1,48,8.47c-.24-.22-.57-.67-.49-.83a4.91,4.91,0,0,1,1-1.11c.05,0,.26,0,.36.11a11.38,11.38,0,0,0,1.25.84,2.62,2.62,0,0,0,1.12.19c.18,0,.49-.17.52-.31a.7.7,0,0,0-.25-.59,6.18,6.18,0,0,0-1.35-.64c-.59-.18-1.22-.24-1.81-.4a1.43,1.43,0,0,1-.86-2.39c1.4-1.7,2.66-2.16,4.82-1.14,1.51.71,1.48.76.32,2-.32.34-.62.44-1,.11a4.51,4.51,0,0,0-.7-.47,3.12,3.12,0,0,0-.84-.37c-.43-.09-1-.18-1.15.29s.5.58.9.67A20.88,20.88,0,0,1,52,4.88a1.53,1.53,0,0,1,.87,2.52,3.94,3.94,0,0,1-2.18,1.76A5.24,5.24,0,0,1,49.13,9.19Z"/><path class="cls-1" d="M40.44,3.08c-.32.39-.62.79-.95,1.16-.07.08-.26.06-.4.08,0-.14-.05-.31,0-.41a20,20,0,0,1,1.28-1.74c.78-.87,1.13-.85,1.7.14a14.71,14.71,0,0,0,2.7,3.33,15.26,15.26,0,0,0,1.4,1.12c.51.39.56.55.27,1.11,0,.07-.09.13-.11.19-.29.9-.33.94-1.08.38S43.88,7.3,43.17,6.76a.5.5,0,0,0-.49,0,10.73,10.73,0,0,0-1,1,2.44,2.44,0,0,1-1.91.91c-.66,0-.87-.19-.76-.85a6.81,6.81,0,0,1,1.56-3C41.27,4,41.29,3.94,40.44,3.08Zm0,3.27c0,.19,0,.49.08.58a.69.69,0,0,0,.63,0,8.83,8.83,0,0,0,1-.62c.38-.22.36-.44.09-.77-.77-.91-.76-.93-1.42.07C40.68,5.86,40.58,6.09,40.43,6.35Z"/><path class="cls-1" d="M60,6.52c-.59.61-1.09,1.21-1.68,1.71a1.67,1.67,0,0,1-2.8-.46,7.81,7.81,0,0,1-.31-1.39.43.43,0,0,1,0-.16,1.41,1.41,0,0,0-1.11-1.85c-.28-.08-.41-.24-.19-.48a22.44,22.44,0,0,1,1.92-2c.48-.42.75-.28.8.36s0,1.46.07,2.19c0,.5.13,1,.16,1.5s.24,1,.72,1a1.84,1.84,0,0,0,1.28-.43,3,3,0,0,0,.82-2.39c0-.31,0-.62,0-.93a1.59,1.59,0,0,1,1.14-1.56c.16,0,.4.16.55.3s0,.27,0,.41a7.46,7.46,0,0,0,.73,4.41,1.6,1.6,0,0,1-.39,1.91c-.31.41-.67.36-.88-.13s-.34-1-.52-1.42C60.2,6.94,60.1,6.75,60,6.52Z"/><path class="cls-1" d="M80.77,7.86c-.69.19-1.27.4-1.87.51a2.18,2.18,0,0,1-2.75-1.88,1.69,1.69,0,0,1,.17-1.11c1-1.47,2-2.91,3.74-3.47a2.45,2.45,0,0,1,2.48.17c.29.24.41.46,0,.74s-.47.49-.74.68a.56.56,0,0,1-.5,0,2.3,2.3,0,0,0-2.83.23,1.93,1.93,0,0,0-.85,1.73,1.08,1.08,0,0,0,.06.33,2,2,0,0,0,1.82.87c.63,0,1.33,0,1.59-.78.06-.19.12-.43.26-.52a7.46,7.46,0,0,1,1-.46,4.41,4.41,0,0,1,.07.88c-.09.74-.19,1.49-.34,2.23a3.89,3.89,0,0,1-2.29,3,5.66,5.66,0,0,1-2.15.14c-.07,0-.23-.31-.19-.42a1.8,1.8,0,0,1,1.74-1.2h.59c.6,0,.86-.33.88-.89C80.76,8.45,80.76,8.2,80.77,7.86Z"/><path class="cls-1" d="M65.17,6.07,64,6a1,1,0,0,1-1.1-.6c-.21-.54-.39-1.06.08-1.56.73-.8,1.26-1.81,2.42-2.12a3.85,3.85,0,0,1,3.16.74c.1.06.14.42.06.48a12.9,12.9,0,0,1-1.43,1.13c-.08.06-.33-.08-.47-.18a5.67,5.67,0,0,0-1-.74,1.15,1.15,0,0,0-.9.13.91.91,0,0,0-.39.74c0,.2.46.41.71.42.78,0,1.56,0,2.34,0,1.29,0,1.78.89,1.18,2a4,4,0,0,1-2.89,2.34A2.86,2.86,0,0,1,63.16,8c-.28-.27-.33-.5,0-.79l.45-.49c.37-.41.67-.56,1.15,0a1.91,1.91,0,0,0,2.07.49c.23-.07.4-.3.6-.45-.23-.22-.43-.57-.7-.63A7.58,7.58,0,0,0,65.17,6Z"/><path class="cls-1" d="M106.91,5.85a2.09,2.09,0,0,0,3.29.56c.24-.19.45-.42.71-.59a1,1,0,0,1,.44-.08c0,.16.07.37,0,.46a12.71,12.71,0,0,1-1.64,1.64,3.18,3.18,0,0,1-2.8.76A2.63,2.63,0,0,1,105,5.66a6.15,6.15,0,0,1,2.25-3.18,3.53,3.53,0,0,1,4.19-.25c.61.43.56.54.16,1.16-.64,1-.71,1-2.19.4a1.94,1.94,0,0,0-2.42.35c.39.07.77.17,1.15.22s.63,0,.93,0a2.37,2.37,0,0,1,.6.33,3.4,3.4,0,0,1-.31.52A2.12,2.12,0,0,1,106.91,5.85Z"/><path class="cls-1" d="M115.62,8.72c-.29,0-.65,0-1,0-.81,0-1.62-.1-2.42-.17-.35,0-.45-.24-.27-.52a10.4,10.4,0,0,1,1-1.44c.09-.1.45,0,.68,0,.8.12,1.59.28,2.39.35.19,0,.41-.26.62-.4-.2-.17-.39-.46-.6-.48-.61-.06-1.23.07-1.84,0a4.85,4.85,0,0,1-1.49-.45.87.87,0,0,1-.37-1.24c.63-1.07,1.13-2.33,2.52-2.63A7.05,7.05,0,0,1,117,1.7c.69.07.81.43.51,1.06-.47,1-.74,1.06-1.74.66a4,4,0,0,0-1.55-.1c-.12,0-.32.26-.34.42a.53.53,0,0,0,.28.42,6,6,0,0,0,1.47.22,3.87,3.87,0,0,1,2,.25c.37.21.56.46.45.88a3.06,3.06,0,0,1-.22.8A6.43,6.43,0,0,1,115.62,8.72Z"/><path class="cls-1" d="M25.28,4.53l3.1,0a2.6,2.6,0,0,1,.53.14c-.05.18-.09.37-.15.54-.44,1.2-1.5.88-2.39,1-.14,0-.28-.09-.41-.07a.62.62,0,0,0-.42.17c-.05.06,0,.27.11.38a1.9,1.9,0,0,0,1.75.56C28.24,7,29.21,7,29.68,6c.06-.11.34-.11.51-.15,0,.25.09.58,0,.74A5.49,5.49,0,0,1,26.4,8.91a2.62,2.62,0,0,1-2.68-2.39A3.66,3.66,0,0,1,24.62,4a12.2,12.2,0,0,1,1.71-1.95,1.65,1.65,0,0,1,1.06-.39A4.06,4.06,0,0,1,28.93,2c1.32.57,1.42,1.46.26,2.27-.13.1-.5,0-.7-.16-.39-.24-.71-.69-1.13-.8C26.27,3,25.91,3.27,25.28,4.53Z"/><path class="cls-1" d="M91.93,7.48a1.83,1.83,0,0,1-.34.47,5.33,5.33,0,0,1-1.08.77.77.77,0,0,1-.69-.17,18.88,18.88,0,0,1-1.34-1.62c-.21-.27-.39-.35-.7-.13-.48.33-1,.62-1.47,1a3.08,3.08,0,0,1-2.17.46.63.63,0,0,1-.33-.51,2.35,2.35,0,0,1,.46-1c.7-.83,1.45-1.62,2.2-2.41.23-.25.46-.5.17-.78-.09-.08-.44,0-.62.12s-.57.46-.87.66c-.09.06-.26,0-.39,0s0-.31,0-.38c.84-.74,1.66-1.51,2.55-2.18a.59.59,0,0,1,.9.32c.09.21.19.41.26.62A8.15,8.15,0,0,0,91.57,7a5.12,5.12,0,0,0,.52.27C92,7.35,92,7.42,91.93,7.48Zm-6.17-.75a12.66,12.66,0,0,0,1.43-.5c.52-.27.56-.67.1-1.26s-.56.1-.75.25a4.37,4.37,0,0,0-.84.93C85.63,6.25,85.73,6.46,85.76,6.73Z"/></g></g><text class="cls-2" transform="translate(117.43 10.14)">®</text><path class="cls-3" d="M8.16,2.71H7.49c.12-.48.38-.63,1.3-.75l-.38-.12c.6-.73,2.82-.45,3.48.43l-.59.33c.09.18.19.33.25.49s.13.59.24.87a10,10,0,0,0,.6,1.23,1.07,1.07,0,0,1-.19,1.13.45.45,0,0,1-.26,0,1.57,1.57,0,0,1-.37,0,.57.57,0,0,1-.31-.19.81.81,0,0,0-.59-.39,4.76,4.76,0,0,1-.7-.3,1.71,1.71,0,0,0,.53.86c.36.36.74.71,1.08,1.08a1.67,1.67,0,0,1,.47,1.06.42.42,0,0,1-.2.44.47.47,0,0,0-.24.62c.08.21-.29.44-.85.88-.23.18-.49,0-.79,0-.62,0-.55.36-1-.05s-.82-.61-.77-.93a.56.56,0,0,0-.14-.35,1.13,1.13,0,0,0-.31-.26,2.47,2.47,0,0,0,.31-1.44l-.26.9H7.73a3.19,3.19,0,0,1-.27-1.06,3.74,3.74,0,0,1,.42-1l-.49.6c-.39-.59-.15-1,.34-1.46l-.09,0-.5.37c-.27-.52-.23-.7.24-1,.11-.07.24-.12.36-.19l-.13-.14-.3.19c-.1.07-.2.12-.3.18-.21-.55-.08-.81.47-1,.12,0,.24-.11.36-.16l0-.07-.74.16c0-.63.12-.77.72-.82a2.34,2.34,0,0,0,.38-.09ZM9.87,6l0,0c.31.38.63.74.94,1.12a1.5,1.5,0,0,1,.4,1.07.89.89,0,0,0,.08.31h.11c0-.14.1-.31.06-.43a3.27,3.27,0,0,0-.46-1A13.13,13.13,0,0,0,9.87,6ZM9,5.9a1.14,1.14,0,0,1-.06-.25,1.57,1.57,0,0,1,.25-1.37,1.72,1.72,0,0,0,.19-.41l-.08,0A1.55,1.55,0,0,0,9,5.9Z"/><path class="cls-3" d="M7.81,11.5a2.55,2.55,0,0,1,.26-.38A2.24,2.24,0,0,0,8.51,10c0-.09.18.08.28.08.74,0,1.47,0,2.21,0,.1,0,.27-.18.28-.08a2.44,2.44,0,0,0,.44,1.14.85.85,0,0,1,.16.17.29.29,0,0,1,0,.22.25.25,0,0,1-.18.08H7.88C7.81,11.59,7.79,11.55,7.81,11.5Z"/><path class="cls-3" d="M12.82,12.58H6.88a1.87,1.87,0,0,1,.35-.53,1.28,1.28,0,0,1,.67-.25c1.33,0,2.65,0,4,0A.86.86,0,0,1,12.82,12.58Z"/><path class="cls-3" d="M9.31,9.83C8.73,9.8,8,8.89,7.83,8.12,7.45,9.6,7.11,9.48,6.57,9.41h0L7.65,7.55l-.59.66a1.59,1.59,0,0,1-1.89.36h0L7.48,7.31l-1.6.58a1.47,1.47,0,0,1-1.79-.67h0L7.4,6.86l-2.15,0A3.68,3.68,0,0,1,4,6.77a1.14,1.14,0,0,1-.79-.94l4.2.6-3.3-.79A1.9,1.9,0,0,1,3,5.15c-.36-.41-.34-1.06-.74-1.43l4.84,2L3.62,4A7,7,0,0,1,1.88,2.94a2.34,2.34,0,0,1-.83-1.79A57.59,57.59,0,0,0,7.68,5.34a.89.89,0,0,1,.46.84C8.06,7.28,8.17,9.21,9.31,9.83Z"/></svg>