<?xml version="1.0" encoding="utf-8"?>
<!-- Generator: Adobe Illustrator 25.4.1, SVG Export Plug-In . SVG Version: 6.00 Build 0)  -->
<svg version="1.1" id="Layer_1" xmlns="http://www.w3.org/2000/svg" xmlns:xlink="http://www.w3.org/1999/xlink" x="0px" y="0px"
	 viewBox="0 0 99.3 31.8" style="enable-background:new 0 0 99.3 31.8;" xml:space="preserve">
<style type="text/css">
	.st0{fill:#344620;}
	.st1{font-family:'MyriadPro-Regular';}
	.st2{font-size:3.79px;}
</style>
<g id="Layer_1-2">
	<g id="Layer_2_00000165952407958142659400000003002042692281779877_">
		<path class="st0" d="M35,10.9c0.3-0.2,0.6-0.3,0.8-0.5c0.8-0.7,2.1-0.7,2.8,0.2c0.2,0.2,0.3,0.4,0.4,0.7c0.7,1.3,0.6,2.9-0.2,4.1
			c-0.2,0.4-0.6,0.7-1,0.8c-0.9,0.5-2,0.6-3,0.3c-0.4-0.1-0.4,0.1-0.5,0.4c-0.1,0.8-0.2,1.6-0.3,2.4c-0.1,0.4-0.3,0.8-0.6,1.1
			c-0.2,0.1-0.5,0.2-0.7,0.1c-0.2-0.2-0.3-0.4-0.3-0.7c0.1-1.2,0.4-2.4,0.5-3.6c0.1-0.9,0.1-1.8,0.1-2.8c0-0.2-0.3-0.5-0.6-0.7
			c-0.9-0.6-0.9-1,0-1.7c0.5-0.3,0.9-0.6,1.4-0.9C34.7,9.6,34.9,9.7,35,10.9z M35.4,14.9c0.5,0.5,1.2,0.6,1.9,0.4
			c0.6-0.3,0.5-0.9,0.4-1.4c-0.1-0.6-0.3-1.1-0.5-1.7c-0.2-0.6-0.9-0.9-1.5-0.7c-0.6,0.1-1,0.6-1.1,1.2
			C34.6,13.5,34.9,14.3,35.4,14.9L35.4,14.9z"/>
		<path class="st0" d="M82.4,20.9c0.1,1.4-0.4,2.7-1.2,3.8c-1,1.2-2.1,2.3-3.2,3.5c-0.1,0.1-0.2,0.2-0.3,0.3c-0.2,0-0.4,0-0.5,0
			c0-0.2,0.1-0.4,0.2-0.5c0.8-0.9,1.5-1.7,2.3-2.6c0.7-0.8,1.1-1.7,1.2-2.8c0.1-0.8-0.2-1.6-0.9-2c-0.4-0.4-1-0.3-1.4,0.1
			c0,0,0,0,0,0c-0.6,0.5-1,1.3-1,2.1c0,0.7-0.3,1.3-0.8,1.8c-0.2,0.1-0.5,0.2-0.7,0.3c-0.1-0.3-0.1-0.5-0.1-0.8
			c0.1-0.6,0.1-1.2,0.1-1.8c0-0.5-0.2-1-0.5-1.5c-0.6-0.8-1.2-1-2-0.3c-0.7,0.5-0.9,1.5-0.5,2.2c0.1,0.1,0.2,0.3,0.3,0.4
			c0.3,0.3,0.3,0.5,0.1,0.9c-0.1,0.1-0.2,0.3-0.3,0.4c-0.6,0.8-1,0.7-1.5-0.1c-0.4-0.7-0.5-1.6-0.1-2.3c0.7-1.4,1.8-2.5,3.2-3.1
			c0.9-0.5,2-0.1,2.4,0.8c0,0.1,0.1,0.2,0.1,0.2c0.4,0.9,0.4,0.9,1,0.2l0.9-0.8c1.2-1.1,2.3-0.3,3,0.6
			C82.2,20.3,82.3,20.6,82.4,20.9z"/>
		<path class="st0" d="M49.7,20.5c-0.8-0.3-0.8-0.3-0.3-1s0.6-0.7,1.5-0.5s1.3,0.1,1.3-0.9c0-0.4,0-0.7,0.1-1.1s-0.1-0.5-0.5-0.3
			c-0.1,0.1-0.3,0.2-0.5,0.2c-1.8,0.4-2.4,0.1-3.1-0.9c-0.8-1.2-0.7-2.8,0.2-3.9c0.3-0.3,0.6-0.7,0.9-1.1c0.9-1.4,2.9-1.3,4-0.8
			c0.5,0.2,1.2,0.5,1.4,0.9c0.3,0.6-0.6,0.7-0.8,1.2c-0.3,0.6-0.7,0.3-1,0c-0.6-0.8-1.7-1.1-2.7-0.8c-0.3,0.1-0.5,0.3-0.7,0.5
			c-0.5,0.9-0.4,2,0.2,2.8c0.6,0.8,1.8,1,2.6,0.4c0.2-0.1,0.3-0.3,0.4-0.4c0.1-0.2,0.3-0.3,0.5-0.5c0.2-0.2,0.4-0.3,0.7-0.4
			c0.1,0.2,0.1,0.5,0.1,0.7c-0.1,1.2-0.2,2.4-0.4,3.6c-0.2,1.1-0.9,2.1-2,2.5c-0.6,0.1-1.2,0.2-1.8,0.1L49.7,20.5z"/>
		<path class="st0" d="M65.6,17.4c-0.4-0.2-0.8-0.5-1.2-0.7c-0.2-0.2-0.6-0.7-0.5-0.8c0.3-0.4,0.6-0.8,1-1.1c0,0,0.3,0,0.4,0.1
			c0.4,0.3,0.8,0.6,1.2,0.8c0.4,0.1,0.7,0.2,1.1,0.2c0.2,0,0.5-0.2,0.5-0.3c0-0.2-0.1-0.4-0.2-0.6c-0.4-0.3-0.9-0.5-1.3-0.6
			c-0.6-0.2-1.2-0.2-1.8-0.4c-0.8-0.1-1.3-0.8-1.2-1.6c0-0.3,0.2-0.6,0.4-0.8c1.4-1.7,2.7-2.2,4.8-1.1c1.5,0.7,1.5,0.8,0.3,2
			c-0.3,0.3-0.6,0.4-1,0.1c-0.2-0.2-0.5-0.3-0.7-0.5c-0.3-0.2-0.5-0.3-0.8-0.4c-0.4-0.1-1-0.2-1.2,0.3s0.5,0.6,0.9,0.7
			c0.7,0.1,1.5,0.3,2.2,0.5c0.8,0.1,1.4,0.9,1.2,1.8c0,0.3-0.2,0.5-0.4,0.7c-0.5,0.8-1.3,1.5-2.2,1.8C66.6,17.4,66.1,17.4,65.6,17.4
			z"/>
		<path class="st0" d="M56.9,11.2c-0.3,0.4-0.6,0.8-1,1.2c-0.1,0.1-0.3,0.1-0.4,0.1c0-0.1-0.1-0.3,0-0.4c0.4-0.6,0.8-1.2,1.3-1.7
			c0.8-0.9,1.1-0.9,1.7,0.1c0.7,1.2,1.6,2.4,2.7,3.3c0.4,0.4,0.9,0.8,1.4,1.1c0.5,0.4,0.6,0.6,0.3,1.1c0,0.1-0.1,0.1-0.1,0.2
			c-0.3,0.9-0.3,0.9-1.1,0.4s-1.4-1.1-2.1-1.7c-0.2-0.1-0.3-0.1-0.5,0c-0.4,0.3-0.7,0.6-1,1c-0.5,0.6-1.2,0.9-1.9,0.9
			c-0.7,0-0.9-0.2-0.8-0.9c0.3-1.1,0.8-2.1,1.6-3C57.7,12.2,57.7,12.1,56.9,11.2z M56.9,14.5c0,0.2,0,0.5,0.1,0.6
			c0.2,0.1,0.4,0.1,0.6,0c0.3-0.2,0.7-0.4,1-0.6c0.4-0.2,0.4-0.4,0.1-0.8c-0.8-0.9-0.8-0.9-1.4,0.1C57.1,14,57,14.2,56.9,14.5z"/>
		<path class="st0" d="M76.4,14.7c-0.6,0.6-1.1,1.2-1.7,1.7c-0.6,0.7-1.7,0.7-2.4,0.1c-0.2-0.2-0.3-0.3-0.4-0.5
			c-0.1-0.5-0.2-0.9-0.3-1.4c0-0.1,0-0.1,0-0.2c0.3-0.7-0.1-1.5-0.9-1.8c-0.1,0-0.1,0-0.2-0.1c-0.3-0.1-0.4-0.2-0.2-0.5
			c0.6-0.7,1.2-1.4,1.9-2c0.5-0.4,0.8-0.3,0.8,0.4s0,1.5,0.1,2.2c0,0.5,0.1,1,0.2,1.5s0.2,1,0.7,1c0.5,0,0.9-0.1,1.3-0.4
			c0.6-0.6,0.9-1.5,0.8-2.4c0-0.3-0.1-0.6-0.1-0.9c0-0.7,0.5-1.4,1.2-1.6c0.2,0,0.4,0.2,0.6,0.3s0,0.3,0,0.4c-0.2,1.5,0,3,0.7,4.4
			c0.3,0.6,0.2,1.4-0.4,1.9c-0.3,0.4-0.7,0.4-0.9-0.1s-0.3-0.9-0.5-1.4C76.7,15.1,76.5,14.9,76.4,14.7z"/>
		<path class="st0" d="M59.3,24.9c-0.7,0.2-1.3,0.4-1.9,0.5c-1.2,0.3-2.4-0.4-2.7-1.5c0-0.1-0.1-0.2-0.1-0.4c-0.1-0.4,0-0.8,0.2-1.1
			c1-1.5,2-2.9,3.7-3.5c0.8-0.4,1.7-0.3,2.5,0.2c0.3,0.2,0.4,0.5,0,0.7s-0.5,0.5-0.7,0.7c-0.2,0.1-0.3,0.1-0.5,0
			C59,19.9,57.8,20,57,20.7c-0.6,0.4-0.9,1-0.8,1.7c0,0.1,0,0.2,0.1,0.3c0.4,0.6,1.1,0.9,1.8,0.9c0.6,0,1.3,0,1.6-0.8
			c0.1-0.2,0.1-0.4,0.3-0.5c0.4-0.2,0.7-0.3,1.1-0.4c0.1,0.3,0.1,0.6,0.1,0.9c-0.1,0.8-0.2,1.5-0.3,2.2c-0.2,1.3-1.1,2.5-2.3,3
			c-0.7,0.2-1.4,0.2-2.2,0.1c-0.1,0-0.2-0.3-0.2-0.4c0.3-0.7,1-1.2,1.7-1.2c0.2,0,0.4,0,0.6,0c0.6,0,0.8-0.3,0.9-0.9
			C59.3,25.5,59.3,25.2,59.3,24.9z"/>
		<path class="st0" d="M81.6,14.2h-1.2c-0.5,0-0.9-0.1-1.1-0.6s-0.4-1.1,0.1-1.6c0.7-0.8,1.2-1.8,2.4-2.1c1.1-0.2,2.3,0,3.2,0.7
			c0.1,0.1,0.1,0.3,0.1,0.5c-0.5,0.4-0.9,0.8-1.4,1.1c-0.1,0.1-0.3-0.1-0.5-0.2c-0.3-0.3-0.6-0.5-1-0.7c-0.3-0.1-0.6,0-0.9,0.1
			c-0.2,0.2-0.4,0.4-0.4,0.7c0,0.2,0.5,0.4,0.7,0.4c0.8,0,1.6,0,2.3,0c1.3,0,1.8,0.9,1.2,2c-0.5,1.2-1.6,2.1-2.9,2.3
			c-1,0.2-1.9-0.1-2.6-0.8c-0.3-0.3-0.3-0.5,0-0.8s0.3-0.3,0.5-0.5c0.4-0.4,0.7-0.6,1.1-0.1c0.5,0.6,1.3,0.8,2.1,0.5
			c0.2-0.1,0.4-0.3,0.6-0.4c-0.2-0.2-0.4-0.6-0.7-0.6C82.7,14.2,82.2,14.1,81.6,14.2L81.6,14.2z"/>
		<path class="st0" d="M85.5,22.9c0.5,1,1.8,1.4,2.8,0.9c0.2-0.1,0.3-0.2,0.5-0.3c0.2-0.2,0.4-0.4,0.7-0.6c0.1,0,0.3-0.1,0.4-0.1
			c0,0.1,0.1,0.4,0,0.5c-0.5,0.6-1,1.1-1.6,1.6c-0.8,0.7-1.8,1-2.8,0.8c-1.3-0.4-2.1-1.6-1.9-3c0.4-1.3,1.2-2.4,2.3-3.2
			c1.2-1,2.9-1.1,4.2-0.2c0.6,0.4,0.6,0.5,0.2,1.2c-0.6,1-0.7,1-2.2,0.4c-0.8-0.5-1.8-0.3-2.4,0.3c0.4,0.1,0.8,0.2,1.2,0.2
			s0.6,0,0.9,0c0.2,0.1,0.4,0.2,0.6,0.3c-0.1,0.2-0.2,0.4-0.3,0.5C87.3,22.9,86.3,23.2,85.5,22.9z"/>
		<path class="st0" d="M94.2,25.7c-0.3,0-0.7,0-1,0c-0.8,0-1.6-0.1-2.4-0.2c-0.3,0-0.5-0.2-0.3-0.5c0.3-0.5,0.6-1,1-1.4
			c0.1-0.1,0.4,0,0.7,0c0.8,0.1,1.6,0.3,2.4,0.3c0.2,0,0.4-0.2,0.6-0.4c-0.2-0.2-0.4-0.5-0.6-0.5c-0.6,0-1.2,0.1-1.8,0
			c-0.5-0.1-1-0.2-1.5-0.5c-0.4-0.2-0.6-0.7-0.4-1.2c0,0,0-0.1,0-0.1c0.6-1.1,1.1-2.3,2.5-2.6c0.7-0.1,1.4-0.2,2.2-0.1
			c0.7,0.1,0.8,0.4,0.5,1.1c-0.5,1-0.7,1.1-1.7,0.7c-0.5-0.1-1-0.2-1.6-0.1c-0.1,0-0.3,0.3-0.3,0.4c0,0.2,0.1,0.3,0.3,0.4
			c0.5,0.1,1,0.2,1.5,0.2c0.7-0.1,1.4,0,2,0.2c0.4,0.1,0.6,0.5,0.4,0.9c0,0.3-0.1,0.5-0.2,0.8C95.9,24.3,95.1,25.1,94.2,25.7z"/>
		<path class="st0" d="M41.7,12.7h3.1c0.2,0,0.4,0.1,0.5,0.1c0,0.2-0.1,0.4-0.2,0.5c-0.4,1.2-1.5,0.9-2.4,0.9
			c-0.1,0-0.3-0.1-0.4-0.1c-0.2,0-0.3,0.1-0.4,0.2c0,0.1,0,0.3,0.1,0.4c0.4,0.5,1.1,0.7,1.8,0.6c0.8-0.2,1.8-0.2,2.3-1.2
			c0-0.1,0.3-0.1,0.5-0.1c0,0.2,0.1,0.6,0,0.7c-0.9,1.3-2.2,2.1-3.8,2.3c-1.4,0-2.6-1-2.7-2.4c0-0.9,0.3-1.8,0.9-2.5
			c0.5-0.7,1.1-1.4,1.7-1.9c0.3-0.3,0.7-0.4,1.1-0.4c0.5,0,1.1,0.1,1.5,0.3c1.3,0.6,1.4,1.5,0.2,2.3c-0.1,0.1-0.5,0-0.7-0.2
			c-0.4-0.2-0.7-0.7-1.1-0.8C42.7,11.2,42.3,11.4,41.7,12.7z"/>
		<path class="st0" d="M70.5,24.5c-0.1,0.2-0.2,0.3-0.3,0.5c-0.3,0.3-0.7,0.6-1.1,0.8c-0.2,0.1-0.5,0-0.7-0.2
			c-0.5-0.5-1-1.1-1.4-1.6c-0.2-0.3-0.4-0.4-0.7-0.1c-0.5,0.3-1,0.6-1.5,1c-0.6,0.4-1.4,0.6-2.2,0.5c-0.2-0.1-0.3-0.3-0.3-0.5
			c0.1-0.4,0.2-0.7,0.5-1c0.7-0.8,1.5-1.6,2.2-2.4c0.2-0.2,0.5-0.5,0.2-0.8c-0.1-0.1-0.4,0-0.6,0.1s-0.6,0.5-0.9,0.7
			c-0.1,0.1-0.3,0-0.4,0s0-0.3,0-0.4c0.8-0.8,1.7-1.5,2.5-2.2c0.3-0.2,0.6-0.1,0.8,0.2c0,0.1,0.1,0.1,0.1,0.2
			c0.1,0.2,0.2,0.4,0.3,0.6c0.5,1.7,1.6,3.2,3.1,4.3c0.2,0.1,0.3,0.2,0.5,0.3C70.6,24.4,70.6,24.4,70.5,24.5z M64.3,23.7
			c0.5-0.1,1-0.3,1.4-0.5c0.5-0.3,0.6-0.7,0.1-1.2s-0.6,0.1-0.7,0.2c-0.3,0.3-0.6,0.6-0.8,0.9C64.2,23.2,64.3,23.5,64.3,23.7z"/>
	</g>
</g>
<text transform="matrix(1 0 0 1 95.99 27.15)" class="st0 st1 st2">®</text>
<path class="st0" d="M18.8,6.2h-1.6c0.3-1.1,0.9-1.4,3-1.7l-0.9-0.3c1.4-1.7,6.5-1,8,1L26,5.9c0.2,0.4,0.4,0.7,0.6,1.1
	c0.2,0.7,0.3,1.3,0.6,2c0.4,1,0.9,1.9,1.4,2.8c0.4,0.6,0.2,2.3-0.4,2.6c-0.2,0.1-0.4,0.1-0.6,0c-0.3,0-0.6,0-0.9-0.1
	c-0.3-0.1-0.5-0.2-0.7-0.4c-0.3-0.5-0.8-0.9-1.4-0.9c-0.6-0.2-1.1-0.4-1.6-0.7c0.2,0.8,0.6,1.5,1.2,2c0.8,0.8,1.7,1.6,2.5,2.5
	c0.6,0.7,1,1.5,1.1,2.4c0.1,0.4-0.1,0.8-0.5,1c-0.5,0.2-0.8,0.9-0.5,1.4c0.2,0.5-0.7,1-2,2c-0.5,0.4-1.1,0.1-1.8,0.1
	c-1.4,0-1.3,0.8-2.3-0.1c-0.9-0.8-1.9-1.4-1.8-2.1c0-0.3-0.1-0.6-0.3-0.8c-0.2-0.2-0.5-0.4-0.7-0.6c0.6-1,0.8-2.2,0.7-3.3l-0.6,2.1
	h-0.1c-0.3-0.8-0.5-1.6-0.6-2.4c0.2-0.8,0.6-1.5,1-2.2L17,15.7c-0.9-1.4-0.4-2.4,0.8-3.4l-0.2-0.1l-1.1,0.9
	c-0.6-1.2-0.6-1.6,0.5-2.4c0.3-0.2,0.5-0.3,0.8-0.4L17.5,10c-0.2,0.1-0.5,0.3-0.7,0.4l-0.7,0.4c-0.5-1.3-0.2-1.9,1.1-2.3
	c0.3-0.1,0.5-0.2,0.8-0.4V8l-1.7,0.4c0-1.4,0.3-1.8,1.7-1.9c0.3,0,0.6-0.1,0.9-0.2L18.8,6.2z M22.7,13.7l-0.1,0.1
	c0.7,0.9,1.5,1.7,2.2,2.6c0.6,0.7,1,1.6,0.9,2.5c0,0.2,0.1,0.5,0.2,0.7h0.3c0-0.3,0.2-0.7,0.1-1c-0.2-0.8-0.6-1.5-1-2.2
	C24.4,15.4,23.6,14.6,22.7,13.7z M20.6,13.5c0-0.2-0.1-0.4-0.1-0.6c-0.3-1.1-0.1-2.3,0.6-3.2c0.2-0.3,0.3-0.6,0.4-1l-0.2-0.1
	C19.9,9.9,19.6,12,20.6,13.5z"/>
<path class="st0" d="M17.9,26.4c0.2-0.3,0.4-0.6,0.6-0.9c0.6-0.8,0.9-1.7,1-2.6c0-0.2,0.4,0.2,0.6,0.2c1.7,0,3.4,0,5.1,0
	c0.2,0,0.6-0.4,0.6-0.2c0.1,0.9,0.4,1.8,1,2.6c0.1,0.1,0.3,0.3,0.4,0.4c0.1,0.1,0.1,0.3,0.1,0.5c0,0.1-0.3,0.2-0.4,0.2
	c-0.9,0-1.8,0-2.6,0h-6.2C17.9,26.6,17.9,26.5,17.9,26.4z"/>
<path class="st0" d="M29.5,28.9H15.8c0.3-0.5,0.5-1,0.8-1.2c0.4-0.3,1-0.5,1.5-0.6c3-0.1,6.1,0,9.2,0C28.4,27,29.4,27.8,29.5,28.9z"
	/>
<path class="st0" d="M21.4,22.5c-1.3-0.1-2.9-2.2-3.4-3.9c-0.9,3.4-1.7,3.1-2.9,3l0,0l2.5-4.3l-1.4,1.5c-1.1,1.2-2.9,1.6-4.4,0.9
	l0,0l5.4-2.9l-3.7,1.3c-1.6,0.6-3.3-0.1-4.1-1.5l0,0l7.6-0.8l-4.9,0.1c-1,0.1-2,0-3-0.3c-1-0.3-1.7-1.1-1.8-2.2l9.8,1.4l-7.6-1.8
	c-0.9-0.1-1.8-0.5-2.5-1.1c-0.8-0.9-0.8-2.4-1.7-3.3l11.2,4.6L8.3,9.1c-1.4-0.6-2.8-1.4-4-2.5c-1.2-1-1.9-2.5-1.9-4.1
	c4.9,3.6,10,6.8,15.3,9.7c0.7,0.4,1.1,1.1,1,1.9C18.5,16.7,18.8,21.1,21.4,22.5z"/>
</svg>
