<?xml version="1.0" encoding="utf-8"?>
<!-- Generator: Adobe Illustrator 15.0.0, SVG Export Plug-In . SVG Version: 6.00 Build 0)  -->
<!DOCTYPE svg PUBLIC "-//W3C//DTD SVG 1.1//EN" "http://www.w3.org/Graphics/SVG/1.1/DTD/svg11.dtd">
<svg version="1.1" id="Layer_1" xmlns="http://www.w3.org/2000/svg" xmlns:xlink="http://www.w3.org/1999/xlink" x="0px" y="0px"
	 width="612px" height="792px" viewBox="0 0 612 792" enable-background="new 0 0 612 792" xml:space="preserve">
<text transform="matrix(1 0 0 1 111.6582 495.7646)" fill="#FFFAEC" font-family="'NeueHammerUnzialeLTStd'" font-size="31">G</text>
<text transform="matrix(1 0 0 1 139.2163 495.7646)" fill="#FFFAEC" font-family="'NeueHammerUnzialeLTStd'" font-size="31">ames </text>
<text transform="matrix(1 0 0 1 247.0249 495.7646)" fill="#FFFAEC" font-family="'NeueHammerUnzialeLTStd'" font-size="31">y</text>
<text transform="matrix(1 0 0 1 266.9937 495.7646)" fill="#FFFAEC" font-family="'NeueHammerUnzialeLTStd'" font-size="31">ou ne</text>
<text transform="matrix(1 0 0 1 366.915 495.7646)" fill="#FFFAEC" font-family="'NeueHammerUnzialeLTStd'" font-size="31">v</text>
<text transform="matrix(1 0 0 1 388.1572 495.7646)" fill="#FFFAEC" font-family="'NeueHammerUnzialeLTStd'" font-size="31">er out</text>
<text transform="matrix(1 0 0 1 502.7637 495.7646)" fill="#FFFAEC" font-family="'NeueHammerUnzialeLTStd'" font-size="31">gr</text>
<text transform="matrix(1 0 0 1 544.4033 495.7646)" fill="#FFFAEC" font-family="'NeueHammerUnzialeLTStd'" font-size="31">o</text>
<text transform="matrix(1 0 0 1 565.1055 495.7646)" fill="#FFFAEC" font-family="'NeueHammerUnzialeLTStd'" font-size="31">w</text>
<g id="Layer_1-2">
	<g id="Layer_2">
		<path fill="#FFFAEC" d="M219.074,343.705c1.882-1.093,3.399-1.882,4.735-2.853c5.008-4.458,12.682-4.012,17.14,0.996
			c1.107,1.244,1.947,2.703,2.467,4.285c3.998,7.9,3.654,17.301-0.911,24.888c-1.396,2.331-3.533,4.126-6.07,5.099
			c-5.6,2.941-12.105,3.657-18.21,2.003c-2.186-0.91-2.731,0.789-2.914,2.368c-0.668,4.856-0.911,9.833-1.882,14.629
			c-0.658,2.559-1.905,4.929-3.642,6.92c-1.314,0.923-3.011,1.106-4.492,0.485c-1.255-1.004-1.99-2.521-2.003-4.128
			c0.85-7.405,2.246-14.75,3.035-22.156c0.646-5.581,0.93-11.197,0.85-16.814c0-1.518-2.125-3.278-3.642-4.371
			c-5.221-3.945-5.402-6.07,0-10.076c2.731-2.003,5.463-3.946,8.316-6.07C217.253,335.632,218.528,336.117,219.074,343.705z
			 M221.685,367.986c3.121,2.793,7.501,3.697,11.473,2.368c3.521-2.064,2.975-5.646,2.489-8.741
			c-0.576-3.495-1.596-6.901-3.035-10.137c-1.443-3.446-5.165-5.346-8.802-4.492c-3.542,0.91-6.195,3.851-6.738,7.466
			C216.617,359.412,218.294,364.334,221.685,367.986z"/>
		<path fill="#FFFAEC" d="M506.682,404.407c0.416,8.381-2.238,16.625-7.467,23.188c-6.07,7.163-12.808,14.204-19.242,21.246
			c-0.514,0.672-1.179,1.213-1.941,1.578c-1.069,0.12-2.148,0.12-3.218,0c0-1.032,0-2.307,0.972-3.035
			c4.492-5.342,9.104-10.623,13.779-15.783c4.063-4.68,6.547-10.521,7.103-16.691c0.652-4.844-1.456-9.646-5.464-12.444
			c-2.653-2.159-6.538-1.837-8.802,0.729c-3.716,3.316-5.908,8.012-6.07,12.989c0.14,4.139-1.683,8.1-4.916,10.685
			c-1.363,0.842-2.833,1.495-4.371,1.941c-0.438-1.544-0.704-3.132-0.789-4.733c0.454-3.688,0.697-7.396,0.729-11.109
			c-0.263-3.047-1.263-5.983-2.914-8.559c-3.46-4.856-6.98-6.07-12.142-1.578c-4.475,2.958-5.704,8.981-2.747,13.458
			c0.568,0.86,1.271,1.624,2.08,2.264c1.942,1.882,2.003,3.278,0.485,5.16c-0.668,0.789-1.274,1.639-1.882,2.428
			c-3.46,4.675-6.07,4.433-8.862-0.789c-2.563-4.35-2.724-9.709-0.425-14.203c4.209-8.162,10.905-14.773,19.121-18.879
			c5.271-2.797,11.812-0.792,14.608,4.479c0.271,0.512,0.501,1.044,0.688,1.592c2.124,5.16,2.124,5.1,6.07,1.457
			c1.76-1.578,3.581-3.096,5.28-4.735c7.162-6.677,13.9-1.76,18.21,3.885C505.489,400.67,506.203,402.505,506.682,404.407z"/>
		<path fill="#FFFAEC" d="M308.063,402.04c-4.733-1.639-4.794-1.942-1.819-6.07c2.974-4.128,3.521-4.431,8.802-2.853
			c5.281,1.578,7.709,0.667,7.952-5.646c0-2.185,0-4.431,0.425-6.616c0.425-2.186-0.668-3.096-2.854-1.943
			c-0.876,0.536-1.813,0.963-2.792,1.275c-10.928,2.246-14.387,0.911-18.757-5.645c-4.792-7.331-4.452-16.885,0.85-23.856
			c1.974-2.091,3.818-4.301,5.524-6.616c5.524-8.316,17.3-8.134,24.281-4.613c3.035,1.457,7.042,2.914,8.316,5.524
			c1.273,2.61-3.703,4.371-5.16,7.041c-2.063,3.825-4.006,1.943-6.07,0c-3.896-4.749-10.303-6.627-16.146-4.734
			c-1.693,0.455-3.149,1.541-4.067,3.035c-3.056,5.348-2.65,11.999,1.032,16.936c3.802,4.943,10.891,5.868,15.833,2.066
			c0.915-0.704,1.718-1.544,2.378-2.491c0.747-1.13,1.669-2.134,2.731-2.974c1.268-0.94,2.585-1.811,3.944-2.61
			c0.406,1.4,0.61,2.852,0.607,4.31c-0.402,7.278-1.172,14.531-2.308,21.731c-1.016,6.905-5.646,12.74-12.141,15.297
			c-3.519,0.818-7.144,1.085-10.744,0.789L308.063,402.04z"/>
		<path fill="#FFFAEC" d="M404.398,382.797c-2.434-1.248-4.749-2.71-6.921-4.371c-1.456-1.335-3.46-4.067-2.975-4.978
			c1.636-2.567,3.688-4.844,6.07-6.738c0,0,1.578,0,2.186,0.607c2.398,1.886,4.937,3.59,7.588,5.099
			c2.154,0.877,4.476,1.271,6.798,1.153c1.094,0,2.976-1.032,3.157-1.881c0.182-1.402-0.369-2.8-1.457-3.703
			c-2.55-1.665-5.304-2.991-8.194-3.946c-3.581-1.092-7.405-1.457-10.986-2.428c-4.732-0.771-7.942-5.232-7.172-9.964
			c0.265-1.621,0.982-3.133,2.072-4.362c8.498-10.259,16.146-13.112,29.259-6.92c9.166,4.31,8.982,4.614,1.941,12.141
			c-1.941,2.064-3.764,2.671-6.069,0.668c-1.339-1.062-2.761-2.016-4.249-2.853c-1.608-0.983-3.346-1.739-5.16-2.246
			c-2.549-0.546-6.07-1.093-6.92,1.76c-0.851,2.853,2.975,3.521,5.464,4.067c4.491,1.032,9.104,1.457,13.476,2.914
			c5.052,0.896,8.418,5.716,7.522,10.767c-0.304,1.71-1.08,3.3-2.241,4.591c-3.005,5.029-7.727,8.802-13.294,10.623
			C411.015,383.314,407.676,383.314,404.398,382.797z"/>
		<path fill="#FFFAEC" d="M351.709,345.769c-1.942,2.307-3.764,4.735-5.767,6.98c-0.426,0.486-1.578,0.364-2.43,0.486
			c0-0.789-0.303-1.882,0-2.428c2.384-3.688,4.978-7.235,7.771-10.623c4.733-5.281,6.858-5.099,10.319,0.85
			c4.445,7.521,9.968,14.351,16.39,20.274c2.72,2.391,5.577,4.621,8.559,6.677c3.097,2.307,3.399,3.278,1.64,6.677
			c-0.245,0.392-0.469,0.797-0.667,1.214c-1.762,5.402-2.004,5.645-6.558,2.246c-4.552-3.399-8.376-6.738-12.687-10.137
			c-0.923-0.519-2.051-0.519-2.976,0c-2.141,1.902-4.167,3.929-6.068,6.07c-2.824,3.508-7.092,5.541-11.596,5.524
			c-4.066,0-5.342-1.153-4.612-5.16c1.59-6.764,4.845-13.024,9.47-18.211C356.747,351.354,356.868,350.929,351.709,345.769z
			 M351.709,365.558c0,1.153,0,2.975,0.485,3.582c1.207,0.587,2.616,0.587,3.823,0c2.084-1.133,4.109-2.369,6.07-3.703
			c2.307-1.396,2.187-2.671,0.546-4.674c-4.674-5.584-4.612-5.706-8.619,0.364c-0.85,1.457-1.457,2.853-2.366,4.431H351.709z"/>
		<path fill="#FFFAEC" d="M470.442,366.59c-3.581,3.703-6.616,7.345-10.198,10.38c-3.653,4.242-10.055,4.719-14.297,1.065
			c-1.25-1.077-2.22-2.443-2.821-3.979c-0.876-2.73-1.506-5.534-1.882-8.377c-0.063-0.341-0.063-0.691,0-1.032
			c1.535-4.471-0.845-9.34-5.315-10.875c-0.463-0.159-0.938-0.278-1.422-0.355c-1.7-0.486-2.489-1.457-1.153-2.853
			c3.633-4.282,7.524-8.336,11.654-12.141c2.914-2.549,4.553-1.639,4.856,2.186c0.303,3.825,0,8.862,0.425,13.293
			c0,3.035,0.789,6.07,0.972,9.166c0.183,3.096,1.457,6.07,4.37,6.07c2.823,0.117,5.59-0.813,7.771-2.61
			c3.681-3.912,5.494-9.222,4.978-14.569c0-1.882,0-3.764,0-5.584c-0.117-4.363,2.727-8.255,6.92-9.47
			c0.971,0,2.428,0.911,3.338,1.76c0.911,0.85,0,1.639,0,2.489c-1.315,9.18,0.208,18.543,4.371,26.831
			c2.224,4.091,1.229,9.184-2.367,12.141c-1.882,2.489-4.066,2.125-5.342-0.85c-1.274-2.974-2.063-5.767-3.156-8.62
			C471.656,369.139,471.05,367.986,470.442,366.59z"/>
		<path fill="#FFFAEC" d="M366.581,428.688c-4.128,1.153-7.709,2.429-11.291,3.097c-7.044,1.948-14.334-2.184-16.282-9.227
			c-0.198-0.717-0.335-1.446-0.411-2.187c-0.424-2.292-0.082-4.659,0.973-6.738c6.069-8.923,12.141-17.664,22.764-21.063
			c4.813-2.405,10.554-2.01,14.993,1.032c1.761,1.457,2.488,2.792,0.364,4.492c-2.125,1.7-2.914,2.976-4.554,4.128
			c-0.935,0.477-2.04,0.477-2.975,0c-5.364-3.546-12.457-2.97-17.179,1.396c-3.489,2.313-5.463,6.326-5.159,10.501
			c0,0.668,0,1.518,0.363,2.004c2.448,3.604,6.643,5.62,10.986,5.281c3.886,0,8.074,0,9.713-4.735
			c0.364-1.153,0.729-2.61,1.519-3.156c1.958-1.065,3.985-1.999,6.069-2.792c0.29,1.767,0.433,3.553,0.426,5.343
			c-0.548,4.553-1.215,9.044-2.064,13.535c-1.214,8.049-6.457,14.917-13.9,18.211c-4.256,1.114-8.687,1.403-13.051,0.851
			c-0.425,0-1.396-1.882-1.214-2.55c1.59-4.444,5.842-7.377,10.563-7.284h3.582c3.701,0,5.22-2.003,5.401-5.402
			C366.581,432.088,366.581,430.509,366.581,428.688z"/>
		<path fill="#FFFAEC" d="M501.825,363.858h-7.163c-2.805,0.503-5.582-1.012-6.677-3.643c-1.274-3.278-2.367-6.07,0.484-9.469
			c4.433-4.795,7.648-10.987,14.69-12.808c6.733-1.419,13.752,0.202,19.182,4.431c0.607,0.364,0.851,2.549,0.364,2.914
			c-2.743,2.49-5.644,4.801-8.681,6.92c-0.485,0.304-2.003-0.546-2.854-1.092c-1.836-1.753-3.874-3.281-6.07-4.553
			c-1.858-0.503-3.845-0.195-5.463,0.85c-1.47,0.998-2.354,2.655-2.367,4.431c0,1.214,2.73,2.489,4.311,2.61
			c4.734,0,9.469,0,14.204,0c7.83,0,10.805,5.403,7.163,12.141c-3.158,7.33-9.717,12.641-17.543,14.204
			c-5.808,1.131-11.787-0.793-15.844-5.099c-1.699-1.639-2.004-3.035,0-4.796l2.73-2.974c2.246-2.428,4.067-3.339,6.92,0
			c3.248,3.408,8.214,4.553,12.626,2.914c1.359-0.699,2.591-1.623,3.644-2.731c-1.396-1.335-2.61-3.399-4.249-3.764
			c-3.036-0.426-6.106-0.548-9.166-0.364L501.825,363.858z"/>
		<path fill="#FFFAEC" d="M525.317,416.548c3.187,6.202,10.798,8.647,17,5.46c1.063-0.546,2.043-1.239,2.909-2.061
			c1.519-1.153,2.792-2.55,4.311-3.582c0.843-0.361,1.756-0.527,2.671-0.485c0,0.972,0.425,2.246,0,2.792
			c-3.023,3.602-6.354,6.932-9.955,9.955c-4.616,4.186-10.96,5.9-17.058,4.614c-7.845-2.13-12.836-9.813-11.595-17.848
			c2.364-7.732,7.153-14.5,13.658-19.304c7.251-6.03,17.58-6.645,25.495-1.518c3.702,2.61,3.339,3.278,0.91,7.042
			c-3.885,6.069-4.249,6.069-13.233,2.428c-4.781-2.855-10.911-1.969-14.688,2.125c2.307,0.425,4.613,1.031,6.979,1.335
			c2.367,0.304,3.765,0,5.585,0c1.337,0.429,2.591,1.086,3.703,1.942c-0.59,1.105-1.237,2.181-1.941,3.218
			C536.531,417.046,530.555,418.62,525.317,416.548z"/>
		<path fill="#FFFAEC" d="M578.128,433.666c-1.699,0-3.885,0-6.07,0c-4.917,0-9.833-0.607-14.75-1.032
			c-2.063,0-2.73-1.457-1.64-3.156c1.815-3.053,3.844-5.975,6.07-8.74c0.606-0.607,2.793,0,4.188,0
			c4.796,0.729,9.652,1.698,14.508,2.124c1.153,0,2.489-1.578,3.765-2.429c-1.214-1.031-2.367-2.792-3.702-2.914
			c-3.703-0.363-7.467,0.427-11.109,0c-3.159-0.426-6.231-1.348-9.104-2.73c-2.454-1.494-3.265-4.678-1.82-7.163
			c3.824-6.495,6.859-14.143,15.357-15.964c4.272-0.868,8.653-1.072,12.989-0.607c4.249,0.425,4.979,2.61,3.156,6.435
			c-2.853,6.069-4.492,6.435-10.562,4.006c-3.067-0.814-6.265-1.021-9.409-0.606c-0.789,0-1.942,1.578-2.064,2.55
			c0.08,1.104,0.723,2.091,1.7,2.609c2.896,0.765,5.869,1.191,8.862,1.275c4.109-0.57,8.298-0.047,12.141,1.518
			c2.246,1.274,3.399,2.792,2.731,5.342c-0.251,1.666-0.699,3.296-1.335,4.855C588.753,425.044,583.961,430.088,578.128,433.666z"/>
		<path fill="#FFFAEC" d="M259.684,354.51c6.617,0,12.748,0,18.818,0.304c1.105,0.14,2.187,0.426,3.217,0.85
			c0,1.032-0.546,2.185-0.911,3.217c-2.731,7.285-9.105,5.342-14.508,5.767c-0.85,0-1.7-0.546-2.489-0.425
			c-0.944,0.038-1.845,0.402-2.55,1.032c0,0.364,0,1.639,0.668,2.307c2.702,2.915,6.731,4.204,10.623,3.399
			c5.099-1.396,10.987-1.457,13.84-7.345c0.364-0.667,2.003-0.607,3.096-0.91c0,1.517,0.546,3.521,0,4.492
			c-5.335,7.615-13.61,12.654-22.824,13.901c-8.384,0.227-15.503-6.095-16.269-14.447c-0.184-5.625,1.768-11.112,5.463-15.357
			c3.045-4.291,6.524-8.257,10.38-11.837c1.794-1.531,4.076-2.371,6.434-2.368c3.221,0.07,6.397,0.771,9.348,2.064
			c8.013,3.46,8.62,8.862,1.579,13.84c-0.79,0.546-3.035,0-4.25-1.032c-2.367-1.457-4.31-4.188-6.859-4.856
			C265.633,345.405,263.508,346.861,259.684,354.51z"/>
		<path fill="#FFFAEC" d="M434.385,426.139c-0.552,1.042-1.247,2.002-2.063,2.854c-1.992,1.84-4.217,3.411-6.616,4.675
			c-1.481,0.349-3.039-0.035-4.188-1.032c-2.88-3.199-5.595-6.542-8.135-10.016c-1.273-1.641-2.367-2.125-4.188-0.789
			c-2.913,2.003-6.069,3.764-8.983,6.07c-3.871,2.529-8.546,3.524-13.112,2.792c-1.177-0.605-1.958-1.776-2.063-3.097
			c0.438-2.216,1.395-4.297,2.792-6.069c4.311-5.038,8.863-9.834,13.416-14.63c1.396-1.518,2.792-3.034,0.971-4.734
			c-0.546-0.485-2.671,0-3.703,0.729c-1.03,0.729-3.46,2.792-5.342,4.008c-0.546,0.362-1.518,0-2.307,0s0-1.883,0-2.308
			c5.039-4.492,10.077-9.167,15.479-13.233c1.631-1.12,3.86-0.706,4.979,0.925c0.214,0.312,0.377,0.655,0.482,1.017
			c0.486,1.274,1.153,2.489,1.579,3.765c3.093,10.553,9.632,19.764,18.574,26.161c1.014,0.618,2.068,1.166,3.156,1.641
			L434.385,426.139z M396.871,421.586c2.958-0.817,5.856-1.832,8.681-3.035c3.217-1.639,3.399-4.066,0.606-7.647
			c-2.792-3.581-3.338,0.606-4.552,1.518c-1.929,1.646-3.623,3.544-5.039,5.646C396.143,418.672,396.689,419.947,396.871,421.586z"
			/>
	</g>
</g>
<text transform="matrix(1 0 0 1 591.6602 434.2031)" fill="#FFFAEC" font-family="'ArialMT'" font-size="10">®</text>
<line fill="none" stroke="#FFFAEC" stroke-width="5" stroke-miterlimit="10" x1="103.012" y1="461.832" x2="601.316" y2="461.832"/>
<path fill="#FFFAEC" d="M120.737,320.396h-9.409c1.578-6.617,5.22-8.741,18.21-10.38l-5.281-1.7
	c8.377-10.198,39.396-6.07,48.562,6.07l-8.316,4.735c1.285,2.217,2.44,4.508,3.46,6.859c1.275,4.006,1.761,8.255,3.399,12.141
	c2.398,5.91,5.197,11.649,8.377,17.179c2.186,3.703,1.032,13.719-2.671,15.843c-1.17,0.339-2.412,0.339-3.582,0
	c-1.783-0.029-3.556-0.274-5.281-0.729c-1.654-0.342-3.16-1.191-4.31-2.428c-1.731-3.009-4.756-5.048-8.195-5.524
	c-3.452-1.157-6.802-2.599-10.016-4.31c1.202,4.695,3.781,8.923,7.405,12.14c5.039,5.039,10.32,9.895,15.176,15.115
	c3.841,4,6.161,9.219,6.556,14.751c0.355,2.413-0.769,4.804-2.853,6.069c-3.313,1.46-4.815,5.329-3.355,8.644
	c0.005,0.013,0.011,0.025,0.017,0.038c1.153,2.913-4.006,6.068-11.837,12.14c-3.278,2.489-6.92,0.426-11.048,0.426
	c-8.681,0-7.709,4.979-14.204-0.729c-5.281-4.675-11.352-8.561-10.805-12.93c-0.025-1.818-0.667-3.573-1.821-4.979
	c-1.305-1.386-2.772-2.609-4.371-3.643c3.463-6.1,4.987-13.106,4.371-20.092l-3.581,12.687h-0.911
	c-2.012-4.688-3.262-9.668-3.703-14.751c1.372-4.682,3.417-9.139,6.07-13.233l-6.92,8.255c-5.463-8.316-2.186-14.69,4.795-20.335
	l-1.275-0.425l-6.92,5.281c-3.885-7.284-3.338-9.773,3.217-14.387c1.647-1.005,3.349-1.917,5.099-2.731l-1.821-1.942l-4.188,2.731
	c-1.396,0.85-2.853,1.639-4.31,2.428c-2.853-7.648-1.032-11.352,6.677-13.719c1.7-0.546,3.338-1.457,5.038-2.185l-0.304-1.214
	l-10.319,2.246c0-8.802,1.579-10.684,10.077-11.412c1.788-0.303,3.552-0.729,5.281-1.274L120.737,320.396z M144.593,366.286
	l-0.789,0.789c4.371,5.16,8.802,10.319,13.112,15.601c3.83,4.03,5.866,9.438,5.645,14.993c0.134,1.492,0.524,2.95,1.153,4.312h1.518
	c0.364-2.005,1.457-4.249,0.85-6.07c-1.44-4.785-3.588-9.328-6.374-13.476C155.216,376.667,149.692,371.689,144.593,366.286z
	 M132.027,364.951c-0.304-1.214-0.607-2.367-0.85-3.582c-1.836-6.564-0.512-13.609,3.581-19.06c1.13-1.901,2.008-3.942,2.61-6.07
	l-1.093-0.425C127.547,342.971,125.706,355.599,132.027,364.951z"/>
<path fill="#FFFAEC" d="M115.698,443.257c1.094-1.894,2.332-3.7,3.703-5.401c3.439-4.647,5.539-10.147,6.07-15.904
	c0-1.335,2.489,1.152,3.945,1.152c10.259,0,20.578,0,30.837,0c1.457,0,3.824-2.428,3.946-1.093
	c0.591,5.763,2.684,11.268,6.07,15.965c0.867,0.674,1.607,1.495,2.185,2.429c0.537,0.894,0.71,1.958,0.486,2.975
	c-0.304,0.668-1.7,1.093-2.61,1.093c-5.342,0-10.684,0-16.086,0H116.67C115.759,444.531,115.334,443.925,115.698,443.257z"/>
<path fill="#FFFAEC" d="M185.87,458.371h-83.162c1.882-2.974,2.853-6.069,4.917-7.405c2.714-2.064,5.953-3.327,9.348-3.642
	c18.575-0.305,37.089,0,55.664,0c6.675-0.629,12.596,4.272,13.224,10.949C185.865,458.307,185.868,458.339,185.87,458.371z"/>
<path fill="#FFFAEC" d="M136.702,419.887c-8.074-0.485-17.847-13.111-20.639-23.917c-5.402,20.699-10.076,18.939-17.664,18.21l0,0
	c5.099-8.681,10.198-17.301,15.236-25.98l-8.438,8.923c-6.652,7.44-17.441,9.549-26.405,5.159l0,0
	c10.886-5.827,21.711-11.695,32.476-17.603l-22.338,8.134c-9.518,3.376-20.086-0.564-25.07-9.348l0,0l46.316-4.917l-29.926,0.668
	c-6.135,0.533-12.315-0.105-18.211-1.882c-5.89-1.945-10.185-7.038-11.108-13.172l58.76,8.316l-46.073-10.927
	c-5.645-0.749-10.912-3.254-15.054-7.163c-4.978-5.706-4.796-14.812-10.259-19.971l67.622,27.923l-48.805-23.917
	c-8.78-3.737-16.961-8.749-24.281-14.872c-7.358-6.275-11.596-15.46-11.594-25.131c29.545,21.655,60.535,41.268,92.753,58.699
	c4.154,2.369,6.531,6.956,6.07,11.716C119.219,384.193,120.797,411.267,136.702,419.887z"/>
</svg>
