<svg id="Layer_1" data-name="Layer 1" xmlns="http://www.w3.org/2000/svg" viewBox="0 0 99.29 31.78"><defs><style>.cls-1{fill:#010101;}.cls-2{isolation:isolate;font-size:3.79px;font-family:MyriadPro-Regular, Myriad Pro;}.cls-2,.cls-3{fill:#231f20;}</style></defs><g id="Layer_1-2" data-name="Layer 1"><g id="Layer_2" data-name="Layer 2"><path class="cls-1" d="M35,10.93c.31-.19.56-.31.79-.47a2,2,0,0,1,3.23.87,4.24,4.24,0,0,1-.16,4.1,2.1,2.1,0,0,1-1,.84,4.16,4.16,0,0,1-3,.33c-.36-.15-.44.13-.48.39-.1.8-.15,1.61-.31,2.4a2.8,2.8,0,0,1-.59,1.15.8.8,0,0,1-.74.08.82.82,0,0,1-.33-.68c.13-1.22.36-2.43.5-3.65A19.76,19.76,0,0,0,33,13.52c0-.25-.34-.54-.59-.73-.86-.64-.89-1,0-1.66.45-.32.9-.64,1.37-.94C34.72,9.58,34.88,9.66,35,10.93Zm.44,4a1.89,1.89,0,0,0,1.89.39c.57-.34.49-.92.4-1.43a7,7,0,0,0-.49-1.68,1.27,1.27,0,0,0-1.45-.73,1.5,1.5,0,0,0-1.11,1.22A2.82,2.82,0,0,0,35.46,14.91Z"/><path class="cls-1" d="M82.4,20.94a5.63,5.63,0,0,1-1.23,3.82c-1,1.18-2.1,2.33-3.16,3.49a.84.84,0,0,1-.33.27,2.29,2.29,0,0,1-.53,0,1.39,1.39,0,0,1,.16-.51c.75-.87,1.5-1.74,2.28-2.59a5.06,5.06,0,0,0,1.17-2.75,2.16,2.16,0,0,0-.91-2.05,1,1,0,0,0-1.45.12,3,3,0,0,0-1,2.14,2.15,2.15,0,0,1-.8,1.76,3.67,3.67,0,0,1-.73.32,4.21,4.21,0,0,1-.12-.78,16.18,16.18,0,0,0,.11-1.83,3,3,0,0,0-.46-1.47c-.57-.8-1.15-1-2-.26a1.6,1.6,0,0,0-.12,2.59c.33.3.34.54.08.85-.11.13-.2.27-.3.4-.58.77-1,.73-1.46-.13A2.38,2.38,0,0,1,71.5,22a7.13,7.13,0,0,1,3.16-3.15,1.79,1.79,0,0,1,2.52,1c.36.85.36.85,1,.25l.88-.79c1.17-1.09,2.28-.28,3,.64A3.6,3.6,0,0,1,82.4,20.94Z"/><path class="cls-1" d="M49.68,20.52c-.77-.27-.79-.32-.3-1s.58-.73,1.45-.47,1.27.11,1.31-.93c0-.37,0-.73.07-1.09s-.1-.51-.47-.32a2.11,2.11,0,0,1-.46.21c-1.79.37-2.37.15-3.09-.94a3.37,3.37,0,0,1,.15-3.92,13.34,13.34,0,0,0,.9-1.09c.92-1.37,2.86-1.34,4-.77.49.25,1.16.49,1.36.91.27.57-.6.73-.84,1.17-.34.63-.67.32-1,0a2.47,2.47,0,0,0-2.66-.78,1.15,1.15,0,0,0-.68.5,2.51,2.51,0,0,0,.18,2.78,1.84,1.84,0,0,0,3-.07,2.67,2.67,0,0,1,.46-.49,7.22,7.22,0,0,1,.65-.42,3.57,3.57,0,0,1,.1.71c-.11,1.19-.17,2.4-.39,3.57a3.19,3.19,0,0,1-2,2.53,5.69,5.69,0,0,1-1.77.13Z"/><path class="cls-1" d="M65.56,17.35a8.59,8.59,0,0,1-1.15-.72c-.23-.22-.57-.67-.49-.83a5.16,5.16,0,0,1,1-1.11s.26,0,.37.11a10.38,10.38,0,0,0,1.24.84,2.62,2.62,0,0,0,1.12.19c.19,0,.49-.17.52-.31a.68.68,0,0,0-.25-.59,6.18,6.18,0,0,0-1.35-.64c-.59-.18-1.21-.24-1.81-.4a1.43,1.43,0,0,1-.85-2.39c1.4-1.7,2.66-2.16,4.82-1.14,1.5.71,1.47.76.32,2-.33.34-.63.44-1,.11a4.08,4.08,0,0,0-.7-.47,3.12,3.12,0,0,0-.84-.37c-.42-.09-1-.18-1.15.29s.5.58.9.67a20.36,20.36,0,0,1,2.22.48,1.53,1.53,0,0,1,.88,2.52,4,4,0,0,1-2.19,1.76A5.24,5.24,0,0,1,65.56,17.35Z"/><path class="cls-1" d="M56.87,11.24c-.31.39-.61.79-.95,1.16-.07.08-.26.06-.39.08,0-.14-.06-.31,0-.41a18.2,18.2,0,0,1,1.29-1.74c.78-.87,1.12-.85,1.69.14a14.94,14.94,0,0,0,2.7,3.33,15.26,15.26,0,0,0,1.4,1.12c.52.39.57.55.28,1.11a1.45,1.45,0,0,0-.12.19c-.28.9-.33.93-1.08.38s-1.38-1.14-2.08-1.68a.5.5,0,0,0-.49,0,8.75,8.75,0,0,0-1,1,2.47,2.47,0,0,1-1.92.91c-.66,0-.87-.19-.76-.85a6.81,6.81,0,0,1,1.56-3C57.7,12.17,57.73,12.1,56.87,11.24Zm0,3.27c0,.19,0,.49.07.58a.69.69,0,0,0,.63,0,9,9,0,0,0,1-.62c.37-.22.36-.44.08-.77-.77-.91-.75-.93-1.42.07C57.11,14,57,14.25,56.87,14.51Z"/><path class="cls-1" d="M76.43,14.68c-.59.61-1.09,1.21-1.67,1.71A1.68,1.68,0,0,1,72,15.93a7.81,7.81,0,0,1-.31-1.39.43.43,0,0,1,0-.16,1.41,1.41,0,0,0-1.1-1.85c-.29-.08-.42-.24-.2-.48a24,24,0,0,1,1.92-2c.48-.42.75-.28.81.36s0,1.46.07,2.19c0,.5.12,1,.16,1.5s.23,1,.71,1a1.81,1.81,0,0,0,1.28-.43,3.08,3.08,0,0,0,.83-2.39c0-.31-.06-.62-.06-.93a1.58,1.58,0,0,1,1.15-1.56c.15,0,.4.16.55.3s0,.27,0,.41a7.54,7.54,0,0,0,.73,4.41,1.61,1.61,0,0,1-.38,1.91c-.32.41-.68.36-.89-.13s-.34-.95-.52-1.42A6.39,6.39,0,0,0,76.43,14.68Z"/><path class="cls-1" d="M59.33,24.87c-.69.19-1.27.4-1.87.51a2.18,2.18,0,0,1-2.75-1.88,1.68,1.68,0,0,1,.17-1.11c.95-1.47,2-2.91,3.74-3.47a2.46,2.46,0,0,1,2.48.17c.29.23.4.45,0,.74s-.47.49-.74.68a.59.59,0,0,1-.5,0,2.3,2.3,0,0,0-2.83.23,1.92,1.92,0,0,0-.85,1.73,1.14,1.14,0,0,0,.06.33,2.06,2.06,0,0,0,1.81.87c.64,0,1.34,0,1.6-.78.06-.19.12-.44.26-.52A7.46,7.46,0,0,1,61,22a4.31,4.31,0,0,1,.07.87c-.09.75-.19,1.5-.34,2.24a3.89,3.89,0,0,1-2.29,3,6.1,6.1,0,0,1-2.15.14c-.07,0-.23-.31-.19-.43a1.79,1.79,0,0,1,1.74-1.19c.19,0,.39,0,.59,0,.6,0,.85-.33.88-.89C59.32,25.46,59.32,25.21,59.33,24.87Z"/><path class="cls-1" d="M81.6,14.23l-1.18,0c-.47,0-.89-.08-1.09-.6s-.39-1.06.08-1.56c.72-.8,1.25-1.81,2.41-2.12a3.87,3.87,0,0,1,3.17.74.52.52,0,0,1,.06.48,14,14,0,0,1-1.44,1.13c-.08.06-.33-.08-.46-.18a5.73,5.73,0,0,0-1-.74,1.15,1.15,0,0,0-.9.13.94.94,0,0,0-.39.74c0,.2.46.41.72.42.77,0,1.56,0,2.34,0,1.28,0,1.77.89,1.17,2A4,4,0,0,1,82.2,17a2.86,2.86,0,0,1-2.61-.84c-.27-.27-.32-.5,0-.79s.31-.32.46-.49c.36-.41.66-.56,1.14-.05a1.91,1.91,0,0,0,2.07.49c.23-.07.4-.3.6-.45-.23-.22-.43-.57-.7-.63a7.55,7.55,0,0,0-1.51-.06Z"/><path class="cls-1" d="M85.47,22.86a2.09,2.09,0,0,0,3.29.55c.24-.18.45-.42.7-.59a1.29,1.29,0,0,1,.45-.07c0,.15.07.37,0,.45a12.71,12.71,0,0,1-1.64,1.64,3.22,3.22,0,0,1-2.81.77,2.65,2.65,0,0,1-1.91-2.95,6.24,6.24,0,0,1,2.26-3.17A3.52,3.52,0,0,1,90,19.24c.61.43.56.54.16,1.16-.64,1-.71,1-2.19.4a1.93,1.93,0,0,0-2.42.34c.39.08.77.18,1.15.23s.63,0,.92,0a2.23,2.23,0,0,1,.61.32,4.6,4.6,0,0,1-.31.53A2.13,2.13,0,0,1,85.47,22.86Z"/><path class="cls-1" d="M94.18,25.73c-.29,0-.65,0-1,0-.81,0-1.62-.1-2.42-.17-.35,0-.46-.24-.27-.52a10.4,10.4,0,0,1,1-1.44c.09-.11.45,0,.68,0,.8.11,1.59.28,2.39.34.19,0,.41-.25.62-.39-.2-.17-.39-.47-.6-.49-.61-.05-1.24.08-1.84,0a4.85,4.85,0,0,1-1.49-.45.87.87,0,0,1-.37-1.24c.63-1.07,1.13-2.33,2.52-2.63a6.75,6.75,0,0,1,2.15-.1c.69.07.81.42.51,1.06-.47,1-.74,1.06-1.74.66a3.81,3.81,0,0,0-1.55-.1c-.12,0-.32.26-.34.41a.53.53,0,0,0,.28.43,6.46,6.46,0,0,0,1.46.22,3.89,3.89,0,0,1,2,.24.73.73,0,0,1,.45.89,3,3,0,0,1-.22.79A6.45,6.45,0,0,1,94.18,25.73Z"/><path class="cls-1" d="M41.72,12.69l3.09,0a2.44,2.44,0,0,1,.53.14,4.77,4.77,0,0,1-.15.54c-.44,1.2-1.5.88-2.39.95-.13,0-.28-.09-.41-.08a.67.67,0,0,0-.42.18c0,.06,0,.27.11.38a1.9,1.9,0,0,0,1.75.56c.85-.23,1.81-.25,2.29-1.21.05-.11.33-.11.5-.15,0,.25.1.58,0,.74a5.45,5.45,0,0,1-3.76,2.29,2.62,2.62,0,0,1-2.68-2.39,3.67,3.67,0,0,1,.91-2.52,12.13,12.13,0,0,1,1.7-1.95,1.66,1.66,0,0,1,1.07-.39,4.15,4.15,0,0,1,1.54.34c1.32.57,1.41,1.46.25,2.27-.13.1-.49,0-.69-.16-.4-.24-.72-.69-1.13-.8C42.7,11.18,42.34,11.43,41.72,12.69Z"/><path class="cls-1" d="M70.49,24.49a2,2,0,0,1-.34.47,5.51,5.51,0,0,1-1.09.77.75.75,0,0,1-.68-.17A18.88,18.88,0,0,1,67,23.94c-.21-.28-.39-.35-.7-.14-.48.34-1,.63-1.47,1a3.15,3.15,0,0,1-2.17.46.61.61,0,0,1-.33-.51,2.4,2.4,0,0,1,.45-1c.71-.83,1.46-1.62,2.21-2.42.23-.24.46-.49.17-.77-.09-.09-.44,0-.62.12s-.57.45-.87.66c-.09.06-.26,0-.39,0s0-.31,0-.37c.84-.75,1.66-1.51,2.55-2.19a.59.59,0,0,1,.9.33c.08.21.19.41.26.62A8.14,8.14,0,0,0,70.13,24a5.12,5.12,0,0,0,.52.27C70.6,24.36,70.55,24.43,70.49,24.49Zm-6.17-.75a12.46,12.46,0,0,0,1.43-.51c.52-.27.55-.66.09-1.25s-.55.1-.74.25a4.14,4.14,0,0,0-.84.93C64.19,23.25,64.28,23.47,64.32,23.74Z"/></g></g><text class="cls-2" transform="translate(95.99 27.15)">®</text><path class="cls-3" d="M18.76,6.15H17.21c.27-1.09.86-1.43,3-1.71l-.88-.28c1.39-1.67,6.49-1,8,1L26,5.91a7.56,7.56,0,0,1,.57,1.14c.22.65.3,1.35.56,2a23.88,23.88,0,0,0,1.38,2.83c.36.62.18,2.27-.44,2.61a1.05,1.05,0,0,1-.59,0,3.5,3.5,0,0,1-.86-.12,1.41,1.41,0,0,1-.72-.43A1.84,1.84,0,0,0,24.54,13a9.53,9.53,0,0,1-1.62-.67,3.9,3.9,0,0,0,1.22,2c.82.84,1.69,1.63,2.5,2.49a3.85,3.85,0,0,1,1.07,2.44,1,1,0,0,1-.47,1,1.08,1.08,0,0,0-.55,1.42c.19.48-.66,1-2,2-.54.42-1.14.07-1.82.07-1.42,0-1.26.83-2.34-.12-.87-.76-1.87-1.4-1.77-2.13a1.38,1.38,0,0,0-.3-.82,4.25,4.25,0,0,0-.72-.6,5.65,5.65,0,0,0,.71-3.3l-.61,2.07h-.14a7.74,7.74,0,0,1-.61-2.44,8,8,0,0,1,1-2.18L17,15.66c-.91-1.37-.36-2.42.79-3.36l-.21-.07-1.15.87c-.63-1.2-.55-1.61.54-2.37a6.08,6.08,0,0,1,.84-.44l-.3-.33c-.23.15-.46.31-.7.45l-.7.4c-.48-1.26-.18-1.87,1.09-2.26A8.84,8.84,0,0,0,18,8.19L18,8l-1.7.36c0-1.45.27-1.76,1.66-1.88a6.63,6.63,0,0,0,.88-.21Zm3.93,7.57-.12.12c.72.86,1.45,1.71,2.16,2.57a3.41,3.41,0,0,1,.92,2.47,2.42,2.42,0,0,0,.19.71h.26c0-.33.23-.71.13-1a7.92,7.92,0,0,0-1-2.22A34.82,34.82,0,0,0,22.69,13.72Zm-2.06-.23c-.05-.2-.11-.39-.14-.58a3.6,3.6,0,0,1,.59-3.15,4.17,4.17,0,0,0,.42-1l-.17-.06A3.58,3.58,0,0,0,20.63,13.49Z"/><path class="cls-3" d="M17.93,26.39a7.05,7.05,0,0,1,.62-.89,5.13,5.13,0,0,0,1-2.61c0-.22.42.19.65.18,1.7-.05,3.39-.05,5.09,0,.23,0,.62-.41.65-.18a5.4,5.4,0,0,0,1,2.62,1.92,1.92,0,0,1,.36.4.69.69,0,0,1,.09.49c0,.11-.28.18-.44.19-.88,0-1.76,0-2.64,0H18.09C17.94,26.6,17.89,26.5,17.93,26.39Z"/><path class="cls-3" d="M29.49,28.88H15.8c.31-.49.47-1,.81-1.22a3,3,0,0,1,1.54-.59c3.05-.06,6.11-.05,9.17,0A2,2,0,0,1,29.49,28.88Z"/><path class="cls-3" d="M21.4,22.55c-1.34-.09-2.94-2.17-3.4-3.94-.9,3.4-1.67,3.12-2.92,3h0l2.51-4.27L16.21,18.8a3.7,3.7,0,0,1-4.36.85h0l5.35-2.91L13.5,18.07a3.41,3.41,0,0,1-4.14-1.54v0L17,15.69l-4.93.11a7.94,7.94,0,0,1-3-.31,2.66,2.66,0,0,1-1.83-2.16L17,14.7,9.36,12.9A4.51,4.51,0,0,1,6.9,11.75c-.82-.93-.78-2.43-1.69-3.29l11.15,4.6L8.28,9.13a16,16,0,0,1-4-2.46A5.48,5.48,0,0,1,2.37,2.54,132,132,0,0,0,17.65,12.2a2,2,0,0,1,1.05,1.93C18.52,16.67,18.77,21.12,21.4,22.55Z"/></svg>