<?xml version="1.0" encoding="utf-8"?>
<!-- Generator: Adobe Illustrator 25.4.1, SVG Export Plug-In . SVG Version: 6.00 Build 0)  -->
<svg version="1.1" id="Layer_1" xmlns="http://www.w3.org/2000/svg" xmlns:xlink="http://www.w3.org/1999/xlink" x="0px" y="0px"
	 viewBox="0 0 100.8 39.2" style="enable-background:new 0 0 100.8 39.2;" xml:space="preserve">
<style type="text/css">
	.st0{fill:#344620;}
	.st1{font-family:'NeueHammerUnzialeLTStd';}
	.st2{font-size:5.02px;}
	.st3{font-family:'MyriadPro-Regular';}
	.st4{font-size:3.79px;}
	.st5{fill:none;stroke:#344620;stroke-width:0.75;stroke-miterlimit:10;}
</style>
<text transform="matrix(1 0 0 1 18.08 35.6801)" class="st0 st1 st2">G</text>
<text transform="matrix(1 0 0 1 22.62 35.6801)" class="st0 st1 st2">ames </text>
<text transform="matrix(1 0 0 1 40.38 35.6801)" class="st0 st1 st2">y</text>
<text transform="matrix(1 0 0 1 43.67 35.6801)" class="st0 st1 st2">ou ne</text>
<text transform="matrix(1 0 0 1 60.13 35.6801)" class="st0 st1 st2">v</text>
<text transform="matrix(1 0 0 1 63.63 35.6801)" class="st0 st1 st2">er out</text>
<text transform="matrix(1 0 0 1 82.51 35.6801)" class="st0 st1 st2">gr</text>
<text transform="matrix(1 0 0 1 89.37 35.6801)" class="st0 st1 st2">o</text>
<text transform="matrix(1 0 0 1 92.78 35.6801)" class="st0 st1 st2">w</text>
<g id="Layer_1-2">
	<g id="Layer_2_00000159471775221422940240000018038835816325388944_">
		<path class="st0" d="M35.9,10.6c0.3-0.2,0.6-0.3,0.8-0.5c0.8-0.7,2.1-0.7,2.8,0.1c0.2,0.2,0.3,0.5,0.4,0.7
			c0.6,1.3,0.6,2.9-0.2,4.1c-0.2,0.4-0.6,0.7-1,0.8c-0.9,0.5-2,0.6-3,0.3c-0.4-0.1-0.4,0.1-0.5,0.4c-0.1,0.8-0.2,1.6-0.3,2.4
			c-0.1,0.4-0.3,0.8-0.6,1.1c-0.2,0.2-0.5,0.2-0.7,0.1c-0.2-0.2-0.3-0.4-0.3-0.7c0.1-1.2,0.4-2.4,0.5-3.6c0.1-0.9,0.2-1.8,0.1-2.8
			c0-0.2-0.3-0.5-0.6-0.7c-0.9-0.6-0.9-1,0-1.7c0.5-0.3,0.9-0.6,1.4-0.9C35.6,9.3,35.8,9.4,35.9,10.6z M36.4,14.6
			c0.5,0.5,1.2,0.6,1.9,0.4c0.6-0.3,0.5-0.9,0.4-1.4c-0.1-0.6-0.3-1.1-0.5-1.7c-0.2-0.6-0.9-0.9-1.5-0.7c-0.6,0.1-1,0.6-1.1,1.2
			C35.5,13.2,35.8,14,36.4,14.6L36.4,14.6z"/>
		<path class="st0" d="M83.3,20.7c0.1,1.4-0.4,2.7-1.2,3.8c-1,1.2-2.1,2.3-3.2,3.5c-0.1,0.1-0.2,0.2-0.3,0.3c-0.2,0-0.4,0-0.5,0
			c0-0.2,0-0.4,0.2-0.5c0.7-0.9,1.5-1.8,2.3-2.6c0.7-0.8,1.1-1.7,1.2-2.8c0.1-0.8-0.3-1.6-0.9-2c-0.4-0.4-1-0.3-1.4,0.1c0,0,0,0,0,0
			c-0.6,0.5-1,1.3-1,2.1c0,0.7-0.3,1.3-0.8,1.8c-0.2,0.1-0.5,0.2-0.7,0.3c-0.1-0.3-0.1-0.5-0.1-0.8c0.1-0.6,0.1-1.2,0.1-1.8
			c0-0.5-0.2-1-0.5-1.5c-0.6-0.8-1.2-1-2-0.3c-0.8,0.5-1,1.4-0.5,2.2c0.1,0.2,0.2,0.3,0.4,0.4c0.3,0.3,0.3,0.5,0.1,0.9
			c-0.1,0.1-0.2,0.3-0.3,0.4c-0.6,0.8-1,0.7-1.5-0.1c-0.4-0.7-0.4-1.6-0.1-2.3c0.7-1.4,1.8-2.5,3.2-3.1c0.9-0.5,1.9-0.1,2.4,0.7
			c0,0.1,0.1,0.2,0.1,0.3c0.4,0.9,0.4,0.9,1,0.2c0.3-0.3,0.6-0.5,0.9-0.8c1.2-1.1,2.3-0.3,3,0.6C83.1,20,83.2,20.3,83.3,20.7z"/>
		<path class="st0" d="M50.6,20.2c-0.8-0.3-0.8-0.3-0.3-1s0.6-0.7,1.5-0.5s1.3,0.1,1.3-0.9c0-0.4,0-0.7,0.1-1.1s-0.1-0.5-0.5-0.3
			c-0.1,0.1-0.3,0.2-0.5,0.2c-1.8,0.4-2.4,0.1-3.1-0.9c-0.8-1.2-0.7-2.8,0.2-3.9c0.3-0.3,0.6-0.7,0.9-1.1c0.9-1.4,2.8-1.3,4-0.8
			c0.5,0.2,1.2,0.5,1.4,0.9s-0.6,0.7-0.8,1.2c-0.3,0.6-0.7,0.3-1,0C53,11.2,52,10.9,51,11.2c-0.3,0.1-0.5,0.3-0.7,0.5
			c-0.5,0.9-0.4,2,0.2,2.8c0.6,0.8,1.8,1,2.6,0.3c0.2-0.1,0.3-0.3,0.4-0.4c0.1-0.2,0.3-0.4,0.5-0.5c0.2-0.2,0.4-0.3,0.6-0.4
			c0.1,0.2,0.1,0.5,0.1,0.7c-0.1,1.2-0.2,2.4-0.4,3.6c-0.2,1.1-0.9,2.1-2,2.5c-0.6,0.1-1.2,0.2-1.8,0.1L50.6,20.2z"/>
		<path class="st0" d="M66.5,17.1c-0.4-0.2-0.8-0.4-1.2-0.7c-0.2-0.2-0.6-0.7-0.5-0.8c0.3-0.4,0.6-0.8,1-1.1c0.1-0.1,0.3,0,0.4,0.1
			c0.4,0.3,0.8,0.6,1.2,0.8c0.4,0.1,0.7,0.2,1.1,0.2c0.2,0,0.5-0.2,0.5-0.3c0-0.2-0.1-0.4-0.2-0.6c-0.4-0.3-0.9-0.5-1.4-0.7
			c-0.6-0.2-1.2-0.2-1.8-0.4c-0.8-0.1-1.3-0.8-1.2-1.6c0-0.3,0.2-0.6,0.4-0.8c1.4-1.7,2.7-2.2,4.8-1.1c1.5,0.7,1.5,0.8,0.3,2
			c-0.3,0.3-0.6,0.4-1,0.1c-0.2-0.2-0.5-0.3-0.7-0.5c-0.3-0.2-0.5-0.3-0.8-0.4c-0.4-0.1-1-0.2-1.2,0.3s0.5,0.6,0.9,0.7
			c0.7,0.2,1.5,0.2,2.2,0.5c0.8,0.2,1.4,1,1.2,1.8c-0.1,0.3-0.2,0.5-0.4,0.7c-0.5,0.8-1.3,1.4-2.2,1.7C67.5,17.1,67,17.1,66.5,17.1z
			"/>
		<path class="st0" d="M57.8,11c-0.3,0.4-0.6,0.8-1,1.1c-0.1,0.1-0.3,0.1-0.4,0.1c0-0.1,0-0.3,0-0.4c0.4-0.6,0.8-1.2,1.3-1.8
			c0.8-0.9,1.1-0.8,1.7,0.1c0.7,1.2,1.6,2.4,2.7,3.3c0.4,0.4,0.9,0.8,1.4,1.1c0.5,0.4,0.6,0.5,0.3,1.1c0,0.1-0.1,0.1-0.1,0.2
			c-0.3,0.9-0.3,0.9-1.1,0.4s-1.4-1.1-2.1-1.7c-0.2-0.1-0.3-0.1-0.5,0c-0.4,0.3-0.7,0.6-1,1c-0.5,0.6-1.2,0.9-1.9,0.9
			c-0.7,0-0.9-0.2-0.8-0.9c0.3-1.1,0.8-2.1,1.6-3C58.6,11.9,58.6,11.8,57.8,11z M57.8,14.3c0,0.2,0,0.5,0.1,0.6
			c0.2,0.1,0.4,0.1,0.6,0c0.4-0.2,0.7-0.4,1-0.6s0.3-0.4,0.1-0.8c-0.8-0.9-0.8-0.9-1.4,0.1C58,13.7,57.9,14,57.8,14.3L57.8,14.3z"/>
		<path class="st0" d="M77.3,14.4c-0.6,0.6-1.1,1.2-1.7,1.7c-0.6,0.7-1.7,0.8-2.4,0.2c-0.2-0.2-0.3-0.4-0.4-0.6
			c-0.1-0.5-0.2-0.9-0.3-1.4c0-0.1,0-0.1,0-0.2c0.2-0.7-0.2-1.5-0.9-1.8c-0.1,0-0.1,0-0.2-0.1c-0.3-0.1-0.4-0.2-0.2-0.5
			c0.6-0.7,1.2-1.4,1.9-2c0.5-0.4,0.8-0.3,0.8,0.4s0,1.5,0.1,2.2c0,0.5,0.1,1,0.2,1.5s0.2,1,0.7,1c0.5,0,0.9-0.1,1.3-0.4
			c0.6-0.7,0.9-1.5,0.8-2.4c0-0.3,0-0.6,0-0.9c0-0.7,0.5-1.4,1.2-1.6c0.2,0,0.4,0.1,0.5,0.3s0,0.3,0,0.4c-0.2,1.5,0,3.1,0.7,4.4
			c0.3,0.7,0.1,1.5-0.4,1.9c-0.3,0.4-0.7,0.4-0.9-0.1s-0.3-1-0.5-1.4C77.5,14.8,77.4,14.6,77.3,14.4z"/>
		<path class="st0" d="M60.2,24.6c-0.7,0.2-1.3,0.4-1.9,0.5c-1.2,0.3-2.4-0.4-2.7-1.5c0-0.1-0.1-0.2-0.1-0.4c-0.1-0.4,0-0.8,0.2-1.1
			c1-1.5,2-2.9,3.7-3.5c0.8-0.4,1.7-0.3,2.5,0.2c0.3,0.2,0.4,0.5,0,0.8s-0.5,0.5-0.8,0.7c-0.2,0.1-0.3,0.1-0.5,0
			c-0.9-0.6-2.1-0.5-2.8,0.2c-0.6,0.4-0.9,1-0.8,1.7c0,0.1,0,0.2,0.1,0.3c0.4,0.6,1.1,0.9,1.8,0.9c0.6,0,1.3,0,1.6-0.8
			c0.1-0.2,0.1-0.4,0.3-0.5c0.3-0.2,0.7-0.3,1-0.5c0,0.3,0.1,0.6,0.1,0.9c-0.1,0.8-0.2,1.5-0.3,2.2c-0.2,1.3-1.1,2.5-2.3,3
			c-0.7,0.2-1.4,0.2-2.2,0.1c-0.1,0-0.2-0.3-0.2-0.4c0.3-0.7,1-1.2,1.7-1.2h0.6c0.6,0,0.9-0.3,0.9-0.9
			C60.2,25.2,60.2,24.9,60.2,24.6z"/>
		<path class="st0" d="M82.5,14h-1.2c-0.5,0.1-0.9-0.2-1.1-0.6c-0.2-0.5-0.4-1.1,0.1-1.6C81,11,81.6,10,82.7,9.6
			c1.1-0.2,2.3,0,3.2,0.7c0.1,0.1,0.1,0.3,0.1,0.5c-0.5,0.4-0.9,0.8-1.4,1.1c-0.1,0.1-0.3-0.1-0.5-0.2c-0.3-0.3-0.6-0.5-1-0.8
			c-0.3-0.1-0.6,0-0.9,0.1c-0.2,0.2-0.4,0.4-0.4,0.7c0,0.2,0.5,0.4,0.7,0.4c0.8,0.1,1.6,0,2.3,0c1.3,0,1.8,0.9,1.2,2
			c-0.5,1.2-1.6,2.1-2.9,2.3c-1,0.2-1.9-0.1-2.6-0.8c-0.3-0.3-0.3-0.5,0-0.8l0.4-0.5c0.4-0.4,0.7-0.6,1.2,0c0.5,0.5,1.3,0.7,2.1,0.5
			c0.2-0.1,0.4-0.3,0.6-0.5c-0.2-0.2-0.4-0.6-0.7-0.6C83.6,13.9,83.1,13.9,82.5,14L82.5,14z"/>
		<path class="st0" d="M86.4,22.6c0.5,1,1.8,1.4,2.8,0.9c0.2-0.1,0.3-0.2,0.5-0.3c0.2-0.2,0.5-0.4,0.7-0.6c0.1-0.1,0.3-0.1,0.4-0.1
			c0,0.2,0.1,0.4,0,0.5c-0.5,0.6-1,1.1-1.6,1.6c-0.8,0.7-1.8,1-2.8,0.8c-1.3-0.4-2.1-1.6-1.9-2.9c0.4-1.3,1.2-2.4,2.2-3.2
			c1.2-1,2.9-1.1,4.2-0.2c0.6,0.4,0.6,0.5,0.2,1.2c-0.7,1-0.7,1-2.2,0.4c-0.8-0.5-1.8-0.3-2.4,0.4c0.4,0.1,0.8,0.2,1.2,0.2
			s0.6,0,0.9,0c0.2,0.1,0.4,0.2,0.6,0.3c-0.1,0.2-0.2,0.4-0.3,0.5C88.2,22.7,87.2,22.9,86.4,22.6z"/>
		<path class="st0" d="M95.1,25.5c-0.3,0-0.6,0-1,0c-0.8,0-1.6-0.1-2.4-0.2c-0.3,0-0.4-0.2-0.3-0.5c0.3-0.5,0.6-1,1-1.4
			c0.1-0.1,0.4,0,0.7,0c0.8,0.1,1.6,0.3,2.4,0.4c0.2,0,0.4-0.3,0.6-0.4c-0.2-0.2-0.4-0.5-0.6-0.5c-0.6,0-1.2,0.1-1.8,0
			c-0.5-0.1-1-0.2-1.5-0.5c-0.4-0.2-0.6-0.7-0.4-1.1c0,0,0-0.1,0.1-0.1c0.6-1.1,1.1-2.3,2.5-2.6c0.7-0.1,1.4-0.2,2.1-0.1
			c0.7,0.1,0.8,0.4,0.5,1.1c-0.5,1-0.7,1.1-1.7,0.7c-0.5-0.1-1-0.2-1.6-0.1c-0.1,0-0.3,0.3-0.3,0.4c0,0.2,0.1,0.3,0.3,0.4
			c0.5,0.1,1,0.2,1.5,0.2c0.7-0.1,1.4,0,2.1,0.2c0.4,0.2,0.6,0.5,0.4,0.9c0,0.3-0.1,0.5-0.2,0.8C96.8,24,96,24.8,95.1,25.5z"/>
		<path class="st0" d="M42.6,12.4c1.1,0,2.1,0,3.1,0c0.2,0,0.4,0.1,0.5,0.1c0,0.2-0.1,0.4-0.2,0.5c-0.4,1.2-1.5,0.9-2.4,0.9
			c-0.1,0-0.3-0.1-0.4-0.1c-0.2,0-0.3,0.1-0.4,0.2c0,0.1,0,0.3,0.1,0.4c0.4,0.5,1.1,0.7,1.8,0.6c0.8-0.2,1.8-0.2,2.3-1.2
			c0.1-0.1,0.3-0.1,0.5-0.1c0,0.2,0.1,0.6,0,0.8c-0.9,1.2-2.2,2.1-3.8,2.3c-1.4,0-2.6-1-2.7-2.4c0-0.9,0.3-1.8,0.9-2.5
			c0.5-0.7,1.1-1.4,1.7-2c0.3-0.3,0.7-0.4,1.1-0.4c0.5,0,1.1,0.1,1.5,0.3c1.3,0.6,1.4,1.5,0.3,2.3c-0.1,0.1-0.5-0.1-0.7-0.2
			c-0.4-0.2-0.7-0.7-1.1-0.8C43.6,10.9,43.2,11.1,42.6,12.4z"/>
		<path class="st0" d="M71.4,24.2c-0.1,0.2-0.2,0.3-0.3,0.5c-0.3,0.3-0.7,0.6-1.1,0.8c-0.2,0.1-0.5,0-0.7-0.2
			c-0.5-0.5-0.9-1.1-1.3-1.6c-0.2-0.3-0.4-0.4-0.7-0.1c-0.5,0.3-1,0.6-1.5,1c-0.6,0.4-1.4,0.6-2.2,0.5c-0.2-0.1-0.3-0.3-0.3-0.5
			c0.1-0.4,0.2-0.7,0.5-1c0.7-0.8,1.5-1.6,2.2-2.4c0.2-0.2,0.5-0.5,0.2-0.8c-0.1-0.1-0.4,0-0.6,0.1s-0.6,0.5-0.9,0.7
			c-0.1,0.1-0.2,0-0.4,0s0-0.3,0-0.4c0.8-0.7,1.7-1.5,2.6-2.2c0.3-0.2,0.6-0.1,0.8,0.2c0,0.1,0.1,0.1,0.1,0.2
			c0.1,0.2,0.2,0.4,0.3,0.6c0.5,1.8,1.6,3.3,3.1,4.4c0.2,0.1,0.3,0.2,0.5,0.3C71.5,24.1,71.5,24.1,71.4,24.2z M65.2,23.5
			c0.5-0.1,1-0.3,1.4-0.5c0.5-0.3,0.6-0.7,0.1-1.3s-0.6,0.1-0.8,0.2c-0.3,0.3-0.6,0.6-0.8,0.9C65.1,23,65.2,23.2,65.2,23.5z"/>
	</g>
</g>
<text transform="matrix(1 0 0 1 96.9 26.87)" class="st0 st3 st4">®</text>
<line class="st5" x1="16.8" y1="30.1" x2="98.9" y2="30.1"/>
<path class="st0" d="M19.7,6.8h-1.5c0.3-1.1,0.9-1.4,3-1.7l-0.9-0.3c1.4-1.7,6.5-1,8,1L27,6.6c0.2,0.4,0.4,0.7,0.6,1.1
	c0.2,0.7,0.3,1.4,0.6,2c0.4,1,0.9,1.9,1.4,2.8c0.4,0.6,0.2,2.3-0.4,2.6c-0.2,0.1-0.4,0.1-0.6,0c-0.3,0-0.6,0-0.9-0.1
	c-0.3-0.1-0.5-0.2-0.7-0.4c-0.3-0.5-0.8-0.8-1.3-0.9c-0.6-0.2-1.1-0.4-1.7-0.7c0.2,0.8,0.6,1.5,1.2,2c0.8,0.8,1.7,1.6,2.5,2.5
	c0.6,0.7,1,1.5,1.1,2.4c0.1,0.4-0.1,0.8-0.5,1c-0.5,0.2-0.8,0.9-0.6,1.4c0,0,0,0,0,0c0.2,0.5-0.7,1-2,2c-0.5,0.4-1.1,0.1-1.8,0.1
	c-1.4,0-1.3,0.8-2.3-0.1c-0.9-0.8-1.9-1.4-1.8-2.1c0-0.3-0.1-0.6-0.3-0.8c-0.2-0.2-0.5-0.4-0.7-0.6c0.6-1,0.8-2.2,0.7-3.3l-0.6,2.1
	h-0.1c-0.3-0.8-0.5-1.6-0.6-2.4c0.2-0.8,0.6-1.5,1-2.2l-1.2,1.4c-0.9-1.4-0.4-2.4,0.8-3.4l-0.2-0.1l-1.1,0.9
	c-0.6-1.2-0.5-1.6,0.5-2.4c0.3-0.2,0.6-0.3,0.9-0.4l-0.3-0.3c-0.2,0.1-0.5,0.3-0.7,0.4l-0.7,0.4c-0.5-1.3-0.2-1.9,1.1-2.3
	C18.4,9.1,18.7,9,19,8.8l0-0.2L17.2,9c0-1.4,0.3-1.8,1.7-1.9c0.3,0,0.6-0.1,0.9-0.2L19.7,6.8z M23.7,14.4l-0.1,0.1
	c0.7,0.9,1.5,1.7,2.2,2.6c0.6,0.7,1,1.6,0.9,2.5c0,0.2,0.1,0.5,0.2,0.7h0.2c0.1-0.3,0.2-0.7,0.1-1c-0.2-0.8-0.6-1.5-1.1-2.2
	C25.4,16.1,24.5,15.2,23.7,14.4z M21.6,14.1c0-0.2-0.1-0.4-0.1-0.6c-0.3-1.1-0.1-2.2,0.5-3.1c0.2-0.3,0.3-0.6,0.4-1l-0.2-0.1
	C20.8,10.5,20.5,12.6,21.6,14.1z"/>
<path class="st0" d="M18.9,27c0.2-0.3,0.4-0.6,0.6-0.9c0.6-0.8,0.9-1.7,1-2.6c0-0.2,0.4,0.2,0.6,0.2c1.7,0,3.4,0,5.1,0
	c0.2,0,0.6-0.4,0.7-0.2c0.1,0.9,0.4,1.8,1,2.6c0.1,0.1,0.3,0.2,0.4,0.4c0.1,0.1,0.1,0.3,0.1,0.5c0,0.1-0.3,0.2-0.4,0.2
	c-0.9,0-1.8,0-2.6,0h-6.2C18.9,27.2,18.9,27.1,18.9,27z"/>
<path class="st0" d="M30.5,29.5H16.8c0.2-0.5,0.5-0.9,0.8-1.2c0.4-0.3,1-0.5,1.5-0.6c3.1,0,6.1,0,9.2,0
	C29.4,27.6,30.4,28.4,30.5,29.5C30.5,29.5,30.5,29.5,30.5,29.5z"/>
<path class="st0" d="M22.4,23.2C21,23.1,19.4,21,19,19.2c-0.9,3.4-1.7,3.1-2.9,3l0,0c0.8-1.4,1.7-2.9,2.5-4.3l-1.4,1.5
	c-1.1,1.2-2.9,1.6-4.4,0.8l0,0l5.3-2.9l-3.7,1.3c-1.6,0.6-3.3-0.1-4.1-1.5l0,0l7.6-0.9l-5,0.1c-1,0.1-2,0-3-0.3
	C9.1,15.8,8.4,15,8.2,14l9.7,1.4l-7.6-1.8c-0.9-0.1-1.8-0.5-2.4-1.1c-0.8-1-0.8-2.4-1.7-3.3l11.1,4.6L9.2,9.8
	c-1.4-0.6-2.8-1.4-4-2.4C4,6.3,3.3,4.8,3.3,3.2c4.9,3.6,10,6.8,15.3,9.7c0.7,0.4,1.1,1.1,1,1.9C19.5,17.3,19.7,21.8,22.4,23.2z"/>
</svg>
