<svg id="Layer_1" data-name="Layer 1" xmlns="http://www.w3.org/2000/svg" viewBox="0 0 119.43 12.93"><defs><style>.cls-1,.cls-2{fill:#fefced;}.cls-2{isolation:isolate;font-size:3.79px;font-family:MyriadPro-Regular, Myriad Pro;}</style></defs><g id="Layer_1-2" data-name="Layer 1"><g id="Layer_2" data-name="Layer 2"><path class="cls-1" d="M18.59,2.65c.31-.19.56-.31.78-.47a2,2,0,0,1,3.23.87,4.24,4.24,0,0,1-.15,4.1,2.08,2.08,0,0,1-1,.84,4.08,4.08,0,0,1-3,.32c-.36-.14-.44.13-.48.4-.11.8-.15,1.61-.31,2.4a2.89,2.89,0,0,1-.6,1.15.8.8,0,0,1-.74.08.88.88,0,0,1-.33-.69c.14-1.22.37-2.43.5-3.65a19.62,19.62,0,0,0,.14-2.77c0-.24-.35-.53-.6-.72-.86-.64-.89-1,0-1.66.45-.32.9-.64,1.37-.94C18.29,1.29,18.45,1.38,18.59,2.65Zm.43,4A1.9,1.9,0,0,0,20.91,7c.58-.34.49-.92.41-1.43a7.06,7.06,0,0,0-.5-1.68,1.25,1.25,0,0,0-1.45-.73A1.5,1.5,0,0,0,18.26,4.4,2.9,2.9,0,0,0,19,6.63Z"/><path class="cls-1" d="M103.85,3.81a5.73,5.73,0,0,1-1.23,3.82c-1,1.18-2.11,2.33-3.17,3.5a.91.91,0,0,1-.33.26,2.29,2.29,0,0,1-.53,0,1.39,1.39,0,0,1,.16-.51c.75-.87,1.5-1.74,2.28-2.59a5,5,0,0,0,1.17-2.75,2.17,2.17,0,0,0-.9-2.05,1,1,0,0,0-1.45.12,2.93,2.93,0,0,0-1,2.14A2.15,2.15,0,0,1,98,7.54a3.43,3.43,0,0,1-.73.32,4.21,4.21,0,0,1-.12-.78,16.18,16.18,0,0,0,.11-1.83,3,3,0,0,0-.46-1.47c-.57-.8-1.15-1-2-.26a1.6,1.6,0,0,0-.11,2.59.53.53,0,0,1,.07.85c-.11.13-.2.27-.3.4-.58.77-1,.73-1.46-.13a2.38,2.38,0,0,1-.07-2.34,7.1,7.1,0,0,1,3.17-3.15,1.78,1.78,0,0,1,2.51,1c.36.84.36.84,1,.24.29-.27.59-.52.88-.78,1.17-1.1,2.28-.29,3,.64A3.75,3.75,0,0,1,103.85,3.81Z"/><path class="cls-1" d="M33.25,12.24c-.77-.28-.79-.32-.3-1s.58-.74,1.45-.47,1.27.11,1.31-.93c0-.37,0-.73.07-1.09s-.11-.51-.47-.32a1.69,1.69,0,0,1-.46.2c-1.8.38-2.37.16-3.09-.93a3.39,3.39,0,0,1,.14-3.92,11.68,11.68,0,0,0,.91-1.09c.91-1.37,2.85-1.34,4-.77.5.25,1.16.49,1.37.91.27.57-.61.72-.85,1.17-.34.63-.66.32-1,0a2.46,2.46,0,0,0-2.66-.78,1.13,1.13,0,0,0-.67.5,2.53,2.53,0,0,0,.17,2.78,1.86,1.86,0,0,0,3-.07,2.13,2.13,0,0,1,.46-.49,7.06,7.06,0,0,1,.64-.42,3,3,0,0,1,.11.71c-.11,1.19-.17,2.4-.39,3.57a3.24,3.24,0,0,1-2,2.53,6.07,6.07,0,0,1-1.77.13Z"/><path class="cls-1" d="M49.13,9.07A8,8,0,0,1,48,8.35c-.24-.22-.57-.67-.49-.83a4.7,4.7,0,0,1,1-1.11c.05,0,.26,0,.36.11a13,13,0,0,0,1.25.84,2.78,2.78,0,0,0,1.12.19c.18,0,.49-.17.52-.31a.7.7,0,0,0-.25-.59A6.18,6.18,0,0,0,50.13,6c-.59-.18-1.22-.24-1.81-.4a1.44,1.44,0,0,1-.86-2.4c1.4-1.69,2.66-2.16,4.82-1.14,1.51.72,1.48.77.32,2-.32.34-.62.44-1,.11a4.51,4.51,0,0,0-.7-.47,3.12,3.12,0,0,0-.84-.37c-.43-.09-1-.18-1.15.29s.5.58.9.67A20.88,20.88,0,0,1,52,4.76a1.53,1.53,0,0,1,.87,2.52A3.94,3.94,0,0,1,50.71,9,5.24,5.24,0,0,1,49.13,9.07Z"/><path class="cls-1" d="M40.44,3c-.32.39-.62.79-.95,1.16-.07.08-.26.06-.4.08,0-.14-.05-.31,0-.41a20,20,0,0,1,1.28-1.74c.78-.88,1.13-.85,1.7.14a14.94,14.94,0,0,0,2.7,3.33,15.26,15.26,0,0,0,1.4,1.12c.51.39.56.55.27,1.11,0,.07-.09.12-.11.19-.29.9-.33.93-1.08.38s-1.38-1.14-2.09-1.68a.5.5,0,0,0-.49,0,9.67,9.67,0,0,0-1,1,2.44,2.44,0,0,1-1.91.91c-.66,0-.87-.19-.76-.85a6.81,6.81,0,0,1,1.56-3C41.27,3.89,41.29,3.82,40.44,3Zm0,3.27c0,.19,0,.49.08.58a.72.72,0,0,0,.63,0,8.83,8.83,0,0,0,1-.62c.38-.22.36-.44.09-.77-.77-.91-.76-.93-1.42.07C40.68,5.74,40.58,6,40.43,6.23Z"/><path class="cls-1" d="M60,6.39a23,23,0,0,1-1.68,1.72,1.67,1.67,0,0,1-2.8-.46,7.81,7.81,0,0,1-.31-1.39.5.5,0,0,1,0-.17,1.41,1.41,0,0,0-1.11-1.84c-.28-.08-.41-.24-.19-.48a22.55,22.55,0,0,1,1.92-2c.48-.41.75-.27.8.37s0,1.46.07,2.19c0,.5.13,1,.16,1.5s.24,1,.72,1a1.84,1.84,0,0,0,1.28-.43A3,3,0,0,0,59.69,4c0-.31,0-.62,0-.93a1.59,1.59,0,0,1,1.14-1.56c.16,0,.4.15.55.3s0,.27,0,.41a7.46,7.46,0,0,0,.73,4.41,1.6,1.6,0,0,1-.39,1.91c-.31.41-.67.35-.88-.13s-.34-.95-.52-1.42C60.2,6.82,60.1,6.63,60,6.39Z"/><path class="cls-1" d="M80.77,7.74c-.69.19-1.27.4-1.87.51a2.18,2.18,0,0,1-2.75-1.88,1.69,1.69,0,0,1,.17-1.11c1-1.47,2-2.91,3.74-3.47A2.45,2.45,0,0,1,82.54,2c.29.23.41.46,0,.74s-.47.49-.74.68a.59.59,0,0,1-.5.05,2.3,2.3,0,0,0-2.83.23,1.93,1.93,0,0,0-.85,1.73,1.14,1.14,0,0,0,.06.33,2,2,0,0,0,1.82.87c.63,0,1.33,0,1.59-.78.06-.19.12-.44.26-.52a7.46,7.46,0,0,1,1-.46,4.31,4.31,0,0,1,.07.87c-.09.75-.19,1.5-.34,2.24a3.89,3.89,0,0,1-2.29,3,5.86,5.86,0,0,1-2.15.14c-.07,0-.23-.31-.19-.43a1.8,1.8,0,0,1,1.74-1.19h.59c.6,0,.86-.33.88-.89C80.76,8.33,80.76,8.08,80.77,7.74Z"/><path class="cls-1" d="M65.17,5.94,64,5.92c-.47,0-.89-.08-1.1-.6S62.5,4.26,63,3.76C63.7,3,64.23,2,65.39,1.64a3.88,3.88,0,0,1,3.16.73.49.49,0,0,1,.06.49A12.9,12.9,0,0,1,67.18,4c-.08.06-.33-.08-.47-.18a5.67,5.67,0,0,0-1-.74,1.15,1.15,0,0,0-.9.13.91.91,0,0,0-.39.74c0,.2.46.41.71.42.78,0,1.56,0,2.34,0,1.29,0,1.78.89,1.18,2a4,4,0,0,1-2.89,2.34,2.86,2.86,0,0,1-2.61-.84c-.28-.27-.33-.51,0-.79l.45-.49c.37-.41.67-.56,1.15,0a1.91,1.91,0,0,0,2.07.49c.23-.07.4-.3.6-.45C67.15,6.39,67,6,66.68,6a7.58,7.58,0,0,0-1.51-.06Z"/><path class="cls-1" d="M106.91,5.73a2.1,2.1,0,0,0,3.29.56c.24-.19.45-.43.71-.6a1.2,1.2,0,0,1,.44-.07c0,.15.07.37,0,.45a12.79,12.79,0,0,1-1.64,1.65,3.21,3.21,0,0,1-2.8.76A2.64,2.64,0,0,1,105,5.53a6.17,6.17,0,0,1,2.25-3.17,3.52,3.52,0,0,1,4.19-.25c.61.43.56.54.16,1.16-.64,1-.71,1-2.19.4A2,2,0,0,0,107,4c.39.08.77.18,1.15.23s.63,0,.93,0a2.33,2.33,0,0,1,.6.32,3.5,3.5,0,0,1-.31.53A2.13,2.13,0,0,1,106.91,5.73Z"/><path class="cls-1" d="M115.62,8.6c-.29,0-.65,0-1,0-.81,0-1.62-.1-2.42-.17-.35,0-.45-.24-.27-.52a10.4,10.4,0,0,1,1-1.44c.09-.11.45,0,.68,0,.8.12,1.59.28,2.39.35.19,0,.41-.26.62-.4-.2-.17-.39-.47-.6-.48-.61-.06-1.23.07-1.84,0a4.85,4.85,0,0,1-1.49-.45.87.87,0,0,1-.37-1.24c.63-1.07,1.13-2.33,2.52-2.63a6.75,6.75,0,0,1,2.15-.1c.69.07.81.43.51,1.06-.47,1-.74,1.06-1.74.66a3.81,3.81,0,0,0-1.55-.1c-.12,0-.32.26-.34.41a.53.53,0,0,0,.28.43,6.46,6.46,0,0,0,1.47.22,3.86,3.86,0,0,1,2,.24.73.73,0,0,1,.45.89,2.88,2.88,0,0,1-.22.79A6.45,6.45,0,0,1,115.62,8.6Z"/><path class="cls-1" d="M25.28,4.41l3.1,0a2.6,2.6,0,0,1,.53.14c-.05.18-.09.36-.15.54-.44,1.19-1.5.88-2.39,1-.14,0-.28-.09-.41-.08a.67.67,0,0,0-.42.18c-.05.05,0,.27.11.38a1.9,1.9,0,0,0,1.75.56c.84-.23,1.81-.25,2.28-1.21.06-.11.34-.11.51-.16,0,.26.09.59,0,.75A5.49,5.49,0,0,1,26.4,8.79,2.63,2.63,0,0,1,23.72,6.4a3.66,3.66,0,0,1,.9-2.52,11.78,11.78,0,0,1,1.71-1.95,1.6,1.6,0,0,1,1.06-.39,4.25,4.25,0,0,1,1.54.33c1.32.58,1.42,1.47.26,2.28-.13.1-.5,0-.7-.16-.39-.25-.71-.7-1.13-.8C26.27,2.9,25.91,3.14,25.28,4.41Z"/><path class="cls-1" d="M91.93,7.36a2,2,0,0,1-.34.47,5.33,5.33,0,0,1-1.08.77.77.77,0,0,1-.69-.17,18.88,18.88,0,0,1-1.34-1.62c-.21-.28-.39-.35-.7-.14-.48.34-1,.63-1.47,1a3.13,3.13,0,0,1-2.17.46.63.63,0,0,1-.33-.51,2.35,2.35,0,0,1,.46-1C85,5.78,85.72,5,86.47,4.2c.23-.25.46-.5.17-.78-.09-.09-.44,0-.62.12s-.57.46-.87.66c-.09.06-.26,0-.39,0s0-.32,0-.38c.84-.75,1.66-1.51,2.55-2.19a.59.59,0,0,1,.9.33c.09.21.19.41.26.62A8.19,8.19,0,0,0,91.57,6.9a5.12,5.12,0,0,0,.52.27C92,7.23,92,7.3,91.93,7.36Zm-6.17-.75a12.46,12.46,0,0,0,1.43-.51c.52-.27.56-.66.1-1.25s-.56.1-.75.25A4.14,4.14,0,0,0,85.7,6C85.63,6.12,85.73,6.34,85.76,6.61Z"/></g></g><text class="cls-2" transform="translate(117.43 10.02)">®</text><path class="cls-1" d="M8.16,2.59H7.49c.12-.47.38-.62,1.3-.74l-.38-.12c.6-.73,2.82-.45,3.48.42l-.59.34c.09.18.19.33.25.49s.13.59.24.86a9.32,9.32,0,0,0,.6,1.23c.16.27.08,1-.19,1.14a.56.56,0,0,1-.26,0,1.57,1.57,0,0,1-.37,0A.57.57,0,0,1,11.26,6a.82.82,0,0,0-.59-.4,3.83,3.83,0,0,1-.7-.29,1.71,1.71,0,0,0,.53.86c.36.36.74.71,1.08,1.08a1.67,1.67,0,0,1,.47,1.06.42.42,0,0,1-.2.44.47.47,0,0,0-.24.62c.08.21-.29.44-.85.87-.23.19-.49,0-.79,0-.62,0-.55.35-1,0s-.82-.62-.77-.93a.54.54,0,0,0-.14-.35,1.37,1.37,0,0,0-.31-.27,2.42,2.42,0,0,0,.31-1.43l-.26.9H7.73a3.31,3.31,0,0,1-.27-1.06,3.59,3.59,0,0,1,.42-1l-.49.6c-.39-.59-.15-1,.34-1.46l-.09,0-.5.38c-.27-.52-.23-.7.24-1a2.47,2.47,0,0,1,.36-.19l-.13-.14-.3.19L7,4.62c-.21-.55-.08-.81.47-1,.12,0,.24-.11.36-.16l0-.07-.74.16c0-.63.12-.77.72-.82a2.34,2.34,0,0,0,.38-.09ZM9.87,5.88l0,0c.31.37.63.74.94,1.12a1.5,1.5,0,0,1,.4,1.07.89.89,0,0,0,.08.31h.11c0-.15.1-.31.06-.43A3.27,3.27,0,0,0,11,7,13.13,13.13,0,0,0,9.87,5.88ZM9,5.78a1.14,1.14,0,0,1-.06-.25,1.57,1.57,0,0,1,.25-1.37,1.62,1.62,0,0,0,.19-.42l-.08,0A1.55,1.55,0,0,0,9,5.78Z"/><path class="cls-1" d="M7.81,11.38A2.55,2.55,0,0,1,8.07,11a2.24,2.24,0,0,0,.44-1.14c0-.1.18.08.28.08.74,0,1.47,0,2.21,0,.1,0,.27-.18.28-.08A2.44,2.44,0,0,0,11.72,11a.85.85,0,0,1,.16.17.29.29,0,0,1,0,.22s-.12.07-.18.08H7.88C7.81,11.47,7.79,11.43,7.81,11.38Z"/><path class="cls-1" d="M12.82,12.46H6.88a1.87,1.87,0,0,1,.35-.53,1.39,1.39,0,0,1,.67-.26c1.33,0,2.65,0,4,0A.86.86,0,0,1,12.82,12.46Z"/><path class="cls-1" d="M9.31,9.71C8.73,9.67,8,8.77,7.83,8c-.38,1.48-.72,1.36-1.26,1.29h0L7.65,7.43l-.59.65a1.58,1.58,0,0,1-1.89.37h0L7.48,7.19l-1.6.58A1.48,1.48,0,0,1,4.09,7.1h0L7.4,6.74l-2.15,0A3.45,3.45,0,0,1,4,6.65a1.15,1.15,0,0,1-.79-.94l4.2.59-3.3-.78A1.91,1.91,0,0,1,3,5c-.36-.4-.34-1-.74-1.42l4.84,2-3.5-1.7A7,7,0,0,1,1.88,2.82,2.36,2.36,0,0,1,1.05,1a56.32,56.32,0,0,0,6.63,4.2.89.89,0,0,1,.46.84C8.06,7.16,8.17,9.09,9.31,9.71Z"/></svg>