<svg id="Layer_1" data-name="Layer 1" xmlns="http://www.w3.org/2000/svg" viewBox="0 0 137.49 31.6"><defs><style>.cls-1,.cls-2{fill:#fefced;}.cls-2{isolation:isolate;font-size:3.79px;font-family:MyriadPro-Regular, Myriad Pro;}</style></defs><g id="Layer_1-2" data-name="Layer 1"><g id="Layer_2" data-name="Layer 2"><path class="cls-1" d="M35.62,19.49c.31-.19.56-.31.79-.47a2,2,0,0,1,3.23.87,4.24,4.24,0,0,1-.16,4.1,2.08,2.08,0,0,1-1,.84,4.12,4.12,0,0,1-3,.32c-.36-.14-.44.13-.48.4-.1.8-.15,1.61-.31,2.4a2.77,2.77,0,0,1-.6,1.15.75.75,0,0,1-.73.07.83.83,0,0,1-.34-.68c.14-1.22.37-2.43.51-3.65a19.62,19.62,0,0,0,.13-2.77c0-.24-.34-.53-.59-.72-.86-.64-.89-1-.05-1.66.45-.33.9-.64,1.37-.94C35.32,18.13,35.48,18.22,35.62,19.49Zm.44,4a1.89,1.89,0,0,0,1.89.39c.57-.34.49-.92.4-1.43a7,7,0,0,0-.49-1.68A1.27,1.27,0,0,0,36.4,20a1.54,1.54,0,0,0-1.11,1.23A2.88,2.88,0,0,0,36.06,23.47Z"/><path class="cls-1" d="M120.88,20.65a5.71,5.71,0,0,1-1.23,3.82c-1,1.18-2.11,2.33-3.17,3.49a.89.89,0,0,1-.32.27,2.42,2.42,0,0,1-.54,0,1.61,1.61,0,0,1,.16-.51c.75-.87,1.51-1.74,2.28-2.59a5,5,0,0,0,1.17-2.75,2.15,2.15,0,0,0-.9-2.05,1,1,0,0,0-1.45.12,2.91,2.91,0,0,0-1,2.14,2.12,2.12,0,0,1-.8,1.76,3.43,3.43,0,0,1-.73.32,4.21,4.21,0,0,1-.12-.78,16.18,16.18,0,0,0,.11-1.83,3.1,3.1,0,0,0-.45-1.48c-.58-.79-1.16-1-2-.25a1.6,1.6,0,0,0-.11,2.59.53.53,0,0,1,.07.85l-.3.4c-.57.77-1,.73-1.46-.13a2.41,2.41,0,0,1-.07-2.34,7.15,7.15,0,0,1,3.17-3.15,1.78,1.78,0,0,1,2.51,1c.36.85.36.85,1,.25.29-.27.6-.52.88-.79,1.17-1.09,2.28-.28,3,.64A4,4,0,0,1,120.88,20.65Z"/><path class="cls-1" d="M50.28,29.08c-.77-.28-.79-.32-.3-1s.58-.74,1.45-.47,1.27.11,1.31-.94c0-.36,0-.72.07-1.08s-.11-.51-.47-.32a1.69,1.69,0,0,1-.46.2c-1.79.38-2.37.16-3.09-.93a3.37,3.37,0,0,1,.15-3.92,13.34,13.34,0,0,0,.9-1.09c.92-1.37,2.85-1.34,4-.77.49.25,1.15.49,1.36.91s-.61.72-.84,1.17c-.35.62-.67.32-1,0A2.46,2.46,0,0,0,50.77,20a1.15,1.15,0,0,0-.68.5,2.52,2.52,0,0,0,.18,2.78,1.85,1.85,0,0,0,3-.07,2.67,2.67,0,0,1,.46-.49,7.22,7.22,0,0,1,.65-.42,3.47,3.47,0,0,1,.1.71c-.11,1.19-.17,2.4-.39,3.57a3.22,3.22,0,0,1-2,2.53,6,6,0,0,1-1.77.13Z"/><path class="cls-1" d="M66.16,25.91A8.59,8.59,0,0,1,65,25.19c-.23-.22-.57-.67-.49-.83a4.7,4.7,0,0,1,1-1.11s.26,0,.37.11a11.73,11.73,0,0,0,1.24.84,2.78,2.78,0,0,0,1.12.19c.19,0,.49-.17.52-.31a.68.68,0,0,0-.25-.59,6.18,6.18,0,0,0-1.35-.64c-.59-.18-1.21-.25-1.81-.4a1.44,1.44,0,0,1-.85-2.4c1.39-1.69,2.65-2.16,4.81-1.14,1.51.71,1.48.77.33,2-.33.34-.63.43-1,.11a4.08,4.08,0,0,0-.7-.47,3.12,3.12,0,0,0-.84-.37c-.42-.09-1-.18-1.15.29s.5.58.9.67c.74.16,1.51.24,2.22.47a1.54,1.54,0,0,1,.88,2.53,4,4,0,0,1-2.19,1.76A6,6,0,0,1,66.16,25.91Z"/><path class="cls-1" d="M57.47,19.8c-.31.39-.61.79-.95,1.15-.07.09-.26.06-.39.09,0-.14-.06-.32,0-.41a17,17,0,0,1,1.29-1.74c.78-.88,1.12-.85,1.69.13a14.77,14.77,0,0,0,2.7,3.34,15.26,15.26,0,0,0,1.4,1.12c.52.39.57.55.28,1.11a.76.76,0,0,0-.12.19c-.29.9-.33.93-1.08.38S60.91,24,60.21,23.48a.5.5,0,0,0-.49,0,8,8,0,0,0-1,1,2.5,2.5,0,0,1-1.92.91c-.66,0-.87-.2-.76-.85a6.81,6.81,0,0,1,1.56-3C58.3,20.72,58.33,20.66,57.47,19.8Zm0,3.26c0,.2,0,.5.07.59a.72.72,0,0,0,.63,0,9,9,0,0,0,1-.62c.37-.22.36-.44.08-.77-.77-.92-.75-.93-1.42.07A7.13,7.13,0,0,0,57.47,23.06Z"/><path class="cls-1" d="M77,23.23c-.59.61-1.09,1.22-1.67,1.72a1.68,1.68,0,0,1-2.81-.46,7.81,7.81,0,0,1-.31-1.39.5.5,0,0,1,0-.17,1.4,1.4,0,0,0-1.1-1.84c-.29-.08-.42-.24-.2-.48a22.55,22.55,0,0,1,1.92-2c.48-.42.75-.27.81.37s0,1.46.07,2.18c0,.51.12,1,.15,1.51s.24,1,.72,1a1.84,1.84,0,0,0,1.28-.43,3.09,3.09,0,0,0,.83-2.39c0-.31-.06-.62-.06-.93a1.58,1.58,0,0,1,1.15-1.56c.15,0,.4.15.55.29s0,.27,0,.41a7.56,7.56,0,0,0,.73,4.42,1.61,1.61,0,0,1-.38,1.91c-.32.41-.68.35-.89-.14s-.34-.94-.52-1.41C77.24,23.66,77.14,23.47,77,23.23Z"/><path class="cls-1" d="M97.8,24.58c-.69.19-1.27.4-1.87.51a2.17,2.17,0,0,1-2.74-1.88,1.65,1.65,0,0,1,.16-1.12c1-1.46,2-2.9,3.75-3.46a2.44,2.44,0,0,1,2.47.17c.29.23.41.45.05.74s-.47.49-.74.68a.57.57,0,0,1-.49.05,2.29,2.29,0,0,0-2.83.23,1.9,1.9,0,0,0-.85,1.73.88.88,0,0,0,.05.33,2,2,0,0,0,1.82.86c.64,0,1.33,0,1.59-.77.06-.19.12-.44.26-.52a7.46,7.46,0,0,1,1-.46,4.31,4.31,0,0,1,.07.87c-.08.75-.19,1.5-.34,2.24a3.89,3.89,0,0,1-2.29,3,6.07,6.07,0,0,1-2.15.14c-.07,0-.23-.31-.19-.43a1.79,1.79,0,0,1,1.74-1.19h.59c.61,0,.86-.32.88-.88C97.79,25.17,97.79,24.92,97.8,24.58Z"/><path class="cls-1" d="M82.2,22.78l-1.18,0c-.47,0-.89-.08-1.1-.6s-.38-1.06.08-1.57c.73-.79,1.26-1.81,2.42-2.11a3.91,3.91,0,0,1,3.17.73.54.54,0,0,1,.06.49,15.55,15.55,0,0,1-1.44,1.13c-.08.05-.33-.08-.47-.18a5.32,5.32,0,0,0-1-.74,1.15,1.15,0,0,0-.9.13.94.94,0,0,0-.39.74c.05.19.46.4.72.42.77.05,1.56,0,2.34,0,1.28,0,1.77.89,1.17,2a4,4,0,0,1-2.89,2.33,2.83,2.83,0,0,1-2.61-.83c-.27-.27-.32-.51,0-.79l.46-.49c.36-.41.66-.56,1.14-.05a1.91,1.91,0,0,0,2.07.49c.23-.07.4-.3.6-.45-.23-.22-.43-.57-.7-.63a7.55,7.55,0,0,0-1.51-.06Z"/><path class="cls-1" d="M123.94,22.57a2.09,2.09,0,0,0,3.29.55c.24-.18.45-.42.71-.59a1.2,1.2,0,0,1,.44-.07c0,.15.07.37,0,.45a12.1,12.1,0,0,1-1.64,1.64,3.21,3.21,0,0,1-2.8.77A2.64,2.64,0,0,1,122,22.37a6.17,6.17,0,0,1,2.25-3.17,3.52,3.52,0,0,1,4.19-.25c.62.43.56.54.16,1.16-.64,1-.7,1-2.19.4a1.92,1.92,0,0,0-2.41.34c.38.08.76.18,1.15.23s.62,0,.92,0a2.56,2.56,0,0,1,.61.32,4.66,4.66,0,0,1-.32.53A2.13,2.13,0,0,1,123.94,22.57Z"/><path class="cls-1" d="M132.65,25.44c-.28,0-.64,0-1,0-.81-.05-1.61-.1-2.42-.17-.34,0-.45-.24-.27-.52a11.32,11.32,0,0,1,1-1.44c.1-.11.45,0,.69,0,.79.11,1.58.28,2.38.34.2,0,.42-.25.62-.4-.2-.16-.39-.46-.6-.48-.61,0-1.23.08-1.84,0a4.93,4.93,0,0,1-1.49-.45.87.87,0,0,1-.37-1.24c.63-1.07,1.13-2.34,2.53-2.63a6.68,6.68,0,0,1,2.14-.1c.7.07.81.42.52,1.06-.47,1-.75,1.06-1.75.66a3.79,3.79,0,0,0-1.55-.1c-.12,0-.32.26-.33.41a.52.52,0,0,0,.27.43,6.55,6.55,0,0,0,1.47.22,3.9,3.9,0,0,1,2.05.24.75.75,0,0,1,.45.89,3.43,3.43,0,0,1-.23.79A6.45,6.45,0,0,1,132.65,25.44Z"/><path class="cls-1" d="M42.31,21.25l3.1,0a2,2,0,0,1,.53.14,5.44,5.44,0,0,1-.15.54c-.44,1.19-1.5.88-2.39,1-.13,0-.28-.09-.41-.08a.72.72,0,0,0-.42.17c0,.06,0,.28.11.38a1.88,1.88,0,0,0,1.75.57c.85-.24,1.81-.25,2.29-1.21.05-.11.33-.11.5-.16,0,.26.09.59,0,.75a5.44,5.44,0,0,1-3.76,2.28,2.62,2.62,0,0,1-2.68-2.38,3.67,3.67,0,0,1,.91-2.52,11.72,11.72,0,0,1,1.7-1.95,1.6,1.6,0,0,1,1.06-.39,4.35,4.35,0,0,1,1.55.33c1.32.57,1.41,1.47.25,2.28-.13.09-.49,0-.7-.17-.39-.24-.71-.69-1.12-.79C43.3,19.74,42.94,20,42.31,21.25Z"/><path class="cls-1" d="M109,24.2a2.36,2.36,0,0,1-.34.47,6.16,6.16,0,0,1-1.09.77.77.77,0,0,1-.69-.17,20.94,20.94,0,0,1-1.34-1.62c-.21-.28-.39-.35-.7-.14-.47.34-1,.63-1.47,1a3.12,3.12,0,0,1-2.16.46.64.64,0,0,1-.34-.51,2.29,2.29,0,0,1,.46-1c.71-.83,1.46-1.62,2.21-2.42.23-.24.46-.49.16-.77-.09-.09-.44,0-.62.12s-.57.45-.87.66c-.09.06-.25,0-.38,0s0-.31,0-.37c.83-.75,1.65-1.51,2.54-2.19a.6.6,0,0,1,.91.33c.08.21.19.41.26.62a8.08,8.08,0,0,0,3.06,4.31,4.11,4.11,0,0,0,.51.27Zm-6.18-.75a12.46,12.46,0,0,0,1.43-.51c.52-.27.56-.66.1-1.25s-.56.1-.75.25a4.68,4.68,0,0,0-.84.93C102.66,23,102.76,23.18,102.79,23.45Z"/></g></g><text class="cls-2" transform="translate(134.46 26.86)">®</text><path class="cls-1" d="M19.4,6.23H17.85c.27-1.08.86-1.43,3-1.71L20,4.24c1.38-1.67,6.48-1,8,1L26.63,6a8.51,8.51,0,0,1,.56,1.14c.22.65.3,1.35.56,2a23.88,23.88,0,0,0,1.38,2.83c.36.62.18,2.27-.44,2.61a1,1,0,0,1-.58,0,3.51,3.51,0,0,1-.87-.12,1.41,1.41,0,0,1-.72-.43,1.84,1.84,0,0,0-1.34-.91,9.53,9.53,0,0,1-1.62-.67,4,4,0,0,0,1.22,2c.82.84,1.69,1.63,2.5,2.49a3.85,3.85,0,0,1,1.07,2.44,1,1,0,0,1-.47,1,1.09,1.09,0,0,0-.55,1.42c.19.48-.66,1-1.95,2-.53.42-1.13.07-1.81.07-1.43,0-1.27.83-2.35-.12-.87-.76-1.87-1.4-1.77-2.13a1.32,1.32,0,0,0-.3-.82,3.49,3.49,0,0,0-.72-.59,5.79,5.79,0,0,0,.72-3.31L18.53,19h-.14a7.74,7.74,0,0,1-.61-2.44,8.3,8.3,0,0,1,1-2.18l-1.12,1.38c-.91-1.37-.36-2.42.79-3.36l-.21-.07-1.15.87c-.63-1.2-.55-1.61.54-2.37a6.08,6.08,0,0,1,.84-.44l-.3-.33c-.23.15-.46.31-.7.45l-.7.4c-.48-1.26-.18-1.87,1.09-2.26a8.84,8.84,0,0,0,.84-.36l-.06-.16-1.69.36c0-1.45.26-1.76,1.66-1.88a6.87,6.87,0,0,0,.87-.21Zm3.93,7.57-.12.12c.72.86,1.45,1.71,2.16,2.57A3.37,3.37,0,0,1,26.29,19a2.78,2.78,0,0,0,.19.71h.26c.05-.33.23-.71.13-1a8,8,0,0,0-1-2.23A34.82,34.82,0,0,0,23.33,13.8Zm-2.06-.23c-.05-.2-.11-.39-.14-.58a3.63,3.63,0,0,1,.59-3.15,3.63,3.63,0,0,0,.42-1L22,8.82A3.58,3.58,0,0,0,21.27,13.57Z"/><path class="cls-1" d="M18.57,26.47a6.29,6.29,0,0,1,.62-.88,5.2,5.2,0,0,0,1-2.62c0-.22.42.19.65.18,1.7,0,3.39,0,5.09,0,.23,0,.62-.41.65-.18a5.32,5.32,0,0,0,1,2.62A2.18,2.18,0,0,1,28,26a.69.69,0,0,1,.09.49c-.05.11-.28.18-.43.19H18.73C18.58,26.68,18.53,26.58,18.57,26.47Z"/><path class="cls-1" d="M30.13,29H16.44c.31-.49.47-1,.81-1.22a3,3,0,0,1,1.54-.59c3.05-.06,6.11,0,9.17,0A2,2,0,0,1,30.13,29Z"/><path class="cls-1" d="M22,22.63c-1.34-.09-2.94-2.17-3.4-3.94-.9,3.4-1.67,3.12-2.92,3h0l2.51-4.27-1.36,1.51a3.7,3.7,0,0,1-4.36.85h0l5.35-2.9-3.68,1.33A3.39,3.39,0,0,1,10,16.61l0,0,7.64-.82-4.93.11a7.94,7.94,0,0,1-3-.31,2.66,2.66,0,0,1-1.83-2.16l9.68,1.37L10,13a4.51,4.51,0,0,1-2.46-1.15c-.82-.93-.78-2.43-1.68-3.29L17,13.14,8.92,9.21a16,16,0,0,1-4-2.46A5.48,5.48,0,0,1,3,2.62a132,132,0,0,0,15.28,9.66,2,2,0,0,1,1.05,1.93C19.16,16.75,19.41,21.2,22,22.63Z"/></svg>