<?xml version="1.0" encoding="utf-8"?>
<!-- Generator: Adobe Illustrator 15.0.0, SVG Export Plug-In . SVG Version: 6.00 Build 0)  -->
<!DOCTYPE svg PUBLIC "-//W3C//DTD SVG 1.1//EN" "http://www.w3.org/Graphics/SVG/1.1/DTD/svg11.dtd">
<svg version="1.1" id="Layer_1" xmlns="http://www.w3.org/2000/svg" xmlns:xlink="http://www.w3.org/1999/xlink" x="0px" y="0px"
	 width="612px" height="792px" viewBox="0 0 612 792" enable-background="new 0 0 612 792" xml:space="preserve">
<path fill="#010101" d="M323.379,337.362h-9.555c1.665-6.718,5.302-8.814,18.492-10.54l-5.424-1.726
	c8.566-10.293,40.002-6.164,49.31,6.164l-8.444,4.623c1.367,2.239,2.542,4.589,3.514,7.026c1.294,4.006,1.849,8.321,3.451,12.328
	c2.424,6.006,5.266,11.835,8.506,17.443c2.219,3.822,1.109,13.992-2.712,16.087c-1.187,0.348-2.449,0.348-3.636,0
	c-1.791-0.025-3.572-0.274-5.302-0.74c-1.72-0.397-3.272-1.325-4.438-2.65c-1.737-3.046-4.787-5.117-8.26-5.609
	c-3.319-1.068-6.537-2.429-9.615-4.068c1.185,4.783,3.81,9.086,7.52,12.327c5.055,5.178,10.417,10.047,15.409,15.348
	c3.918,4.068,6.258,9.401,6.596,15.039c0.36,2.45-0.781,4.878-2.896,6.164c-3.354,1.515-4.864,5.443-3.391,8.814
	c1.171,2.958-4.068,6.163-12.02,12.327c-3.328,2.589-7.026,0.432-11.218,0.432c-8.753,0-7.767,5.116-14.423-0.739
	c-5.363-4.685-11.527-8.63-10.91-13.129c-0.053-1.841-0.702-3.614-1.85-5.055c-1.338-1.393-2.826-2.633-4.438-3.698
	c3.497-6.176,5.024-13.272,4.376-20.341l-3.76,12.76H317.4c-2.065-4.775-3.336-9.855-3.76-15.04
	c1.367-4.763,3.445-9.293,6.163-13.437l-7.52,8.506c-5.547-8.444-2.157-14.917,4.931-20.71l-1.295-0.432l-7.088,5.363
	c-3.883-7.396-3.39-9.924,3.268-14.608c1.68-1.025,3.432-1.931,5.238-2.712l-1.849-2.034c-1.418,0.925-2.835,1.911-4.315,2.774
	l-4.314,2.465c-2.897-7.89-0.74-11.526,6.781-14.053c1.762-0.65,3.49-1.391,5.177-2.219l-0.37-0.863l-10.479,2.219
	c0-8.938,1.665-10.849,10.232-11.588c1.836-0.308,3.647-0.74,5.424-1.294L323.379,337.362z M347.603,384.021l-0.802,0.74
	c4.5,5.301,9,10.54,13.375,15.841c3.826,4.128,5.863,9.6,5.672,15.224c0.164,1.511,0.56,2.986,1.17,4.377h1.604
	c0.308-2.034,1.418-4.377,0.801-6.164c-1.363-4.842-3.44-9.454-6.164-13.684C358.33,394.64,353.104,389.187,347.603,384.021
	L347.603,384.021z M334.904,382.851c-0.308-1.233-0.678-2.404-0.862-3.575c-1.882-6.676-0.562-13.848,3.575-19.416
	c1.174-1.917,2.067-3.993,2.65-6.164l-1.048-0.37C330.338,360.557,328.463,373.381,334.904,382.851z"/>
<path fill="#010101" d="M318.447,462.116c1.11-1.938,2.389-3.773,3.822-5.485c3.503-4.713,5.636-10.301,6.164-16.149
	c0-1.294,2.588,1.233,4.006,1.171c10.479-0.308,20.895-0.308,31.373,0c1.418,0,3.822-2.526,4.007-1.109
	c0.558,5.869,2.663,11.484,6.103,16.272c0.852,0.714,1.599,1.544,2.219,2.466c0.555,0.902,0.752,1.979,0.555,3.021
	c-0.309,0.678-1.727,1.109-2.712,1.109c-5.425,0-10.849,0-16.272,0h-38.462C318.447,463.411,318.016,462.979,318.447,462.116z"/>
<path fill="#010101" d="M389.516,477.464h-84.382c1.911-3.02,2.897-6.163,4.993-7.52c2.762-2.075,6.051-3.335,9.492-3.637
	c18.491-0.369,37.66-0.308,56.521,0C382.912,465.701,388.896,470.693,389.516,477.464z"/>
<path fill="#010101" d="M339.65,438.324c-8.259-0.555-18.121-13.375-20.956-24.347c-5.548,21.019-10.294,19.293-17.998,18.491l0,0
	l15.471-26.319l-8.383,9.308c-6.796,7.527-17.747,9.662-26.874,5.239l0,0l32.976-17.937l-22.683,8.259
	c-9.8,3.628-20.776-0.495-25.765-9.677l0,0l46.845-5.178l-30.388,0.678c-6.229,0.551-12.506-0.098-18.491-1.91
	c-5.837-2.038-10.031-7.186-10.848-13.314l59.727,8.444l-46.845-11.095c-5.663-0.749-10.957-3.224-15.163-7.088
	c-5.054-5.732-4.808-14.978-10.417-20.279l68.726,28.354l-49.803-24.224c-8.919-3.814-17.228-8.923-24.655-15.163
	c-7.492-6.356-11.799-15.693-11.773-25.518c29.997,21.976,61.465,41.87,94.183,59.542c4.16,2.46,6.554,7.079,6.164,11.896
	C321.899,402.143,323.44,429.634,339.65,438.324z"/>
</svg>
